<mxfile host="app.diagrams.net" modified="2021-03-30T03:07:25.164Z" agent="5.0 (Macintosh; Intel Mac OS X 10_15_6) AppleWebKit/537.36 (KHTML, like Gecko) Chrome/89.0.4389.90 Safari/537.36" etag="Z6nn4AToYZoWAXztRKuY" version="14.4.6" type="github">
  <diagram id="XTKTFThnAqto1sUPrQaS" name="第 1 页">
    <mxGraphModel dx="1186" dy="764" grid="1" gridSize="10" guides="1" tooltips="1" connect="1" arrows="1" fold="1" page="1" pageScale="1" pageWidth="827" pageHeight="1169" background="#F4F1DE" math="0" shadow="0">
      <root>
        <mxCell id="0" />
        <mxCell id="1" parent="0" />
        <mxCell id="e_4vZCf02zuZLS49hp3R-1" value="" style="aspect=fixed;html=1;points=[];align=center;image;fontSize=12;image=img/lib/azure2/databases/Azure_Database_MySQL_Server.svg;labelBackgroundColor=#F4F1DE;fillColor=#F2CC8F;strokeColor=#E07A5F;fontColor=#393C56;" parent="1" vertex="1">
          <mxGeometry x="130" y="90" width="37.5" height="50" as="geometry" />
        </mxCell>
        <mxCell id="e_4vZCf02zuZLS49hp3R-2" value="聚簇索引：也叫做一级索引、也叫做主键索引&lt;br&gt;&lt;div&gt;&lt;span&gt;非聚簇索引：也叫做二级索引&lt;/span&gt;&lt;/div&gt;&lt;div&gt;&lt;span&gt;二级索引中有：普通索引、唯一索引、联合索引&lt;/span&gt;&lt;/div&gt;" style="text;html=1;align=left;verticalAlign=middle;resizable=0;points=[];autosize=1;fontColor=#393C56;" parent="1" vertex="1">
          <mxGeometry x="220" y="70" width="270" height="50" as="geometry" />
        </mxCell>
        <mxCell id="e_4vZCf02zuZLS49hp3R-6" value="每一个索引：就是一颗B+树，也叫做平衡多路查找树&lt;br&gt;&lt;br&gt;在插入数据的时候，需要找到对应的页，如果页满了，还需要做页分裂，会影响到性能&lt;br&gt;&lt;br&gt;在删除的时候，如果页的利用率太低，也会触发页合并&lt;br&gt;&lt;br&gt;在查询的时候，B+数的时间复杂度为：log(m底数)n，m为数的阶，n为总共的节点&lt;br&gt;&lt;br&gt;&lt;br&gt;AVL：平衡、二叉查找树&lt;br&gt;&lt;br&gt;红黑树：相对平衡、二叉查找树，应用：内核epoll、CFS的底层调度模型" style="text;html=1;align=left;verticalAlign=middle;resizable=0;points=[];autosize=1;fontColor=#393C56;" parent="1" vertex="1">
          <mxGeometry x="220" y="150" width="470" height="170" as="geometry" />
        </mxCell>
        <mxCell id="e_4vZCf02zuZLS49hp3R-30" value="" style="shape=curlyBracket;whiteSpace=wrap;html=1;rounded=1;fontSize=16;align=center;size=0.5;fillColor=#F2CC8F;strokeColor=#E07A5F;fontColor=#393C56;" parent="1" vertex="1">
          <mxGeometry x="150" y="350" width="20" height="40" as="geometry" />
        </mxCell>
        <mxCell id="e_4vZCf02zuZLS49hp3R-33" value="" style="edgeStyle=orthogonalEdgeStyle;rounded=0;orthogonalLoop=1;jettySize=auto;html=1;fontSize=16;labelBackgroundColor=#F4F1DE;strokeColor=#E07A5F;fontColor=#393C56;" parent="1" source="e_4vZCf02zuZLS49hp3R-31" target="e_4vZCf02zuZLS49hp3R-30" edge="1">
          <mxGeometry relative="1" as="geometry" />
        </mxCell>
        <mxCell id="e_4vZCf02zuZLS49hp3R-31" value="&lt;span style=&quot;color: rgb(0 , 0 , 0) ; font-size: 12px ; text-align: left&quot;&gt;平衡多路查找树&lt;/span&gt;" style="text;html=1;align=center;verticalAlign=middle;resizable=0;points=[];autosize=1;fontSize=16;fontColor=#393C56;" parent="1" vertex="1">
          <mxGeometry x="40" y="355" width="100" height="30" as="geometry" />
        </mxCell>
        <mxCell id="e_4vZCf02zuZLS49hp3R-34" value="B树" style="text;html=1;align=center;verticalAlign=middle;resizable=0;points=[];autosize=1;fontSize=16;fontColor=#393C56;" parent="1" vertex="1">
          <mxGeometry x="170" y="340" width="40" height="20" as="geometry" />
        </mxCell>
        <mxCell id="e_4vZCf02zuZLS49hp3R-35" value="B+树" style="text;html=1;align=center;verticalAlign=middle;resizable=0;points=[];autosize=1;fontSize=16;fontColor=#393C56;" parent="1" vertex="1">
          <mxGeometry x="165" y="380" width="50" height="20" as="geometry" />
        </mxCell>
        <mxCell id="e_4vZCf02zuZLS49hp3R-37" value="Mongodb" style="text;html=1;align=left;verticalAlign=middle;resizable=0;points=[];autosize=1;fontSize=12;fontColor=#393C56;" parent="1" vertex="1">
          <mxGeometry x="220" y="340" width="70" height="20" as="geometry" />
        </mxCell>
        <mxCell id="e_4vZCf02zuZLS49hp3R-38" value="&lt;p style=&quot;line-height: 100%&quot;&gt;MySQL，&lt;span style=&quot;background-color: rgb(230 , 255 , 204)&quot;&gt;B+树主要在范围查询的时候性能优于B树&lt;/span&gt;，因为它的子节点，包含了全部的数据&lt;br&gt;B+树的阶取决于磁盘页的大小&lt;/p&gt;&lt;p style=&quot;line-height: 120%&quot;&gt;时间复杂度：一颗m阶，共有n个节点，的b+树，时间复杂度为：㏒(m底数)n&lt;/p&gt;&lt;p style=&quot;line-height: 100%&quot;&gt;&amp;gt; 扇区：是块设备传输数据的基本单元，也就是说它是块设备中最小的寻址单位，扇区通常的大小为512B。&lt;br&gt;&lt;br&gt;&amp;gt; 块：是&lt;span style=&quot;background-color: rgb(255 , 204 , 255)&quot;&gt;内核&lt;/span&gt;对&lt;span style=&quot;background-color: rgb(255 , 204 , 255)&quot;&gt;文件系统&lt;/span&gt;的一种抽象，也就是说&lt;span style=&quot;background-color: rgb(255 , 204 , 255)&quot;&gt;内核执行的所有磁盘操作都是以块&lt;/span&gt;为基本单位的&lt;br&gt;&lt;br&gt;&amp;gt;&amp;nbsp;&lt;font color=&quot;#000000&quot;&gt;&lt;span style=&quot;background-color: rgb(230 , 255 , 204)&quot;&gt;扇区是硬件设备传输数据的最小单位，而块是操作系统传输数据的最小单位&lt;/span&gt;&lt;br&gt;&lt;/font&gt;&lt;br&gt;&amp;gt; 由于内核将块作为对文件系统操作的最小单位，因此VFS将其看作是单一的数据单元&lt;/p&gt;&lt;p style=&quot;line-height: 100%&quot;&gt;一个磁盘块由连续几个（2^n）扇区组成；&lt;/p&gt;&lt;p style=&quot;line-height: 100%&quot;&gt;页的大小为磁盘块大小的2^n倍；&lt;/p&gt;&lt;p style=&quot;line-height: 100%&quot;&gt;&lt;/p&gt;&lt;p style=&quot;line-height: 100%&quot;&gt;&lt;br&gt;&lt;/p&gt;&lt;p&gt;&lt;/p&gt;&lt;p style=&quot;line-height: 100%&quot;&gt;总结：&lt;br&gt;&lt;/p&gt;&lt;p style=&quot;line-height: 100%&quot;&gt;扇区：磁盘的最小存储单位&lt;br&gt;&lt;span&gt;磁盘块：文件系统读写数据的最小单位&lt;br&gt;&lt;/span&gt;&lt;span&gt;页：内存的最小存储单位&lt;/span&gt;&lt;/p&gt;&lt;p style=&quot;line-height: 100%&quot;&gt;&lt;span&gt;&lt;br&gt;归纳：&lt;/span&gt;&lt;/p&gt;&lt;p style=&quot;line-height: 100%&quot;&gt;每个扇区是磁盘的最小存储单位，也是最小的寻址单位，通常大小为512B，一个磁盘块由2^n个扇区组成，块&lt;br&gt;是内核系统对文件系统的一种抽象，内核执行的所有操作都是以块为基本单位，页是由2^n个磁盘块组成，也是&lt;br&gt;内存的最小存储单位，操作系统在分配内存的时候，为了避免频繁的去分配资源，所以一次性分配的内存都是&lt;br&gt;页的整数倍，每个页有自己的页描述符，里面是一个块构建的循环链表&lt;/p&gt;&lt;p&gt;&lt;/p&gt;" style="text;html=1;align=left;verticalAlign=middle;resizable=0;points=[];autosize=1;fontSize=12;spacing=0;fontColor=#393C56;" parent="1" vertex="1">
          <mxGeometry x="215" y="370" width="600" height="420" as="geometry" />
        </mxCell>
        <mxCell id="e_4vZCf02zuZLS49hp3R-42" value="" style="shape=image;imageAspect=0;aspect=fixed;verticalLabelPosition=bottom;verticalAlign=top;fontSize=12;align=left;image=data:image/jpeg,/9j/4AAQSkZJRgABAQEAeAB4AAD/2wBDAAgGBgcGBQgHBwcJCQgKDBQNDAsLDBkSEw8UHRofHh0aHBwgJC4nICIsIxwcKDcpLDAxNDQ0Hyc5PTgyPC4zNDL/2wBDAQkJCQwLDBgNDRgyIRwhMjIyMjIyMjIyMjIyMjIyMjIyMjIyMjIyMjIyMjIyMjIyMjIyMjIyMjIyMjIyMjIyMjL/wAARCAG3AQ8DASIAAhEBAxEB/8QAHwAAAQUBAQEBAQEAAAAAAAAAAAECAwQFBgcICQoL/8QAtRAAAgEDAwIEAwUFBAQAAAF9AQIDAAQRBRIhMUEGE1FhByJxFDKBkaEII0KxwRVS0fAkM2JyggkKFhcYGRolJicoKSo0NTY3ODk6Q0RFRkdISUpTVFVWV1hZWmNkZWZnaGlqc3R1dnd4eXqDhIWGh4iJipKTlJWWl5iZmqKjpKWmp6ipqrKztLW2t7i5usLDxMXGx8jJytLT1NXW19jZ2uHi4+Tl5ufo6erx8vP09fb3+Pn6/8QAHwEAAwEBAQEBAQEBAQAAAAAAAAECAwQFBgcICQoL/8QAtREAAgECBAQDBAcFBAQAAQJ3AAECAxEEBSExBhJBUQdhcRMiMoEIFEKRobHBCSMzUvAVYnLRChYkNOEl8RcYGRomJygpKjU2Nzg5OkNERUZHSElKU1RVVldYWVpjZGVmZ2hpanN0dXZ3eHl6goOEhYaHiImKkpOUlZaXmJmaoqOkpaanqKmqsrO0tba3uLm6wsPExcbHyMnK0tPU1dbX2Nna4uPk5ebn6Onq8vP09fb3+Pn6/9oADAMBAAIRAxEAPwDK8BeAvDOteCtP1DUNN866m8zfJ58i5xIyjgMB0ArpP+FW+Df+gN/5NTf/ABdHwt/5JxpP/bb/ANHPWn4g8VW/h65sbaSw1C9uL3zPJisYRIx2AFuMg9DnjPQ0AZn/AAq3wb/0Bv8Ayam/+Lo/4Vb4N/6A3/k1N/8AF07/AITt/wDoT/Fn/gs/+yo/4Tt/+hP8Wf8Ags/+yp2YuZdxv/CrfBv/AEBv/Jqb/wCLo/4Vb4N/6A3/AJNTf/F07/hO3/6E/wAWf+Cz/wCyo/4Tt/8AoT/Fn/gs/wDsqLMOZdxv/CrfBv8A0Bv/ACam/wDi6P8AhVvg3/oDf+TU3/xdO/4Tt/8AoT/Fn/gs/wDsqP8AhO3/AOhP8Wf+Cz/7KizDmXcb/wAKt8G/9Ab/AMmpv/i6P+FW+Df+gN/5NTf/ABdO/wCE7f8A6E/xZ/4LP/sqP+E7f/oT/Fn/AILP/sqLMOZdxv8Awq3wb/0Bv/Jqb/4uj/hVvg3/AKA3/k1N/wDF07/hO3/6E/xZ/wCCz/7Kj/hO3/6E/wAWf+Cz/wCyosw5l3G/8Kt8G/8AQG/8mpv/AIuj/hVvg3/oDf8Ak1N/8XTv+E7f/oT/ABZ/4LP/ALKj/hO3/wChP8Wf+Cz/AOyosw5l3G/8Kt8G/wDQG/8AJqb/AOLo/wCFW+Df+gN/5NTf/F07/hO3/wChP8Wf+Cz/AOyo/wCE7f8A6E/xZ/4LP/sqLMOZdxv/AAq3wb/0Bv8Ayam/+Lo/4Vb4N/6A3/k1N/8AF07/AITt/wDoT/Fn/gs/+yo/4Tt/+hP8Wf8Ags/+yosw5l3G/wDCrfBv/QG/8mpv/i6P+FW+Df8AoDf+TU3/AMXTv+E7f/oT/Fn/AILP/sqP+E7f/oT/ABZ/4LP/ALKizDmXcb/wq3wb/wBAb/yam/8Ai6ydV8GeH/Duu+EbvSrD7PO/iGziZ/OkfKlicYZiOoFdd4d8RW3iSzuLi3tru2+z3DW0sV1GEdXUAkEAnH3sc85BrP8AGH/IR8Hf9jLZfzakM9oooooAKKKKACiiigAooooAKKKKACiiigDw/wCFv/JONJ/7bf8Ao56k1z/kpngn/t+/9Eio/hb/AMk40n/tt/6OepNc/wCSmeCf+37/ANEiqj8SIqfAzt5poreCSeeRIoY1LvI7BVVQMkknoAK45/iHHe3Nxa+HND1HWpYpDEtxEFjtHYAFh5xOBgH05OMcEGqt1qEXxE1OfRbRXfwzaMDfXiAbbyVWBWGNuyg4YsvJwACAQW7K0s7awtktrO3ht7dM7YoUCKuTk4A4HJJrLE432b5YbnmTqKno1dnH22mfELUYzdXvie00iSTBFna2CTrGNo4LOc5znIyw9DjgTf8ACPeNv+h//wDKPD/jXYUV57xdZ/aMfrE/L7kcf/wj3jb/AKH/AP8AKPD/AI0f8I942/6H/wD8o8P+NdhRR9brfzC+sVP6S/yOP/4R7xt/0P8A/wCUeH/Gj/hHvG3/AEP/AP5R4f8AGuwqrqeoRaVpd1qE6u0VtE0rhACxCjJxkjmj63W/mGq9Ruy/Jf5HM/8ACPeNv+h//wDKPD/jR/wj3jb/AKH/AP8AKPD/AI1Un+JNt9qtTbwW5tiW+0CTUrIPjHylMXGM56g9j1GOdS18dabdaZqd+kE5j05VaVUkhl3bs42mORlJ47kVbr4lK9zRyrL/AIZFb/hHvG3/AEP/AP5R4f8AGj/hHvG3/Q//APlHh/xrUi8QXc4YxeHNTcKxVts1ocMOoP7/AKirmlao2qJI5sLi2RGKhpZIXDEEhgPLkfkEYOcfzpPE119r8iHVqJX0/A5//hHvG3/Q/wD/AJR4f8aP+Ee8bf8AQ/8A/lHh/wAa7Cip+t1v5ifrFT+kv8jj/wDhHvG3/Q//APlHh/xqs2oeOfC05a/gTxPphYZmtIhFdRAlB/qhww5bAGSepZRxXc0VUcZWTu3caxEutn8v8jF0TxnpGt3Jsleay1NfvaffR+TOOCR8p+98o3fKTgEZxXQVzXibwlp/iW2zIPs2oxbWttQhGJoGUkqQwwSASTtz3yMHBEnhTVNQurWXTdbTbrVhhbllj2xzKxby5UPQhgpz0wwYYXpXpYbFKto9GbxlGaujE8Cf6zxV/wBjDd/+y1N4w/5CPg7/ALGWy/m1Q+BP9Z4q/wCxhu//AGWpvGH/ACEfB3/Yy2X82oe56kdke0UUUUhhRRRQAUUUUAFFFFABRRRQAUUUUAeH/C3/AJJxpP8A22/9HPVPx1fS6X4q8OahAqNNa2mpzoHBKllttwzjHGRVz4W/8k40n/tt/wCjnqt400/+1vGPhnTvN8r7XbalB5m3ds32+3OMjOM9M047omfwu5ufD2w/s3wBosHm+ZvtxPu24x5hMmOvbfjPfHaulrlPhrqn9q+ANKkZoTJBH9mdYz93yztUEZOCVCk/XPQiurrxal+d3PCq353fuFFFFQZhRRRQAVieMefB+qxj70tu0SjPVm+UD8yK26r3dlb3yxLcx+YsUqzICSAHU5U8dcHnmqi7NMqEuWSfY89vvEV9Bq6wQa5dC2eSZRPJ5C2rKsZZdk5g2ghhtIO7GO/NRXN/Je+H/FJeS+kH2K3f/T7RIJwSXyG2ou4DAweR1wa786LZNqf9osLh7kAhS9zKypkYO1C21TjuAKgXwxpQs7y1aGaWO9ULcNNdSyO4HQb2YsAPY1qqkUtuxuqlNWstrfmctqlvea1qE914RE1sQrR312knkxXhU48tMqcyAgjzgBt6ZPQdP4Xu9PutEjTTrRrKO3YwSWrptaF16q3qe+e+c0f8Ixp//Pxq3/g3uv8A45Vyw0q304uYJLxy+M/aLyWfp6eYzY/CpcouNv6/r+u5nOcXGy6f1/X9Wu0UUVkZBRRRQAVxOry/2T8W/D1608KxapZTae6yjG3YfMUq2fvMzKoGPzJGO2rj7y3udS+LWkrjbaaTp0l3vEZO55i0WwtnA4XcO/yt+HVg7+2VjfD/AB/JkPgT/WeKv+xhu/8A2WpvGH/IR8Hf9jLZfzaofAn+s8Vf9jDd/wDstTeMP+Qj4O/7GWy/m1em9z247I9oooopDCiiigAooooAKKKKACiiigAooooA8P8Ahb/yTjSf+23/AKOepNc/5KZ4J/7fv/RIqP4W/wDJONJ/7bf+jnqTXP8Akpngn/t+/wDRIqo/EiKnwMdr2mr4Q1O68Y6XA7QyKBq1jED+9TcP36AceYvJOeCpY5U5J6PRtb03xBp4vtLu0ubcsU3KCCGHUEEAg9DyOhB6EVq1x+sfD6zutUfWdFvrjRNYdtz3FqcpKdyk+ZGThgdvQYBJy26oxODVV80dGeZOEZ77nVUVyH/CMeNf+h//APKND/jR/wAIx41/6H//AMo0P+NcX9n1vIy+rv8AmX4/5HX0VyH/AAjHjX/of/8AyjQ/40f8Ix41/wCh/wD/ACjQ/wCNH9n1vIPq7/mX4/5HX0VyH/CMeNf+h/8A/KND/jR/wjHjX/of/wDyjQ/40f2fW8g+rv8AmX4/5HX0VyH/AAjHjX/of/8AyjQ/40f8Ix41/wCh/wD/ACjQ/wCNH9n1vIPq7/mX4/5HX0VyH/CMeNf+h/8A/KND/jR/wjHjX/of/wDyjQ/40f2fW8g+rv8AmX4/5HX0VyH/AAjHjX/of/8AyjQ/40f8Ix41/wCh/wD/ACjQ/wCNH9n1vIPq7/mX4/5HX0VyH/CMeNf+h/8A/KND/jS/8Ij4nuv3Oo+O7uS0b/WLZ2MVtKe42yLkrzjPHIyO9H9n1fIPq7/mX4/5D/E3jWHSrr+xtKi/tHxHNtWCyQEhSwJDSN0AAG4jIOMHgHcNTwtoMmiac738yXesXbebf3gBzK/YDP8ACo+VQMDAyAMkU/w34V0jwpZNbaVbeX5m0zSu26SUgYyx/M4GACTgDNbVejh8NGivM2UYxVonB+BP9Z4q/wCxhu//AGWpvGH/ACEfB3/Yy2X82qHwJ/rPFX/Yw3f/ALLU3jD/AJCPg7/sZbL+bVL3PUjsj2iiiikMKKKKACiiigAooooAKKKKACiiigDw/wCFv/JONJ/7bf8Ao56k1z/kpngn/t+/9Eio/hb/AMk40n/tt/6OepNc/wCSmeCf+37/ANEiqj8SIqfAzt5poreCSeeRIoY1LvI7BVVQMkknoAK4ePx7f6/czxeD9D/tG0j2xnUrmbyIUkYZ+4w3Oq5BIGD7cgl+s2beO9ZfS/PdPD2mTbL8RSj/AE2cBWEXy8hUyNxJHzHAGV3Dr4YYreCOGGNIoo1CIiKFVVAwAAOgArHE4zkfJDc8udRQ03ZxcPg/xDqkj3fiHxdqMNw3CW+jTG3hiG5jjJGX4I5IB4wS3Bqb/hX5/wChw8W/+DP/AOxrsaK854mq3fmMXXqdzjv+Ffn/AKHDxb/4M/8A7Gj/AIV+f+hw8W/+DP8A+xrsaKX1ir/MHt6nc47/AIV+f+hw8W/+DP8A+xo/4V+f+hw8W/8Agz/+xrsaKPrFX+YPb1O5x3/Cvz/0OHi3/wAGf/2NH/Cvz/0OHi3/AMGf/wBjXWvcQxzxwPNGssoJjjLAM+OuB3xmpKf1ir/MHt6nc47/AIV+f+hw8W/+DP8A+xo/4V+f+hw8W/8Agz/+xrsaKX1ir/MHt6nc47/hX5/6HDxb/wCDP/7Gj/hX5/6HDxb/AODP/wCxrsaKPrFX+YPb1O5x3/Cvz/0OHi3/AMGf/wBjVZ9D8a+HXmk0DXU1e1ZWb7JrTM8ithcbZBgknBwCVUZ75JruqKqOKqxd7gq81u7nMad42cavbaT4i0ebRL67ybXfOk0M2MDaJF4D5J+Uj05ywB62sbXtB0/xJpMum6lD5kL8qw4aNuzKexH+IOQSKo+FL29tXl8N6zc/aNTsYxJHdM6k3luzMFkx94MMbWznkA7juzXp4XF+192W5vCamtNGZXgT/WeKv+xhu/8A2WpvGH/IR8Hf9jLZfzaofAn+s8Vf9jDd/wDstTeMP+Qj4O/7GWy/m1U9z1Y7I9oooopDCiiigAooooAKKKKACiiigAooooA8P+Fv/JONJ/7bf+jnpfEUqwfEXwbM4crGt+xCIXYgQA8KAST7AZNJ8Lf+ScaT/wBtv/Rz1Jrn/JTPBP8A2/f+iRVR+JEz+FifCxGk8Frqc0ry3Wp3c93cMwABkLlTgADA+QHHqT9K7WuR8CWUugxap4ammeQaddF7XchH+iyjdGd20Bju8wHHRlI6AV11ePXTVSSZ4df+IwooorEyCiiigArH8WTS2/hHV5oJXiljtJWSRGKspCnBBHQ1sVleI7S41HR3sLeIP9pdIpSWACRFhvb3+XOAO5FVHdXLptKabODuLCM3lvFdavdm5R2MHmafqxO4KdxjP2jk4z93qKm+0Xdp4d8UbNXvJJI4ImjDpdwSQ53DIE7MwzjqrHp2q5eeF9Su/EPmeUxhLTSTGaCE2bloyg2RCTzCxBG4swBIJ44FRr4e1mTQ/EEZi1CWW5tYILZdQmgaZ9m4nLIduPm4LHPXJro5k1q+35nUpLS8r7fmS6i1n4fumj1mPWvImbFlPaareSCZj0hYeZlZD2z8p9RjFdN4d06eysBJeCVLubmSNr6a5WMZO1QZGbkAgEjAJHpiufXT5ruWe41vw3q2qTyq8S+a1oscMTH7kaef8vGMtkscdew2vC0V/aWMlleQ6iI4nP2eS+MJfyz0QmOR9xHqcdR6VEn7u/8AX9f13xqP3d/6/r+u29RRRWBgFFFFABXJa7NLF8SfBqRyOiyrfJIFYgOvlK2D6jKg/UD0rra5mWA614/tJIo0WHQFYyTsr7nlmjI8pei4CFHY8nlAMZNdWDTdZWNqHx39TP8AAn+s8Vf9jDd/+y1N4w/5CPg7/sZbL+bVD4E/1nir/sYbv/2WpvGH/IR8Hf8AYy2X82r03ue5HZHtFFFFIYUUUUAFFFFABRRRQAUUUUAFFFFAHh/wt/5JxpP/AG2/9HPUmuf8lM8E/wDb9/6JFR/C3/knGk/9tv8A0c9VvGWrWOh+OfB+o6jP5FpD9t8yTYzYzEqjhQT1I7U47omesWbvi7QNSuprXXfD0yQ63YKyqjgBLuIkEwueOMjK5OASehO5aWn/ABEsPtp03xDazeH9SGf3V6f3TgFhlJeFK/L1OAScDdUn/C2PBP8A0Gv/ACVm/wDiKpap8Qfhzrdk1nqd9DdW7Z+SWzmO04Iyp2ZVsE4IwRniivh6dXVvU890uZWlFndUV49/xZP/AD9to/4sn/n7bXH/AGf/AH0Z/VPX7v8AgnsNFePf8WT/AM/baP8Aiyf+fttH9n/30H1T1+7/AIJ7DRXj3/Fk/wDP22j/AIsn/n7bR/Z/99B9U9fu/wCCew0V49/xZP8Az9to/wCLJ/5+20f2f/fQfVPX7v8AgnsNFePf8WT/AM/baP8Aiyf+fttH9n/30H1T1+7/AIJ7DRXj3/Fk/wDP22j/AIsn/n7bR/Z/99B9U9fu/wCCew0yaaK3gkmmkSKKNS7u7BVVQMkknoAK8h/4sn/n7bUkMvwVgnjmQIWjYMA6XbqSDnlSCCPYjBp/2f8A30H1T1+7/gnR3/jW8127n0fwPbpf3SrifUXbbb2hLbQeR+8OAxGMg4yA+CK6rw3oMXhzRY7BJnuZdzS3FzIAHnlY5Z29STxyScADJxmubtPiZ8P7C2S2s9ShtrdM7IobGVFXJycAJgckmp/+FseCf+g1/wCSs3/xFd1CjTorR6mipuKtGJW8Cf6zxV/2MN3/AOy1N4w/5CPg7/sZbL+bVT+HF3Bf2viK8tn8y3uNduZYnwRuVghBweRwe9XPGH/IR8Hf9jLZfzaoe56Mdke0UUUUhhRRRQAUUUUAFFFFABRRRQAUUUUAeH/C3/knGk/9tv8A0c9bGu+KdG8NfZ/7XvPs32jd5X7p33bcZ+6Dj7w61j/C3/knGk/9tv8A0c9Sa5/yUzwT/wBv3/okU0ruwpOybI/+FpeDf+gz/wCSs3/xFH/C0vBv/QZ/8lZv/iK76uP1j4g2drqj6Notjca3rCNte3tRhIjuUHzJCMKBu6jIBGG21pKmoq7ZzrEN7Io/8LS8G/8AQZ/8lZv/AIij/haXg3/oM/8AkrN/8RVn7Z8Rrv8Afwaf4d0+Jvu215NLLKmOPmaP5TnGRjsR3o3/ABL/AOpS/wDJmuf2tH+YX1qPl95W/wCFpeDf+gz/AOSs3/xFH/C0vBv/AEGf/JWb/wCIqzv+Jf8A1KX/AJM0b/iX/wBSl/5M0e2o/wAwfWo+X3lb/haXg3/oM/8AkrN/8RR/wtLwb/0Gf/JWb/4irO/4l/8AUpf+TNG/4l/9Sl/5M0e2o/zB9aj5feVv+FpeDf8AoM/+Ss3/AMRR/wALS8G/9Bn/AMlZv/iKs7/iX/1KX/kzRv8AiX/1KX/kzR7aj/MH1qPl95W/4Wl4N/6DP/krN/8AEUf8LS8G/wDQZ/8AJWb/AOIqzv8AiX/1KX/kzRv+Jf8A1KX/AJM0e2o/zB9aj5feVv8AhaXg3/oM/wDkrN/8RR/wtLwb/wBBn/yVm/8AiKs7/iX/ANSl/wCTNG/4l/8AUpf+TNHtqP8AMH1qPl95W/4Wl4N/6DP/AJKzf/EUf8LS8G/9Bn/yVm/+Iqzv+Jf/AFKX/kzQPFXirT+dV8GTS28XyzXOm3aTFz03RwnDYJxwTkA5PSqjUot25gWJT2t95W/4Wl4N/wCgz/5Kzf8AxFH/AAtLwb/0Gf8AyVm/+IrpPDfirSPFdk1zpVz5nl7RNE67ZIiRnDD8xkZBIOCcVtVuqV+oPENOzRz+ia/pniKze70q5+0QJIYmfy2TDAA4wwB6EVk+MP8AkI+Dv+xlsv5tUPgT/WeKv+xhu/8A2WpvGH/IR8Hf9jLZfzasWdKd1c9oooooGFFFFABRRRQAUUUUAFFFFABRRRQB4f8AC3/knGk/9tv/AEc9Sa5/yUzwT/2/f+iRUfwt/wCScaT/ANtv/Rz1W8aah/ZPjHwzqPleb9kttSn8vdt37LfdjODjOOuKcd0TP4WXPEMmoeMtWl8N6Vc/Z9Fg+XV7+E/Mzd7ZDjGcY3EZxnB7q3TaNomm+H9PFjpdoltbhi+1SSSx6kkkknoOT0AHQCsn4fW9zb+BNK+2TedcTxtcvIWLFvNdpASTyWw4z75610teXia8qk32PFrVG3yrZBRRRXMYBRRRQAVBe3kGn2U95dP5dvAhkkfaTtUDJOByanrE8YjPg3WFAyXtJEA9SRgfqaaV3YuCUpJMgn8XQR3VqkOmatNBKWEso0y5Bi4yDtMfzAnjjkccHtaXxPpRtb25aWeKOyVWuBNaSxsgPQ7WUMc4PQGuDu47G38QHR4dH8NzXQeRTbDRU85VEZkRh++wwIwOdvvimpPp8vhjxUNNOlPAbS3kMum2zW6kkt8rRl22sMex55rf2UWtP6uzf2MXbfp+LO9/4SfT/wDn31b/AMFF1/8AG6uWGqW+peZ5Ed2nl4z9os5YM59PMVc9O1cbrF1f22q3S+D5priUqx1KFUEsULd2QswAn/6ZjIPVgOp6fwu+lyaBbnSJnmtfmy0jEyFycvvzyG3Ek+5qHBKN/wCv67GU4JRuv69TYooorIyCiiigDkfE/hi8bUE8S+GnS31+BcOjcR30f/POQcc4AwfYcjCsvQ6BrcGv6RFexDy5PuXFuSd1vMPvxsCAQynjkDPB6EVdrlrO6e0+Kl9psQxb3ulR30oLMf3ySeVuAzgZTaDgc7F/H0sBXlzezex1UZuS5X0KXgT/AFnir/sYbv8A9lqbxh/yEfB3/Yy2X82qHwJ/rPFX/Yw3f/stTeMP+Qj4O/7GWy/m1db3PYjsj2iiiikMKKKKACiiigAooooAKKKKACiiigDw/wCFv/JONJ/7bf8Ao56z/H+l/wBt+KPDemBIWe5ttSjj84ZVXMA2MeD0bBzjIxmtD4W/8k40n/tt/wCjnqTXP+SmeCf+37/0SKcd0TN2i2X/AIe3/wDaXgDRZ/K8vZbiDbuznyyY89O+zOO2e9dLXE6te3PgPW2vnimm8LX0he5YMZGsLh2JZwMZ8tiQSOcMTjGQrdhaXltf2yXNncQ3Fu+dssLh1bBwcEcHkEV5WIoypzd9jxK0Gpc3Rk1FFFc5iFFFFABVTUdOh1OCOGdpBEkyTFUOA5Q7gG9RkA49qt0U07O407GDL4S0+e6R5iZLSLeYrAwwiCMuMMQoTJJyT8xPJNI3hO3mstRt7m/vbh7+NIpZn8tXVFztChUCjGT/AA9636KfPIr2ku5g2/hy4tIRDbeIdShiBJCRwWijJOScCDuST+NXNK0k6W1w3264ufPfe/mxQp83dv3ca5J4yTnoK0qKHJsTk2FFFFSSFFFFABXLW8KT/Fie7gk8z7Noy29yAVxEzzb4wfmzkgOcYGAFOTuqTxV4q/sTyNO063+369e/LZ2S/wDob+iDB7jODyACRqeHNIk0fSgl1cPc6hcN597OzlvMmKgMV4GFAUKoAGFUcV6OAoyc/aPY6aMGlzM5rwJ/rPFX/Yw3f/stTeMP+Qj4O/7GWy/m1Q+BP9Z4q/7GG7/9lqbxh/yEfB3/AGMtl/Nq7HuezHZHtFFFFIYUUUUAFFFFABRRRQAUUUUAFFFFAHh/wt/5JxpP/bb/ANHPUmuf8lM8E/8Ab9/6JFR/C3/knGk/9tv/AEc9Sa5/yUzwT/2/f+iRVR+JEVPgZ280MVxBJBPGksMilHjdQyspGCCD1BFcRdeBdQ0i9lv/AAZq39nNLJ5kumXA3WchJTOABmPhTyAT2BUV3VcLdeOtQ1e9lsPBmk/2i0Unly6ncHbZxkFM4IOZOGPAIPcBhW1X2fL+82OCN/kS7PiX/wBSl/5M0bPiX/1KX/kzSHTPH1/+9ufE+naW4+UQWFgJ0YddxaU7g3OMDjAHqaP+Ee8bf9D/AP8AlHh/xrz3LBoi9Ly+5i7PiX/1KX/kzRs+Jf8A1KX/AJM0n/CPeNv+h/8A/KPD/jR/wj3jb/of/wDyjw/40c+D7C5qPl9z/wAhdnxL/wCpS/8AJmjZ8S/+pS/8maT/AIR7xt/0P/8A5R4f8aP+Ee8bf9D/AP8AlHh/xo58H2Dmo+X3P/IXZ8S/+pS/8maNnxL/AOpS/wDJmk/4R7xt/wBD/wD+UeH/ABo/4R7xt/0P/wD5R4f8aOfB9g5qPl9z/wAhdnxL/wCpS/8AJmjZ8S/+pS/8maT/AIR7xt/0P/8A5R4f8aP+Ee8bf9D/AP8AlHh/xo58H2Dmo+X3P/IXZ8S/+pS/8maNnxL/AOpS/wDJmk/4R7xt/wBD/wD+UeH/ABo/4R7xt/0P/wD5R4f8aOfB9g5qPl9z/wAhdnxL/wCpS/8AJmj7H8Rrv9xPqHh3T4m+9c2cMssqY5+VZPlOcYOexPek/wCEe8bf9D//AOUeH/GlD/EDSOv9k6/bRfW1up8/nGu0n8QvqacZYNsadJ7W/r1NLwx4Ns/DbTXbXNxqGq3Kqtxf3bb5HAAG0E/dXIzjJPTJOBjo65jw34307xBK1lNFNpmrx7RJp16NkuSm7KA8suM84BwMkAEZ6evSjy293YqV76nB+BP9Z4q/7GG7/wDZam8Yf8hHwd/2Mtl/Nqh8Cf6zxV/2MN3/AOy1N4w/5CPg7/sZbL+bVyvc9KOyPaKKKKQwooooAKKKKACiiigAooooAKKKKAPD/hb/AMk40n/tt/6OepNc/wCSmeCf+37/ANEio/hb/wAk40n/ALbf+jnqt401D+yfGPhnUfK837JbalP5e7bv2W+7GcHGcdcU47omfws0vE6ah4q1JvDWnXE1ppsP/IYu1TBYMoZYI2PUlTluMAFck5KnptP0+00nT4LCwgSC1gXbHGnQD+pJ5JPJJJNZPgu2SHwnYXGd9xfxi+uZSqqZJpRvdjtAHVsD0AA7Vv15eJrurN9jxK023y9EFFFFcxiFFFFABRRWF4uvL2x0LzNPnEFy9xBEshKjAeVVPLKwHBPO049DTSu0ioxcnZG7RXlv2u5fUP7SHizS/tEcXlGVddtsbCc4IFng89M9MnHWtWDWNXk8OxsdZilml1iO1W6tJYLjETFRgMIwueT1QH2rX2TNHRa6ne0Vwcmrvaefb6h4h1y11OLASxMVoz3OThfJIgxICeOOn8W2ut0aG8h06M39xcS3LgO6zmImMkDKAxooIBzziocGlcmUHHcv0UUVBmFFFFAGB4m8Jaf4ltsyD7NqMW1rbUIRiaBlJKkMMEgEk7c98jBwRJ4U1TULq1l03W0261YYW5ZY9scysW8uVD0IYKc9MMGGF6Vt1xOry/2T8W/D1608KxapZTae6yjG3YfMUq2fvMzKoGPzJGO/A1pRnydGdNCTfuMPAn+s8Vf9jDd/+y1N4w/5CPg7/sZbL+bVD4E/1nir/sYbv/2WpvGH/IR8Hf8AYy2X82rue57Mdke0UUUUhhRRRQAUUUUAFFFFABRRRQAUUUUAeH/C3/knGk/9tv8A0c9Q+LrGLVPHHhXT52dYbqHUYHKEBgrW+04znnBqb4W/8k40n/tt/wCjnqTXP+SmeCf+37/0SKcd0TP4WaXg66ZNIGiXUaRahoyx2dxGsocMAi7JFxztdcEZAOcjtXRVzfijSdeGoQ654Ymt/t8ULQ3FrdFvLuoxlkHBwGVi2Dx985YDgy+GfFun+JbbEZ+zajFuW50+Y4mgZSAwKnBIBIG7HfBwcgedisPKnJtbHjVab+NbG/RRRXGc4UUUUAFYniKK4uzptpb27SlrtJnbkIgi/eDc2DjLKo6Hr7Vt0U07O5UXZ3PNPseuS6vczJcXWILSRVmNvcobVjKrBUZlLXW3acDaAw4OARUxi1L+xJr2a2uLiRtdhucpYyxM8aiMF/KwzqPlPYnvivRaK09rtp/V7mrrX6f1ax55JDb6on23V7rWv7YCg281rpN4kdk3pEpj5z0Ytyw44HA67w9fXN9pETXu43cfySsbWWAOR3CyKp5GOgxnIrVopSndWIlPmQUUUVmZhRRRQAVx9xBPrHxWsDHJD9k0KyeaUrgt504ZBG3zcfKoccdufvCoNX8aT6ndSaJ4Mi/tDUW2K+oKA1paBgTuZxkEgDIGCM+pBU9N4d0WTRNOkiub17+9nmee5u3UqZXPAO3JCgKFUAcYUcCvSwWHlze0lsdVKm4e8zmvAn+s8Vf9jDd/+y1N4w/5CPg7/sZbL+bVD4E/1nir/sYbv/2WpvGH/IR8Hf8AYy2X82rre57Edke0UUUUhhRRRQAUUUUAFFFFABRRRQAUUUUAeH/C3/knGk/9tv8A0c9M8T3lrYfELwZc3lzDbW6fbt8szhFXMQAyTwOSBT/hb/yTjSf+23/o560vFNz4asbOC78SwWjwCTyonuLXztrMM4A2kjIX9KadncUldNGl/wAJh4Z/6GLSP/A2P/4quc8QW3w98RTrd3Gt6XbagjB0v7PUIop1YFcHcDyQFAG4HA6YrG/4Sb4U/wDPvpX/AIKW/wDjdH/CTfCn/n30r/wUt/8AG60dW+jRgsOlsyx/ZXhj/oqWrf8AhQRf4Uf2V4Y/6Klq3/hQRf4VX/4Sb4U/8++lf+Clv/jdH/CTfCn/AJ99K/8ABS3/AMbrP3P5UP2HmWP7K8Mf9FS1b/woIv8ACj+yvDH/AEVLVv8AwoIv8Kr/APCTfCn/AJ99K/8ABS3/AMbo/wCEm+FP/PvpX/gpb/43R7n8qD2HmWP7K8Mf9FS1b/woIv8ACj+yvDH/AEVLVv8AwoIv8Kr/APCTfCn/AJ99K/8ABS3/AMbo/wCEm+FP/PvpX/gpb/43R7n8qD2HmWP7K8Mf9FS1b/woIv8ACj+yvDH/AEVLVv8AwoIv8Kr/APCTfCn/AJ99K/8ABS3/AMbo/wCEm+FP/PvpX/gpb/43R7n8qD2HmWP7K8Mf9FS1b/woIv8ACj+yvDH/AEVLVv8AwoIv8Kr/APCTfCn/AJ99K/8ABS3/AMbo/wCEm+FP/PvpX/gpb/43R7n8qD2HmWP7K8Mf9FS1b/woIv8ACj+yvDH/AEVLVv8AwoIv8Kr/APCTfCn/AJ99K/8ABS3/AMbo/wCEm+FP/PvpX/gpb/43R7n8qD2HmWP7K8Mf9FS1b/woIv8ACl/sXwVN+71H4gXepWh/1lpea8jRSem4KQeDgjnqBVb/AISb4U/8++lf+Clv/jdH/CTfCn/n30r/AMFLf/G6fufyoPYeZ2Gl6z4I0SyWz0zV9DtbdcfJFdxDccAZY7ss2AMk5JxzVz/hMPDP/QxaR/4Gx/8AxVcH/wAJN8Kf+ffSv/BS3/xuj/hJvhT/AM++lf8Agpb/AON1ftX2J+rrua/w+miuE8TTwSJLDJr906SIwZWU7CCCOoIqz4w/5CPg7/sZbL+bVP4V1jwxqcNzD4Z+zrFCyvMkFqYVDMCAcFRknb+lQeMP+Qj4O/7GWy/m1ZHQlZWPaKKKKBhRRRQAUUUUAFFFFABRRRQAUUUUAeH/AAt/5JxpP/bb/wBHPTvHf+s8K/8AYw2n/s1N+Fv/ACTjSf8Att/6OeneO/8AWeFf+xhtP/Zqa3FLZneVyviPx5pmg3h0yGG41PWWXKafZxl3+6WG4j7o456sAQdpFP8AFut6hbCDRvD4hl129+4HORbQ8hp34IwDgDPUngNgqZfDHhi08MWDxRO9xeTt5l5ey8yXEnUsx54yTgZ4yepJJMTilR0WrPLlKMFd/cZh1X4gah/x6+H9J0nZ97+0bwz+bnpt8oDGMHOeuRjoaN/xL/6lL/yZrr6K8546s+pj9Yl2RyG/4l/9Sl/5M0b/AIl/9Sl/5M119FL67W7i+sS7I5Df8S/+pS/8maN/xL/6lL/yZrr6RmCqWPAAyaPrtbuH1iXZHI7/AIl/9Sl/5M0b/iX/ANSl/wCTNWp/Gdoba3uLCw1S+ildMtHp1yB5bfxqTHhscHGeR09DoW3iPTrqaWFWuo5IoTOy3FnNCdgOCw3oM/hVPF4hblupUX2fwMXf8S/+pS/8maN/xL/6lL/yZrTi8WaZPCksMeqSROoZHTSbohgehBEfIq5Y6za6hOYoYr5GC7sz2E8K4/3nQDPPTOaHi8Qt/wAhOrUW6/AwN/xL/wCpS/8AJmjf8S/+pS/8ma6+ip+u1u5P1iXZHIb/AIl/9Sl/5M0DXfG2l8an4ZtNSjH7yS40m627E7qIpPmdxgnAODkDrmuvoprHVk9x/WJdUjF8OeM9I8TyTW9m80N9b58+yuo/LmiwxU5HQ8jnBOMjOCcV0Fcv4n8G6b4nVJ5d9tqcC/6LfwErJCwO4HgjcAR0PTJwQTml8Ja3qFyJ9G8QCGLXbL74Q4FzDwFnTgDBOQcdCOQuQo9LDYqNbR6M2jKM1eP3GZof/JTPG3/bj/6JNSeMP+Qj4O/7GWy/m1R6H/yUzxt/24/+iTUnjD/kI+Dv+xlsv5tRL4melT+BHtFFFFSWFFFFABRRRQAUUUUAFFFFABRRRQB4f8Lf+ScaT/22/wDRz07x3/rPCv8A2MNp/wCzU34W/wDJONJ/7bf+jnp3jv8A1nhX/sYbT/2amtxS2Ze8F3K63aXnics5bVJmEStkeVBEzJGmNxAPDOcY+aQ11Fcp4BgTSdEm8OPJuu9IuJIZc7QXV2MkcgAY4DK469ww7V1deRXv7WXN3PCrfxGFFFFYmQUUUUAFQ3biOznduFWNifpipqq6lYR6np1xYyySpFOhRzE21tp6gHtkcfjQ1fQqNrq55VDFY6dBothLpnh1ru5htMQ3Okq00qyAKzh/N+Yhgc5Vf61p6LLYDUr+K0h0dJzpdwLhLKxNrLA6MoMciCRwTknn24JFdhdeFrG6uEJd47QSrO9lHFEsUsi9Gf5NxPT+LsKW38M20E8shurmRWtmtYoisSJbxMclUVEX0HXPQV0SqqSfnf8AL+v60Oj2ya18vz/r/gnIwz3Fvp2inwxK0uvtYQfaLT79u0fljDT8gRkD7pBDHpgjp03g2aym0uZoJ7iS+MxOofahtmE+ADuXovAAAHGAMZxRp/hN9Kthb2OvalBEAOEhtPmwAoJPk5JwAMnnir2n6K9hfS3b6ndXUkyhZPOit13Y6EmOJWOOcZOOaU5xd7f1/wAAzlJONr/1/Wxq0UUVgYhRRRQAVx/i64udM8VeENUiObc3r6fNEJCpfzwApPGCFKbsHuF+o7CuI8dxf2rrvhHQTBDIlzqJu5DMcqUgXLoVwc7lY+3GO+R0Ya/to2NqH8Rf10H6H/yUzxt/24/+iTUnjD/kI+Dv+xlsv5tUeh/8lM8bf9uP/ok1J4w/5CPg7/sZbL+bV60viZ7VP4Ee0UUUVJYUUUUAcf8AFLW9R8OfDjVtW0m4+z30Hk+XLsV9u6ZFPDAg8MRyK4/yPiH/ANFE/wDKLb10Hxt/5JDrv/bv/wClEdFAHP8AkfEP/oon/lFt6PI+If8A0UT/AMotvXQUUAc/5HxD/wCiif8AlFt6PI+If/RRP/KLb10FFAHP+R8Q/wDoon/lFt6ueCdZ8VJ8S5tA1zxF/a1r/Y7Xq/6FFBtfzlQfcGTxnv36cVqVj+G/+S6yf9i0f/SkUAY/wt/5JxpP/bb/ANHPTvHf+s8K/wDYw2n/ALNTfhb/AMk40n/tt/6OeneO/wDWeFf+xhtP/Zqa3FLZmj4stNVsZovEegQvc3tuoju7LzDtu7YFjtC4P7xSxKkc8sPmyFOloOvaf4k0mLUtNm8yF+GU8NG3dWHYj/AjIINbNcXrXgWY6nc614Y1abRtVn+aVFAa3uGCsMumMbiW+9g45O0sc1OKwiq+9Hc8qUIzWujOuorkNnxL/wCpS/8AJmjZ8S/+pS/8ma8/6lW7GP1eXdHX0VyGz4l/9Sl/5M0bPiX/ANSl/wCTNH1Kt2D6vLujr6K5DZ8S/wDqUv8AyZo2fEv/AKlL/wAmaPqVbsH1eXdHX0VyGz4l/wDUpf8AkzRs+Jf/AFKX/kzR9Srdg+ry7o6+iuQ2fEv/AKlL/wAmaNnxL/6lL/yZo+pVuwfV5d0dfRXIbPiX/wBSl/5M0bPiX/1KX/kzR9Srdg+ry7o6+iuQ2fEv/qUv/Jmj7P8AEmb91JceGLdH+VpoUnd4werKrfKWHUA8E9af1Kt2D6vLujZ1/wASaX4Z097vU7pIgFLRxAjzJiMcIufmOSPYZySBzVDwnaarfTS+I9fhe2vbhTHaWXmHbaWxKnaVwP3jFQWJ54UfLgqG6J4DtbHUTq2sXs2uaufu3N2o2w4cuPKTkJgkdCcY42gkV1tehhsIqXvS3NowjBaas4XQ/wDkpnjb/tx/9EmpPGH/ACEfB3/Yy2X82qPQ/wDkpnjb/tx/9EmpPGH/ACEfB3/Yy2X82qpfEz06fwI9ooooqSwooooA8/8Ajb/ySHXf+3f/ANKI6KPjb/ySHXf+3f8A9KI6KAOJ1i51iObU7bSr3XLi6tk3BsWCwIzLuUEuobaO/wDOn2V1qD3enw3V/wCIIheH91K66e0UhCl/+WYY4IB/xqfUpGtL/W4LeSK41HUoo1trWNsuvyFN8gx8qAnO48cY6kAx20pF/wCH9PvIv7PubBiAkzZS4AiZB5TgYY8g7TtbGSRREJf5le78V6tDqeswxWMsa24tlj+0CJkhZ2IJYJJuO4EEAHtzirUOvX8mprYnU4TPlS0f/CO3inaTjOTJgDIPzHjiuZ1TSI7bVNe1C9mxeQmzmkmVtq4eQ5Q56oAF6/3AfWrFtcWi+Kf7U/tbRCrokfljxTMxBDls8r8w+b7h+Xj3ojuglsz0ysfw3/yXWT/sWj/6Uitisfw3/wAl1k/7Fo/+lIoAx/hb/wAk40n/ALbf+jnp3jv/AFnhX/sYbT/2am/C3/knGk/9tv8A0c9O8d/6zwr/ANjDaf8As1NbilszvK5LW/HlrY6iNJ0eym1zVz962tGG2HDhD5r8hMEnqDjHO0EGneKDfaxqdp4c02+uLAFRd393blldIQ21Y1bGAzsG5yCBG3BBwb+geG9L8M6elpplqkQChZJSB5kxGeXbHzHJPsM4AA4qcTi1SfLHc8qU4wWurMKK0+IeqwRyXmtaXojBQwjsbP7QzEjkP5hIBXH8JIOTzwKf/wAI942/6H//AMo8P+NdhRXnPGVm/iMfrE/L7kcf/wAI942/6H//AMo8P+NH/CPeNv8Aof8A/wAo8P8AjXYUUvrdb+YX1ip/SX+Rx/8Awj3jb/of/wDyjw/40f8ACPeNv+h//wDKPD/jXYUUfW638wfWKn9Jf5HH/wDCPeNv+h//APKPD/jR/wAI942/6H//AMo8P+NdhRR9brfzB9Yqf0l/kcf/AMI942/6H/8A8o8P+NH/AAj3jb/of/8Ayjw/412FFH1ut/MH1ip/SX+Rx/8Awj3jb/of/wDyjw/40f8ACPeNv+h//wDKPD/jXYUUfW638wfWKn9Jf5HH/wDCPeNv+h//APKPD/jQLD4g6f8A8euv6Tq2/wC9/aNmYPKx02+Uec55z0wMdTXYUU1jKy+0P6xPy+5HI2PxBSLUxpvifS5vD10+4xSXEqvbyAKpwJuF3fN06DGM5OK7Ss3VNJ0/WrJrPUrOG6t2z8ki5wcEZB6qcE4IwRmsDwyt34VvI/DN/LcXdlKzf2TeuN2EC7jbvgfKyhWIJ4ZcgY27a9DDYxVHyy3NoVIzXZlbQ/8Akpnjb/tx/wDRJqTxh/yEfB3/AGMtl/Nqj0P/AJKZ42/7cf8A0Sak8Yf8hHwd/wBjLZfzatJfEz06fwI9ooooqSwooooA8/8Ajb/ySHXf+3f/ANKI6K0Pilomo+I/hxq2k6Tb/aL6fyfLi3qm7bMjHliAOFJ5Ncf5/wAQ/wDonf8A5WregDZtLG0sI2js7WC3R2LssMYQFj1JA7+9Pnt4LqLy7iGOaPIbbIoYZByDg9wQDWH5/wAQ/wDonf8A5Wrejz/iH/0Tv/ytW9AG4sEKTyTrFGs0gAeQKAzAdAT3xk/nUlc/5/xD/wCid/8Alat6PP8AiH/0Tv8A8rVvQB0FY/hv/kusn/YtH/0pFV/P+If/AETv/wArVvVzwTo3ip/iXNr+ueHf7Jtf7HayX/TYp9z+crj7hyOM9u3XmgDD+Fv/ACTjSf8Att/6OeneO/8AWeFf+xhtP/Zqb8Lf+ScaT/22/wDRz07x3/rPCv8A2MNp/wCzU1uKWzE8AN/aGqeLNakkmaa41VrbEkfl7YoQBGNpAIYB8HPPAzznPb1x/hm2k0fxv4p0t5sW9zJHqdrG7IWbzdwlYY5wHULz0wPXJ7CvKxSarSueHX/iMKKKK5zEKKKKACmTMVhkYcEKSPyp9UdZnlttGvJYIJJ5hE3lxRDLOxGAB+JHPah3a0KirySPNI77UNY0/TzqHibTxcERXSxvq9vBIkmAwO0WhKnnpk8HGSK3dF1nU5by/Da7ZX8MdhJKgt76C5KSAjBISGMgY9QR71UvtJ1aC40rTYGkeOCS0X7MsU7xMsX/AC1M+0JEcDBUA9AeSRixp1vq0up3IuWuLlINMuIFZ7SVCjM6lY/MkAM5AXG8KM4yck11T5Wnbz/L+v60Ot8rS0XT8wtNUu4rXTpta8R6pYw3ttHLHeFLQW7OUDMhJh/dnrjdwQOCTxW/4Ze8vEkvpb7UprRyVtlvEgXzU4xLtSNWXPOAT0wcc8ctYBNR0qxsvEMWpjT7a3ijXT4NKu8SMqKCZmEfzYbOFXgYBy3bovCt1PHLcadLcXtzbR4azlu7G4ikCd0d3QKxHGDnJHXpSqJa2X9f5mU17u2vp/Xz/A6eiiiuY5wooooAK474gfe8K/8AYxWn/s1djXEePLuGbWPCelRP5l+dZt7r7OgLMIU3bnIHQD1PofQ43w6/exNqH8RD9D/5KZ42/wC3H/0Sak8Yf8hHwd/2Mtl/Nqj0P/kpnjb/ALcf/RJqTxh/yEfB3/Yy2X82r15fEz2qfwI9ooooqSwooooAKKKKACiiigAooooAKKKKAPD/AIW/8k40n/tt/wCjnp3jv/WeFf8AsYbT/wBmpvwt/wCScaT/ANtv/Rz0nxBmit08MzzyJFDHr9q7yOwVVUbySSegAprcUtmb/i3w7NrtjBLp939h1exk8+yugoO1sYKNwTsYcEewyCBg5egeOI7u7XR9ftX0bXFUBobjCRztuKZhYn5gSOB3zwWwTW1/wmHhn/oYtI/8DY//AIqszW77wF4ithb6tqeh3SL9wtexhk5BO1gwZc4GcEZxzVYjDwrLzPNcFJWkjp6K80h0TwnbwRww/E7U4oo1CIia9EqqoGAAAOABT/7K8Mf9FS1b/wAKCL/CuD+z590ZfVvP8D0iivN/7K8Mf9FS1b/woIv8KP7K8Mf9FS1b/wAKCL/Cj+z590L6t5/gekUV5v8A2V4Y/wCipat/4UEX+FH9leGP+ipat/4UEX+FH9nz7oPq3n+B6RRXm/8AZXhj/oqWrf8AhQRf4Uf2V4Y/6Klq3/hQRf4Uf2fPug+ref4HpFFeb/2V4Y/6Klq3/hQRf4Uf2V4Y/wCipat/4UEX+FH9nz7oPq3n+B6RRXm/9leGP+ipat/4UEX+FH9leGP+ipat/wCFBF/hR/Z8+6D6t5/gekUV5v8A2V4Y/wCipat/4UEX+FH9leGP+ipat/4UEX+FH9nz7oPq3n+B0fiLxrp+gzLYwxTanq8m4R6fZDzJchN2XA5UYxzgnByAQDU/hfw81i02t6miP4g1FVa8kCgCIYGIUwThVwBnJLFcknjFDQn+HfhredI1DQ7Z3zuk+3I8hBxkb2Ytt+UHGcZ5rZ/4TDwz/wBDFpH/AIGx/wDxVd2Hw0KOt7s1jTUFaKOf0P8A5KZ42/7cf/RJqTxh/wAhHwd/2Mtl/NqqeGLy1v8A4heM7mzuYbm3f7DslhcOrYiIOCODyCKt+MP+Qj4O/wCxlsv5tSluz0ofCj2iiiikUFFFFABXk2k/FjxTrmmQ6jp3w98+0m3eXJ/bUS5wxU8MgPUHtXrNeNfCf/kmekf9tv8A0c9XCKk7MyqzcI3Rs/8ACw/G3/RNv/K5D/8AE0f8LD8bf9E2/wDK5D/8TUfi/WH0Tw7c3MLTrcbcRPFbtKFOR1wpAHu3FUtW8TXsV3pP2DSdTa3uLvYzNHFEZl8tzsCysrqcqDlgv3evIzp7ON7GKrTavZf8MaP/AAsPxt/0Tb/yuQ//ABNH/Cw/G3/RNv8AyuQ//E1m6p4ugPh+G4juBpU13cPbLJeNGDAUYiRjyykgK2Bk5OPWsS88f3C3RKappNlbO0BWK7h/0hIpDtLMBMAGHDYK/dYE9xS5I3GqtTsdb/wsPxt/0Tb/AMrkP/xNaHhT4gaprni+Xw7q/hj+x7hbA3yt9vW43KJFQDCqAOSe/bpzWV4R1WLV9KkuItUfUF85gHkkiZ1UHC5EaKFyBuwRkZ59Amh/8l4f/sWT/wClQpTppK6Kp1ZSnyswfhb/AMk40n/tt/6Oer/i/UtJ03TbVtX0p9Tinukhht0t0nYykNtwrHrwRxzz71Q+Fv8AyTjSf+23/o56d47/ANZ4V/7GG0/9mrJG7dkY/wBv8Pf9Ev1f/wAEEf8AjR9v8Pf9Ev1f/wAEEf8AjXqlcfdfESwbUJdP0PT77XbmNV/eaeivbq7Z2q8ucKOOW5A57ggbShGKu2cqxEn0Ob+3+Hv+iX6v/wCCCP8Axo+3+Hv+iX6v/wCCCP8AxrYhtfiFrMj3Vxq9p4diPEVnBbJdsBubl2bjdjbypwfRTU3/AAj3jb/of/8Ayjw/41yvEUE7cwni4rRtfj/kYP2/w9/0S/V//BBH/jR9v8Pf9Ev1f/wQR/41vf8ACPeNv+h//wDKPD/jR/wj3jb/AKH/AP8AKPD/AI0vrNDv+AfW491+P+Rg/b/D3/RL9X/8EEf+NH2/w9/0S/V//BBH/jW9/wAI942/6H//AMo8P+NH/CPeNv8Aof8A/wAo8P8AjR9Zod/wD63Huvx/yMH7f4e/6Jfq/wD4II/8aPt/h7/ol+r/APggj/xre/4R7xt/0P8A/wCUeH/Gj/hHvG3/AEP/AP5R4f8AGj6zQ7/gH1uPdfj/AJGD9v8AD3/RL9X/APBBH/jR9v8AD3/RL9X/APBBH/jW9/wj3jb/AKH/AP8AKPD/AI0f8I942/6H/wD8o8P+NH1mh3/APrce6/H/ACMH7f4e/wCiX6v/AOCCP/Gj7f4e/wCiX6v/AOCCP/Gt7/hHvG3/AEP/AP5R4f8AGj/hHvG3/Q//APlHh/xo+s0O/wCAfW491+P+Rg/b/D3/AES/V/8AwQR/40fb/D3/AES/V/8AwQR/41vf8I942/6H/wD8o8P+NVp5PiB4adrrz7fxTZbcyQiFbW4TAYnYFyCPu/3mPQAdaqNeg3bmBYqL0TX4mV9v8Pf9Ev1f/wAEEf8AjR9v8Pf9Ev1f/wAEEf8AjXW6V470jUb1bC5S70m/fBitdUh8h5QSACuTg5JwADkkHjiunrpVOLV0xvESW6OI8Ianot7c6lbaXoE2jXFt5X2mKazS3ZtwYpkKcngE8+vvS+MP+Qj4O/7GWy/m1R6H/wAlM8bf9uP/AKJNSeMP+Qj4O/7GWy/m1ZNWdjqi7pM9oooopDCiiigArxr4T/8AJM9I/wC23/o569lrxr4T/wDJM9I/7bf+jnrWl8Rz4n4DY8VW93f6JNp9natNLdDZ5m9VSLkHLknOP90MfauUmTXfEV3b6nYX92bexlaYiAwvG7nKFLZ3hXfhC3zMCpOAD1ZfQ3mijeNHkRXkO2NWYAscE4HqcAn8Kjur23shEbiTYJpVhT5ScuxwBxWrWpzKVla39dTh5rCOXw4LPSdWvr9WvTJNbT2SyMXJLtFIq+T5YLHcd7L0A6HBwtauSmsDWLvUXsoUiNrNIZbgnzxhnWOKK5BCjCqwRmAYc9CR6pe39np1ubi+u4LWAEAyTyBFBPQZPFYdtrvgqznkntdV8PwTSAB5IriFWYDoCQeaTir/ANf1/X31GT7f1/X9dpPB0Ey+H4Lq5lMk90vmEi7lnQLztwZJJMcEZ2sRn1o0P/kvD/8AYsn/ANKhV7SG0Sdbm70VtPkE0mZ5rIod79fmZerc5555qjof/JeH/wCxZP8A6VCir8JVD+IYPwt/5JxpP/bb/wBHPTvHf+s8K/8AYw2n/s1N+Fv/ACTjSf8Att/6OeneO/8AWeFf+xhtP/Zq51udktmSa5rbeJtZm8H6OzmHayaxfxqGW3jIIMSk8eY3K5525PBIO3ptL0nT9Fsls9Ns4bW3XHyRrjJwBknqxwBknJOK5b4XiW48KTavO6GbV7+4vnREKrGxbaVGScjKZ/HHbJ7WvMxdaVSbXRHi15+9yLZBRRRXKc4UUUUAFI7BEZj0UZOKWq99Mlvp9zNIQEjiZ2JOAAATQ9ioq7SOKn+JtrNb282nwRfM6M63V/ZoTGfvYHn5VsdiO2DjqNjS/G+natcXMMMUoa3t2uWKzwSgqDgjMUj4PPQ4rkYtYv8ASrHSLOHVryNESzgkKJC9vFkBZI3fyj5bjrgueDn0FX9N1Sa+vrgSXN5OW0m4LNdW8WMqygGKVIkEkZySCCQeCQDXTOmknZd/yOp0otbf1c6Oy8Uy6hAk1p4f1OVGRXGJbXIDDcuR52RkEHmr2m6vJqFzNC2l3dr5PDvLLAwVsA7SI5GIOCDyOn4VxFtHLq+maMnhnfBrVrZwxz6mvyxQr5Sny5MgiUnIwuDtJzkdD03g6e1Wwm09bOWz1C0fF7FM293kbnzC/wDy0Dcnd/KpnBK9l/XcxnFKN7f8A6SiiisDEKKKKAMnX/Del+JtPe01O1SUFSscoA8yEnHKNj5TkD2OMEEcVQ8J3eq2M0vhzX5nub23UyWl75Z23dsCo3Fsn94pYBgeeVPzZLHpa4jx3L/ZWu+EdeM8MaW2om0kEwwoSdcO5bIxtVT7c57YPbg60oVFHozooTbfJ0H6H/yUzxt/24/+iTUnjD/kI+Dv+xlsv5tUeh/8lM8bf9uP/ok1J4w/5CPg7/sZbL+bV6MviZ7FP4Ee0UUUVJYUUUUAFeNfCf8A5JnpH/bb/wBHPXstfOfw9+IXhbQ/A2nadqOqeRdw+b5kf2eVsZldhyqkdCO9aUmk9TCum46HoXieKwbRzNqHnBYJY5IpIB+9STcApT3JIHvnFcHqt3pEt1MNS1x47qPXgphfVpI/LhDjkIHAUAfxADHrWpffEjwRfzWTPr5WK2nEzRizmPmEA7cnZxgkN9QKq6r8QPBN1HaraavBD5d/Fdy/6JMu/a2WPEfLH3/OtLrmTv1/Va/h9xglJK1n/Seg8XMNxp7C1vnvLSPxJbJBK101x8n7s4DsxJGSe9Sar4g1HQ7650m31Fbmyyom1KVGd9KDHGJCBtfP8OSCP4sjk1dd8ceCNVsRDaa/FZzC6jujJ/Z87B3Qj7wUKSTgDOQeKp2XjnQNO01dOtPE+hx2gUqYh4fuyGB67sy/MT3JyT3pX0tf/g6JfoVyve39XZ6jYxJBYW8UdxJcIkahZpH3tIMcMW7k+vesfQ/+S8P/ANiyf/SoVzGgfEPwdoulpYPr1s0URPlLb6dcxqinnGHLnqT39sVp+BvEOl+JfjXNeaRdfabdPDrRM/lsmGFypIwwB6MKdWSa0CjCSnqir8Lf+ScaT/22/wDRz07x3/rPCv8A2MNp/wCzU34W/wDJONJ/7bf+jnp3jv8A1nhX/sYbT/2asFudctmN+GEn2bRNR0Fp4ZX0bUZ7RSo2sybiQ7Lk4yxfHbjHOCa7iuX8S+H3t9SXxdosP/E3tI28+3XcBfwheY2C8l8AbTg8hQQQBi/4c8U6T4qsmudKufM8vaJYnXa8RIzhh+YyMgkHBOK87F0JU5uXRni14O/OtmbNFFFcZzhRRRQAVBe2VvqNnLaXcfmW8o2umSAw9DjtU9FMadtUULnRrK7vobydZ3khZWjT7TIIww6Hyw2wkZ6kZpkWg6fFdXFzsmkmuI2idprmSTCE5KruY7RnsuO3pWlRRd7D5pdzDi8J6ZBCkUMmqRxIoVETVroBQOgAEnAq5ZaNa6fOZoZb5mK7cT388y4/3XcjPvitCim5Se7Byk92FFFFSSFFFFABXH+Lre51PxV4Q0uIYtxevqE0ojLFPIAKg84AYvtye5X6G94n8Zab4YVIJd9zqc6/6LYQAtJMxO0DgHaCT1PXBwCRil8JaJqFsJ9Z8QGGXXb375QZFtDwVgTkjAOScdSeS2Ax7sFQlKam9kdNGDT52Zmh/wDJTPG3/bj/AOiTUnjD/kI+Dv8AsZbL+bVHof8AyUzxt/24/wDok1J4w/5CPg7/ALGWy/m1ehL4mevT+BHtFFFFSWFFFFABRRRQAUUUUAFFFFABRRRQB4f8Lf8AknGk/wDbb/0c9O8d/wCs8K/9jDaf+zU34W/8k40n/tt/6OeneO/9Z4V/7GG0/wDZqa3FLZneVyviPwHpmvXh1OGa40zWVXCahZyFH+6VG4D7w556MQANwFdVXET/ABCN/qklh4T0h/EDW6k3UyXAgiiO7AAdhhicE8cEcgnnHTNxS9/Y82N90O/4Rjxr/wBD/wD+UaH/ABo/4Rjxr/0P/wD5Rof8arjwx4q1u5a48Q+KJrJFyIrTQXaFV4X5i7Dc3Q8EHGeCOlTf8K/P/Q4eLf8AwZ//AGNec62ETty/gS6lNdvuX+Q7/hGPGv8A0P8A/wCUaH/Gj/hGPGv/AEP/AP5Rof8AGm/8K/P/AEOHi3/wZ/8A2NH/AAr8/wDQ4eLf/Bn/APY0vb4X+X8Be0peX3Id/wAIx41/6H//AMo0P+NH/CMeNf8Aof8A/wAo0P8AjTf+Ffn/AKHDxb/4M/8A7Gj/AIV+f+hw8W/+DP8A+xo9vhf5fwD2lLy+5Dv+EY8a/wDQ/wD/AJRof8aP+EY8a/8AQ/8A/lGh/wAab/wr8/8AQ4eLf/Bn/wDY0f8ACvz/ANDh4t/8Gf8A9jR7fC/y/gHtKXl9yHf8Ix41/wCh/wD/ACjQ/wCNH/CMeNf+h/8A/KND/jTf+Ffn/ocPFv8A4M//ALGj/hX5/wChw8W/+DP/AOxo9vhf5fwD2lLy+5Dv+EY8a/8AQ/8A/lGh/wAaP+EY8a/9D/8A+UaH/Gm/8K/P/Q4eLf8AwZ//AGNH/Cvz/wBDh4t/8Gf/ANjR7fC/y/gHtKXl9yHf8Ix41/6H/wD8o0P+NH/CKeLpf3dz49ma3f5ZVh0yKJyp6hXByrY6MOh5pv8Awr8/9Dh4t/8ABn/9jUJ8MeKtEuVuPD3iia9RsCW0152mVuG+YOo3L1HAAzjknpTjWwjfw/gNVKb7fcbvhzwZpHhiSa4s0mmvrjPn3t1J5k0uWLHJ6Dk84AzgZyRmugriLbx1f6Y9nD4x0J9HFyywpepOktuZMHO8g/ugTjGSe+ThSa7evRhKMleGxUr7s4XQ/wDkpnjb/tx/9EmpPGH/ACEfB3/Yy2X82qPQ/wDkpnjb/tx/9EmpPGH/ACEfB3/Yy2X82rnl8TPQp/Aj2iiiipLCiiigArz/AP4Xb8PP+hh/8krj/wCN16BXivwq/wCSa6T/ANtv/Rz1lWq+zjexjXreyjzWudV/wu34ef8AQw/+SVx/8bo/4Xb8PP8AoYf/ACSuP/jdWKK5vrv938Tk/tD+7+P/AACv/wALt+Hn/Qw/+SVx/wDG6P8Ahdvw8/6GH/ySuP8A43Viij67/d/EP7Q/u/j/AMAr/wDC7fh5/wBDD/5JXH/xutjw38RPCvi7UZLDQ9U+13UcRmZPs8seEBAJy6gdWH51n1haB/yXd/8AsWT/AOlIrWlifaS5bGtHF+1ny2sYnwt/5JxpP/bb/wBHPTvHf+s8K/8AYw2n/s1N+Fv/ACTjSf8Att/6OeneO/8AWeFf+xhtP/Zq6ludctmW/FAufFF+3hSwuntreNUl1a5ikXcsTbtsAHJ3PjJJwAoGdwbB6LT9PtNJ0+CwsIEgtYF2xxp0A/qSeSTySSTXI+AG/tDVPFmtSSTNNcaq1tiSPy9sUIAjG0gEMA+DnngZ5znt683GVXOo10R4teT5uTogooorkOcKKKKACiimTkiCQg4IU4I+lDdkNK7EluIYDGJpo4zI4RN7AbmPQDPU8HipK8jtrYXej6a2qaxds06QOvn2epyKZWAZcOs4QtnGCuOegHStvSGuLbUb8f2teSg6bK6QzwX0JDAj5wLh3BxnGVIPPStpUlFPX8Dd0V0f4eZ6DRXm8Lw6Vo2nanrj6s2mXFpE730Oq3bGGQoCfMQSdGJ4KjgkAgda6fwxYyrFJqE8V5B5xP2eG4v552WI4xvV3ZQ5xnjoDj1ypU+W5nKCSudDRRRWRmFFFFAFbUNPtNW0+ewv4EntZ12yRv0I/oQeQRyCARXO+Fxc+F79fCl/dPc28ivLpNzLIu5ol27oCODuTOQRkFScbQuB1dcj47mlgk8LPDI8bHxBaoSjEEqwdWHHYgkH1BNdeEqyhUSWzN6EnzcvRkOh/wDJTPG3/bj/AOiTUnjD/kI+Dv8AsZbL+bVHof8AyUzxt/24/wDok1J4w/5CPg7/ALGWy/m1enL4mezT+BHtFFFFSWFFFFABXivwq/5JrpP/AG2/9HPXtVeK/Cr/AJJrpP8A22/9HPXLjPgXqcWP/hr1/wAzqNR1G20q0N1du6xBlT5I2kYsxCqAqgkkkgcCsc+LYRqKwf2Zq5tWiLfaRplz8rg/dK+XnkcgjPQ5xxl3jGBbvR7e1eNJFmv7VCjpuVh5ykgjuMA5FcIJtN+3XVsNL8Mv9khkkuimhKXtikgVt6Cc5ABLfKc4HAJ4rjpwUld/1ocNOnGUbs9D/wCEo0kae16ZZxCtwLYqbSUSeacYXy9u/PI7Un/CT2H/AD76t/4KLr/43XG2clq+iRpZ/wBnm3j8RW4WTT4zHDJnyzuCl2x1xgHHHSlvry6ge7j8PXN5N4ZBH26aBPMNsM/OLVyckYzuADBP4cHgP2a/r0X+Y/ZRvb+t/wAz0Gxv4dQhaWFLhFVtpFxbSQtn/ddQSOeuMVl6B/yXd/8AsWT/AOlIrR0lrBtItP7LdGsBEogKNuGwDAwTWdoH/Jd3/wCxZP8A6Uirw6tVsXg/4xifC3/knGk/9tv/AEc9O8d/6zwr/wBjDaf+zU34W/8AJONJ/wC23/o56d47/wBZ4V/7GG0/9mr01uetLZlnw/ZS6D408Qac8zta6iw1S0VkJ+ZiVn+baBkMY/lycKy+prraxfFvh2bXbGCXT7v7Dq9jJ59ldBQdrYwUbgnYw4I9hkEDBwrL4gmwuYdO8YaZNod8+FSZvntpjhM7ZBkDlueSFHVs1x4zDSU3OK0Z49WlKb5onb0UyGaK4gjmhkSWKRQ6OjBlZSMggjqCKfXnnKFFFFIAqlrH2s6PdrYwia7aJliQsFBYjAJJ7DOfwq7RQOLs7nn994T1Aahp8Nqsxjhe2BkWOJbYxxdPNUuZHcYxkYGCBxyam0vw/qdvf3O6O8+zx6fPbRC4aEJudgQsKozMsY28B2JAwO1d1RWjqyas/wCrmvtpWt/Wh5/pemX6QWX9taBql+bOFI7e23WgghIjCk7TN87H5vmboDwB32fC1rd6ZNc2YsdSt9NY77aO7aBlt/VFZJWYqewI4x1rp6Kcqrle5LqNq1gooorIzCiiigArmNfgOt+ItH0eKNM2U0eq3E7q58lUfCKuMKWc7xyeFVjgnFUtU8fxzXn9k+ErZNd1ZlZiIpAIIVC5DtJ90jJUYB65GQcA7XhLw7NoVjPLqF39u1e+k8+9uioG5sYCLwDsUcAe5wADgehg8NJyU5LRHVSpOPvy+Ri6H/yUzxt/24/+iTUnjD/kI+Dv+xlsv5tUeh/8lM8bf9uP/ok1J4w/5CPg7/sZbL+bV3S+JnrU/gR7RRRRUlhRRRQAV4r8Kv8Akmuk/wDbb/0c9e1V4r8Kv+Sa6T/22/8ARz1y4z4F6nFj/wCGvX/M6W+0q21Ke1kutzpbOzrCcFHJUrlhjnAY4+tZn/CI2bTmaW4llZIhFah4YNtoobcPKUR4BBAwWBxiugorz1JrY8tTklY5+Xwjaz6ZJZy3167y3YvHuW8syNIMYyNmzGFAxtxxUkPh+7t4I4YPEepxRRqFREhtFVQOAABBwK3KKfO9h88ihpOmDSbQ2y3Us6biy744k255IAjRR1yemcmqOgf8l3f/ALFk/wDpSK3awtA/5Lu//Ysn/wBKRW+Gd6tzpwbvWuYnwt/5JxpP/bb/ANHPUfxHu4LC18O3ly/l29vrttLK+CdqqHJOByeB2qT4W/8AJONJ/wC23/o567CvSPXepzX/AAtjwT/0Gv8AyVm/+IqC7+Jnw/v7Z7a81KG5t3xvimsZXVsHIyCmDyAa6yitfasw+rx7s8m/4sn/AJ+20f8AFk/8/ba9ZoqefyRXsv7z+88m/wCLJ/5+20f8WT/z9tr1mijn8kHsv7z+88m/4sn/AJ+20f8AFk/8/ba9Zoo5/JB7L+8/vPJv+LJ/5+20f8WT/wA/ba9Zoo5/JB7L+8/vPJv+LJ/5+20f8WT/AM/ba9Zoo5/JB7L+8/vPJv8Aiyf+fttH/Fk/8/ba9Zoo5/JB7L+8/vPJv+LJ/wCfttH/ABZP/P22vWaKOfyQey/vP7zkLH4jfDvS4Gg0+9trSFm3mO3sJY1LYAzgRjnAH5Va/wCFseCf+g1/5Kzf/EV0tFV7Vk/V492cN4N1ax1zxz4w1HTp/PtJvsXlybGXOImU8MAeoPatHxh/yEfB3/Yy2X82rqK5fxh/yEfB3/Yy2X82rNu7ubJWVj2iiiikMKKKKACvP/8AhSXw8/6F7/yduP8A45XoFFAHn/8AwpL4ef8AQvf+Ttx/8co/4Ul8PP8AoXv/ACduP/jlegUUAef/APCkvh5/0L3/AJO3H/xyj/hSXw8/6F7/AMnbj/45XoFFAHn/APwpL4ef9C9/5O3H/wAcrY8N/Dvwr4R1GS/0PS/sl1JEYWf7RLJlCQSMOxHVR+VdRRQB4roHgH4leHdFt9KtLjwm8EG7a0z3JY7mLHJCgdSe1aX/AAjfxT/56eDf++rr/CiigA/4Rv4p/wDPTwb/AN9XX+FH/CN/FP8A56eDf++rr/CiigA/4Rv4p/8APTwb/wB9XX+FH/CN/FP/AJ6eDf8Avq6/woooAP8AhG/in/z08G/99XX+FH/CN/FP/np4N/76uv8ACiigA/4Rv4p/89PBv/fV1/hR/wAI38U/+eng3/vq6/woooAP+Eb+Kf8Az08G/wDfV1/hR/wjfxT/AOeng3/vq6/woooAP+Eb+Kf/AD08G/8AfV1/hR/wjfxT/wCeng3/AL6uv8KKKAD/AIRv4p/89PBv/fV1/hR/wjfxT/56eDf++rr/AAoooAP+Eb+Kf/PTwb/31df4Uf8ACN/FP/np4N/76uv8KKKAD/hG/in/AM9PBv8A31df4Uf8I38U/wDnp4N/76uv8KKKAD/hG/in/wA9PBv/AH1df4VA/gX4gapq+hy6vP4ZWz0/U4L5/sjziRhG2SBuUg8E+nOOaKKAPX6KKKACiiigAooooAKKKKACiiigAooooA//2Q==;fillColor=#F2CC8F;strokeColor=#E07A5F;fontColor=#393C56;" parent="1" vertex="1">
          <mxGeometry x="215" y="787.25" width="92.6" height="150" as="geometry" />
        </mxCell>
        <mxCell id="e_4vZCf02zuZLS49hp3R-43" value="" style="shape=image;imageAspect=0;aspect=fixed;verticalLabelPosition=bottom;verticalAlign=top;fontSize=12;align=left;image=data:image/jpeg,/9j/4AAQSkZJRgABAQEAeAB4AAD/2wBDAAgGBgcGBQgHBwcJCQgKDBQNDAsLDBkSEw8UHRofHh0aHBwgJC4nICIsIxwcKDcpLDAxNDQ0Hyc5PTgyPC4zNDL/2wBDAQkJCQwLDBgNDRgyIRwhMjIyMjIyMjIyMjIyMjIyMjIyMjIyMjIyMjIyMjIyMjIyMjIyMjIyMjIyMjIyMjIyMjL/wAARCAGrAdUDASIAAhEBAxEB/8QAHwAAAQUBAQEBAQEAAAAAAAAAAAECAwQFBgcICQoL/8QAtRAAAgEDAwIEAwUFBAQAAAF9AQIDAAQRBRIhMUEGE1FhByJxFDKBkaEII0KxwRVS0fAkM2JyggkKFhcYGRolJicoKSo0NTY3ODk6Q0RFRkdISUpTVFVWV1hZWmNkZWZnaGlqc3R1dnd4eXqDhIWGh4iJipKTlJWWl5iZmqKjpKWmp6ipqrKztLW2t7i5usLDxMXGx8jJytLT1NXW19jZ2uHi4+Tl5ufo6erx8vP09fb3+Pn6/8QAHwEAAwEBAQEBAQEBAQAAAAAAAAECAwQFBgcICQoL/8QAtREAAgECBAQDBAcFBAQAAQJ3AAECAxEEBSExBhJBUQdhcRMiMoEIFEKRobHBCSMzUvAVYnLRChYkNOEl8RcYGRomJygpKjU2Nzg5OkNERUZHSElKU1RVVldYWVpjZGVmZ2hpanN0dXZ3eHl6goOEhYaHiImKkpOUlZaXmJmaoqOkpaanqKmqsrO0tba3uLm6wsPExcbHyMnK0tPU1dbX2Nna4uPk5ebn6Onq8vP09fb3+Pn6/9oADAMBAAIRAxEAPwD3+iiigAoorhviFqMl6bbwfZXAim1SKR7+RQjPDZAbXwGPDOzKina3G89VpSkoq7FKSim2YGreONb8Xa7Jpnga/jsdLsXIvNcMCzrNJjiKFW4YDIJbvwQQMb85fhzp97BEPEepat4gljUBG1C+kKxMR8xjAYbQxAyCT90c11Gn6faaTp8FhYQJBawLtjjToB/Uk8knkkkmrNeZUxE5PR2R49XF1Jv3XZHG/wDCqvBX/QF/8mpv/i6P+FVeCv8AoC/+TU3/AMXXZUVn7Wf8zMvbVP5n95xv/CqvBX/QF/8AJqb/AOLo/wCFVeCv+gL/AOTU3/xddlRR7Wf8zD21T+Z/ecb/AMKq8Ff9AX/yam/+Lo/4VV4K/wCgL/5NTf8AxddlRR7Wf8zD21T+Z/ecb/wqrwV/0Bf/ACam/wDi6P8AhVXgr/oC/wDk1N/8XXZUUe1n/Mw9tU/mf3nG/wDCqvBX/QF/8mpv/i6nh8G3Oj7W8M+J9Z0cRf8AHva+f9otIs/e/cvkNnLHk8Mc9q6uimq1RdRqvVTvzMy/CfjrUtO19fCnjWaNr24cnTNWWMRxXwJ/1bAcJIMgY78DrtL+mV5pr2g6f4k0mXTdSh8yF+VYcNG3ZlPYj/EHIJFdH4H8RXGtaXLZapsXXNLZba/VZEbzG2BlmULjCSA7hkDB3Lj5a76Fb2is9z08NiPaqz3R1FFFFdB1BRRRQAUUUUAFFFFABRRRQAUUUUAFFFFABRRRQAUUUUAFFFFABRRRQAUUUUAFFFFABRRRQAUUUUAFFFFABRRRQAUUUUAFFFFABRRRQAUUUUAFFFFABXjmnzyeIfin4o11/OFtp5Gi2gcIAPLO6YYHJ/eDcCT0f2wvsdeJfCeGKL4caa8caI0rTPIVUAu3msuT6nAA+gHpXPipWp+pyYyXLS9TtaKKK8s8cKxrnxRptpci3mTUVkMhiUDTLlg7AEkKRHhuFY8Z4BPStmuE1XTdOOo6tPe6bYyXU2pwPHLd2yP/AKKkVt577nGBGqiQFugY4B3EA3BJvU0pxUnZnWLrNm2l3Oov9ohtbZWeVri1liZVVdxO11DEY9BUF54n0TT572G61O3ilsYVnuEZvmjQnAOO5JxwOfmXj5lzymo20Ufwr1JILO4a3DX8kAs5RCiRGSZkc4dQ0W0qdo3AgjCkVVvptWOtyWIj1FoZLiPTpY7b7JMrxiy80x+ZcLvkO5nOX4Klv4jitFTTNFSi769/wPQodQtLieOKGdHaWEXEZXlZIycblbow5GcE43LnG4ZZa6rZXlw0EE26Qb/lKMudkhjfGRztZcHHTK9mXPAFtT1KyjluYftcmqeHhLbxmVpkluQIPme3ZTEnzumCuAAHZuD8r9H0axinvFHh23nWWaeOz8q1VBvW7uFkV5VXKR+X5QIY4ZQVVW5Ur2aS3B0klds6yPxl4bltYbpdbsfIlZUDmYAIzKzKHz9wkI33scjHXita0vLa/tkubO4huLd87ZYXDq2Dg4I4PIIrzq4TU5fCk2qiS0Al0qXVFWbT2ljV5Ysyqv73y1POBujyQ7ffJlJ9C0+Ce10+CC5nSeWNdpkRWUMB0++ztnGMksSTk96U4xS0IqQjFaFmiiisjIK5vQp5PD/xrMR842fiax6YQr9ptxn/AHlURg+uS/t8vSVzd3/yV7wH/wBxD/0nrowraqI6sG2qyXc9cooor1D2QooooAKKKKACiiigAooooAKKKKACiiigAooooAKKKKACiiigAooooAKKKKACiiigAooooAKKKKACiiigAooooAKKKKACiiigAooooAKKKKACiiigArxP4drJpNrq3hS5Ym40K+kgUtC0bSQsxaOQgkj5vmIwemPXJ9sry/X9JbR/i3Fq6b47PXNPNvIFMjK93EQQX42qfJB28jOx+/XDER5qb8jmxcOak/LU2KKKK8o8UKp2GlWWmeYbWHEkuPNmd2kllxnG+RiWbGSBknA4HFXKKdx3ZjT+FdHuI76NreaOO/k826jhupYllbaVJKowHzA/N/e4JyQKfP4Y0G7vJ7u60exubidg0ktxAsjEhQo5YHAwo4HHfqTWtRT5pdx88u5kr4a0lLVbdLZ0VFjSN0nkWSNY12IEkDblAUsOCPvvn7zZfaaFZ2VylxFNqLOmcCbUbiVeRjlXcqevcVp0Ucz7hzS7mZcaBp11osWjyRzCwijESxR3EkeUC7QpKsCwxwQSQe9adFFK7Ym29wooopCCuZlcXPxo8G28KySS2kF7cXAVCRFG8RRWY4wAWBX649Rnpqy/hzpyal4v8SeL1k+0Wk3l6fp0+58eWigzbAflKGQDDDPzI+Opz04WN6l+x2YKN6t+x6ZRRRXpnrhRRRQAUUUUAFFFFABRRRQAUUUUAFFFFABRRRQAUUUUAFFFFABRRRQAUUUUAFFFFABRRRQAUUUUAFFFFABRRRQAUUUUAFFFFABRRRQAUUUUAFFFFABWN4o8OWvinQZ9NuCI5CN9tcgHfbTgHZKhBBDKeeCMjI6E1s0UAePaBr+oQatJ4V8VRJbeIbddyOvEV/FziWI8Z4ByOOh4GGVeprc8S+D9A8YW8EGvabHeJbuXiJdkZCRg4ZSDg8ZGcHA9BXIw/Bmwt4I4YfF/jCKKNQiImpKqqoGAAAnAArjqYRN3i7HBUwKcrwdjSoqh/wAKftf+hz8Zf+DQf/EUf8Kftf8Aoc/GX/g0H/xFR9Tl3M/qEu5foqh/wp+1/wChz8Zf+DQf/EUf8Kftf+hz8Zf+DQf/ABFH1OXcPqEu5foriPBfgI+I/wDhIftni/xWn9m63c6fD5OpY3Rx7dpbKnLfMckYHtXUf8Kftf8Aoc/GX/g0H/xFH1OXcPqEu5foqh/wp+1/6HPxl/4NB/8AEUf8Kftf+hz8Zf8Ag0H/AMRR9Tl3D6hLuX6Kof8ACn7X/oc/GX/g0H/xFOT4N6NI4TUte8TarZn/AFlne6kWhk9NwVVPBwRgjkCj6nLuH1CX8xzupalqnizXJfCXhKXypY+NU1YDKWKHgqpHWU4IAB4wehDMnr9hY2+madbWFnH5draxJDCm4ttRQAoyck4AHWqegeHNI8LaWum6LYx2loHZ9iksWY9SzMSWPQZJPAA6AVqV106apqyO6lSjSjZBRRRWhqFFFFABRRRQAUUUUAFFFFABRRRQAUUUUAFFFFABRRRQAUUUUAFFFFABRRRQAUUUUAFFFFABRRRQAUUUUAFFFFABRRRQAUUUUAFFFFABRRRQAUUUUAFFFFABRRRQAUUUUAFFFFAHn/ws/wCZ1/7Gu+/9kr0CvP8A4Wf8zr/2Nd9/7JXoFABRRRQAUUUUAFFFFABRRRQAUUUUAFFFFABRRRQAUUUUAFFFFABRRRQAUUUUAFFFFABRRRQAUUUUAFFFFABRRRQAUUUUAFFFFABRRRQAUUUUAFFFFABRRRQAUUUUAFFFFABRRRQAUUUUAFFFFABRRRQAUUVz/inxjpfg2Kyuda8+KxuZTCbtE3pE+0soYA7/AJgrY2q3TnFAHP8Aws/5nX/sa77/ANkr0CvE/CPxJ8KeFLfxdLqOqxs9z4jv7m2itlMzTphNpXbwA3RSxAPPPBx7RBI01vFK8MkDugZopCpZCR907SRkdOCR6E0ASUUUUAFFFFABRRRQAUUUUAFFFFABRRRQAUUUUAFFFFABRRRQAUUUUAFFFFABRRRQAUUUUAFFFFABRRRQAUUUUAFFFFABXN+Oru6sfCz3Fm0onW7tQoik2M2biMFc9sgkHtg10lZ2uaPFr2lPYTTz26s8cglg270ZHV1I3Kw6qOoNHVfICtoGt3OqT6lZ31ilne6fOsUqRTmaNgyK6srlVJGG7qMEGqOs6prVt420XT7GK2exuba4knEs5RjtaMbhiNuVDcDIDbjnGATJDpOp6CJn0mGDVbm8lM15dane+RI7BVVcCKBlwFUDACgY7kk08aRf6te2Wpant0y+sWdYhp12J0lifbuV/MhXglR0GRjhhSautP60t+YGJ4E8S6lcaboVhqtoc3mmG4gvGuzLJMY9gbzFK/KTvBHzNkdcHioIPiJMlnpEYtrQz3lhHdB9U1JbUzsxx5cTCLbJJxyMIBuX146fTvCtjpv9keTLcN/ZVpJaQb2U7kfZktgcn92OmO/FZt14HVdBXS7TVdRazjs1tTYSSxCG5VQeHYxMybgcEpjjtkVTavf+uv8AwA7m/repf2NoOo6n5XnfY7aS48vdt37FLYzg4zjriucbxteW0WoLqGl2llcW1pDexebfMYpI5GKgMyxEiQEY2qr5JABOafrcXizU/Dmqac2i6SgubKaFTBqru+5o2CgK0CKecDlhTo/AttPYyf2hqGoXN/MkA+2SGISQeS2+MIEQIAr5PKnOecjFLr/Xn/wA6L+u3/BKtl4/uL63WCLRiNYe/wDsSWssksMefL80uXkhV1UJk8x5JGACCDUFx8Sha29tHc22l2moSz3UTJeaqILdRA+xiJWjySWxhdnrnGKn1PwibG3N3bSa1qWpPfpdm6hltkuInEXlbkDqsRG0BSpGMMSOQKXQ/Bc8elWs9xfX2n6uk9zMLiFonmVJpC5jk3I0bH7pOBgMvynHU/r8F+twfT+u/wDwDptD1aHXtCstVt1KxXcKyqpOSuR0yOuOmRWhUNpbm0s4bczTTmNAplmbc7n1Y8cn2AFTU3a+glsFFFFIYUV88+DNK1XxF4TstVu/GvixJ5/M3LDqrBRtkZRgEE9AO9b3/CH3n/Q8eMv/AAbH/wCJoA9oorxf/hD7z/oePGX/AINj/wDE0f8ACH3n/Q8eMv8AwbH/AOJoA9oorxf/AIQ+8/6Hjxl/4Nj/APE0f8Ifef8AQ8eMv/Bsf/iaAPaKK8X/AOEPvP8AoePGX/g2P/xNH/CH3n/Q8eMv/Bsf/iaAPaKx/FXh638V+F9R0O6bZHdxFA+CfLcHKPgEZ2sFOM84weDXl/8Awh95/wBDx4y/8Gx/+Jo/4Q+8/wCh48Zf+DY//E0AcB8GvAdxqHxKnfU4Nkfh2XfcJvBxcqxEaZVuzKzZGQfLweGr6nrxOPwRNC8zxeM/FyPM++Vl1Qgu20Lljt5O1VGT2AHapP8AhD7z/oePGX/g2P8A8TQB7RRXi/8Awh95/wBDx4y/8Gx/+Jo/4Q+8/wCh48Zf+DY//E0Ae0UV4v8A8Ifef9Dx4y/8Gx/+Jo/4Q+8/6Hjxl/4Nj/8AE0Ae0UV4v/wh95/0PHjL/wAGx/8AiaP+EPvP+h48Zf8Ag2P/AMTQB7RRXi//AAh95/0PHjL/AMGx/wDiaP8AhD7z/oePGX/g2P8A8TQB7RRXlvwre/t/FnjHSrrWdT1KCy+xeQ2oXTTMu+N2bBPAycdAOgr1KgAooooAKKKKACiiigAooooAKKKKACiiigAooooAKKKKACiiigAooooAKKK4/wAY+P7fwNqOnf2vYTnSL3Mf9oQZfyJQR8siY4UqSwIYsdrALxmgAtNV8Ya3o+o6hpthY2HneV/ZVtrEM0UyYbbN9pVScZwSm3sRmtDUP+Ew/wCJz/Zv9h/8sP7K+0+d7ed5+38du38a878M/F/Rfsuk+G/D8HiDXdUuH2RvqrjeC0rbvOlXccKuWyqsAoAOMHHslAHP6h/wmH/E5/s3+w/+WH9lfafO9vO8/b+O3b+NGof8Jh/xOf7N/sP/AJYf2V9p87287z9v47dv410FFAHP6h/wmH/E5/s3+w/+WH9lfafO9vO8/b+O3b+NGof8Jh/xOf7N/sP/AJYf2V9p87287z9v47dv410FFAHP6h/wmH/E5/s3+w/+WH9lfafO9vO8/b+O3b+NGof8Jh/xOf7N/sP/AJYf2V9p87287z9v47dv410FFAHP6h/wmH/E5/s3+w/+WH9lfafO9vO8/b+O3b+NGof8Jh/xOf7N/sP/AJYf2V9p87287z9v47dv410FFAHP6h/wmH/E5/s3+w/+WH9lfafO9vO8/b+O3b+NGof8Jh/xOf7N/sP/AJYf2V9p87287z9v47dv410FFAHP6h/wmH/E5/s3+w/+WH9lfafO9vO8/b+O3b+NGof8Jh/xOf7N/sP/AJYf2V9p87287z9v47dv410FFAGfpV3qN39t/tDS/sHk3ckVv/pCy/aIRjbL8v3d3PynkYorP8K6f/Z/9t/8SP8Asr7Rqs8//H35/wBr3bf9I6/Jux9ztj3ooA8v+Fv/ACTjSf8Att/6Oeuwrj/hb/yTjSf+23/o566HXL2TTNA1K/hVGltrWWZA4JUsqEjOO3FAF+iuL02f4i6ppdpqEA8LLDdQpOgf7QGCsoYZxnnBq19n+JXr4T/8markl2M/aw7nVUVyv2f4levhP/yZo+z/ABK9fCf/AJM0ckuwe1h3Oqorlfs/xK9fCf8A5M0fZ/iV6+E//Jmjkl2D2sO51VFcr9n+JXr4T/8AJmj7P8SvXwn/AOTNHJLsHtYdzqqK5X7P8SvXwn/5M0fZ/iV6+E//ACZo5Jdg9rDudVRXK/Z/iV6+E/8AyZo+z/Er18J/+TNHJLsHtYdzqqK5X7P8SvXwn/5M0fZ/iV6+E/8AyZo5Jdg9rDudVRXK/Z/iV6+E/wDyZo+z/Er18J/+TNHJLsHtYdzqqK5HR9Y8Sp4zfQNfTSf+Qeb1HsBJ/wA9AgBLn/e7enNddUtWLTTV0Z/w2/5KP4+/7h3/AKJevUK8v+G3/JR/H3/cO/8ARL16hQMKKKKACiiigAooooAKKKKACiiigAooooAKK8Y8d+H9L8SfGqCz1a1+0W6eHVlVPMZMMLhgDlSD0Y0z/hVXgr/oC/8Ak1N/8XWFTERhLlZzVcVCnLlaZ7VRXiv/AAqrwV/0Bf8Ayam/+Lo/4VV4K/6Av/k1N/8AF1H1yHZmf1+n2f8AXzPaqK8V/wCFVeCv+gL/AOTU3/xdH/CqvBX/AEBf/Jqb/wCLo+uQ7MPr9Ps/6+Z7VRXiv/CqvBX/AEBf/Jqb/wCLo/4VV4K/6Av/AJNTf/F0fXIdmH1+n2f9fM9qrm/HnhSHxn4Ov9GcRieRN9rI+P3cy8oc4JAz8pIGdrMB1rzn/hVXgr/oC/8Ak1N/8XR/wqrwV/0Bf/Jqb/4uj65Dsw+v0+z/AK+Znfs++BZrW4v/ABNqtnJDPE72VpHPEVZGBxK+GXIIPyAg/wDPRSK97rxX/hVXgr/oC/8Ak1N/8XR/wqrwV/0Bf/Jqb/4uj65Dsw+v0+z/AK+Z7VRXiv8AwqrwV/0Bf/Jqb/4uj/hVXgr/AKAv/k1N/wDF0fXIdmH1+n2f9fM9qorxX/hVXgr/AKAv/k1N/wDF0f8ACqvBX/QF/wDJqb/4uj65Dsw+v0+z/r5ntVFeK/8ACqvBX/QF/wDJqb/4uj/hVXgr/oC/+TU3/wAXR9ch2YfX6fZ/18z2qivFf+FVeCv+gL/5NTf/ABdY+seCvD3hvXPCF5pOn/Z7h/EVnEz+dI+VLEkYZiOqiqhiYSkopMqGMhOSik9T6CoooroOsKKKKAOf8K6f/Z/9t/8AEj/sr7Rqs8//AB9+f9r3bf8ASOvybsfc7Y96KPCun/2f/bf/ABI/7K+0arPP/wAffn/a923/AEjr8m7H3O2PeigDy/4W/wDJONJ/7bf+jnrY8Wf8ibrn/YPuP/RbVj/C3/knGk/9tv8A0c9bHiz/AJE3XP8AsH3H/otqALnhD/kSdB/7B1v/AOi1rarF8If8iToP/YOt/wD0WtbVdi2PMluwooooEFFFFABRRRQAUUUUAFFFFABRRRQAUUUUAcPcf8lnH/Yvf+3FdVXDa/rWnaB8WPt2qXSW1uNACbmBJLG44AABJPU8DoCegpnhrx/c+L/E/wBl0rTfJ0m3jaS5uLnJkbIAVVC/Kp3Z4JOVBPBGK5Z/Ez0KXwI6z4bf8lH8ff8AcO/9EvXqFeX/AA2/5KP4+/7h3/ol69QqTQKKKKACiiigAooooAKKKKACiiigAooooA8q1/8A5Lun/Ysj/wBKTW7WFr//ACXdP+xZH/pSa3a8zFfxDx8b/FCiiiuY5AooooAKKydS8QWOmarpunS3FuLi+m8sRvOquqlHKttPJBZAg92Hfg1tO8W2OoapNYeVdwSC48iEzWkyCU+SJTksgCHBb5SckLnoRVcsrXsXyStexv0VzV941sNOspL2ePfb/aI4oDHPEpmRx8suJGXCFlkAOSCELj5eQzRfGK61A8ltBb3PlTQJL9huTNsSUfK2CitlSQWBUALu+YsrKH7OVr2H7Odr2OoornZPGWnpq6WKQ30y7Z98sVjO4DxOqFVCxncMswLA4BUA/eFMtPGUeoyumn6PqN0ByjI9unmLsRwyq8qtjbLGeQMbwDg8UckuwvZy7HS0VjWWuXFzc3iz6Pd2tvax7mkaSKVt+NxTy4nds7SjDqTnoONxZa99s1aOxFthJI5pY7hZN0cqJ5JVkOPmDLOMnoGVh83WlysORmzRRRUkBRRRQAVynjT/AI//AAb/ANjNZfzaurrlPGn/AB/+Df8AsZrL+bVtQ/iI3w/8WJ7HRRRXrHuBRRRQBz/hXT/7P/tv/iR/2V9o1Wef/j78/wC17tv+kdfk3Y+52x70UeFdP/s/+2/+JH/ZX2jVZ5/+Pvz/ALXu2/6R1+Tdj7nbHvRQB5f8Lf8AknGk/wDbb/0c9bHiz/kTdc/7B9x/6Lasf4W/8k40n/tt/wCjnrY8Wf8AIm65/wBg+4/9FtQBc8If8iToP/YOt/8A0WtbVYvhD/kSdB/7B1v/AOi1rarsWx5kt2FFFFAgrM8Qa3a+HtEutRuZIV8qN2ijllEfnOFLCNSf4jjjAJ9q06xfFgeXwvqNnFFNLcXttLawJFEz5kdGC7iBhVz1ZsKO5FD2HHcrX/jXTNP1CKGUXL2rWkl013FazSRhF8sgqyoQylZMlgcLgA9RV291+3sryWEhGjghkeaQzKm2QKHWIbyFLFA7n5htVQWwGBrlbqybxLJdakuqavLpRsngItltpCROy+bFGVQ7ljVFyVLknKq25WDDG1XWJPECtd3Vk+nKst1b2AtpHR41IaS4LJu3fKcoAIii5Mah903ZfKi7o/xBtdev47WwjtC9xG7W8Ml6BNuVA/7xQpVVOQPlZ2HPy/K4TQ1DxlZafb2zPa332mZbaRrY2kpeFJpAg3lVYKw+b5c5JXA5IrmPCzR6Ld3N3quppDZqtxd2qC7upBOpaR3ZN77ZlVMnIj3EnfjBV5LusaZrgs4dVmvbaG5u5tPjmtprbzDCwvd8ah0dQQnnBScfMEzkFshJuw3GPMa8njez+2ra2unajcucgkxpb7WBjGwid423fvoscc+YMZ5xZGv3zahaWn/CO30RmYl2muLYFIxwXCrKSwDMgOBwG7nAPOalHJ4e1xb3V2tL5NSjuo5XdUtbVWdbVFRzK7fKVhYkDcxG7CnBq7omq6Tp+pxwp4k07VXvtkbSm9jM0bquERQWLNEeQFyzhmJJfezK7u+ouVWujs6KKKozCiiigDw3xl8Pv7V+Is+n6Xduk0mmJek3szygsJBEV3nLY2gHndyMcDGMzwZ4Zv8AT/E8mh61PreizXcZaCSyufLWdkG4ruVWV8KxOc/Lgjqa9NuP+Szj/sXv/biuqrln8TPRpO8EcJ4J8Df2l418X2f/AAlXie1+x/Y/39rqGyWffGx/eNt+bbjC+gJru/8AhVn/AFPvjn/wcf8A2FZ/w2/5KP4+/wC4d/6JevUKks8//wCFWf8AU++Of/Bx/wDYUf8ACrP+p98c/wDg4/8AsK9AooA8/wD+FWf9T745/wDBx/8AYUf8Ks/6n3xz/wCDj/7CvQKKAPP/APhVn/U++Of/AAcf/YUf8Ks/6n3xz/4OP/sK9AooA8//AOFWf9T745/8HH/2FH/CrP8AqffHP/g4/wDsK9AooA8//wCFWf8AU++Of/Bx/wDYUf8ACrP+p98c/wDg4/8AsK9AooA8/wD+FWf9T745/wDBx/8AYUf8Ks/6n3xz/wCDj/7CvQKKAPEo9A/4Rz4zGz/tfVdU3+HvN87U7nz5FzcY2hsDC/LnHqT612tYWv8A/Jd0/wCxZH/pSa3a8zFfxDx8b/FCiiiuY5AooooA5rxTdpDd6WWeaBLa4M091hUSCN4pYQ/mSfu8h5F+XJbHO01k2unPaXlrquqanrKrc6mJoA0EO0OVW3i80LEGUyIfRQu7acOAW7uitFOysaqpZWseXXFjHa+GNT04pND/AGnI5tXW3fTbdnKFcCJWMjEDCiIrmTapCN88lbOlXNxaaTPZrf5167uBarEZppGtM7irMk0kgBVFkk4IV9oClhtY9xRTdS6G611Zo4oaVq9h4stIbTUrELJDqE8RlsXYoslxDIytiUbjlxgjHAPBzxmWptdCmn8P3t7b2TQTW0sOpXU8cJCpawx74kLbixKOvIKYLAlsFG9IooVR9QVV9TkNN1fSYtKuNMj8SWMUdqoddRt7yBnZC/LyBtwEhY4diMMXDAgsVWnHpeoCe21K01DWU0+zha2RfssEU4jYqWMcJgHyqY0G0jc2DtHCiXu6KXPbZC9pbZFPSpYptNhkg1L+0ozuxd7o28zk94wF46cDt61cooqGZvcKKKKQgrlPGn/H/wCDf+xmsv5tXV1ynjT/AI//AAb/ANjNZfzatqH8RG+H/ixPY6KKK9Y9wKKKKAOf8K6f/Z/9t/8AEj/sr7Rqs8//AB9+f9r3bf8ASOvybsfc7Y96KPCun/2f/bf/ABI/7K+0arPP/wAffn/a923/AEjr8m7H3O2PeigDy/4W/wDJONJ/7bf+jnrY8Wf8ibrn/YPuP/RbVj/C3/knGk/9tv8A0c9bHiz/AJE3XP8AsH3H/otqALnhD/kSdB/7B1v/AOi1rarF8If8iToP/YOt/wD0WtbVdi2PMluwooooEFFFFABRRRQAUUUUAFFFFABRRRQAUUUUAcPcf8lnH/Yvf+3FdVXK3H/JZx/2L3/txXVVyz+JnoUvgRn/AA2/5KP4+/7h3/ol69Qry/4bf8lH8ff9w7/0S9eoVJoFFFFABRRRQAUUUUAFFFFABRRRQAUUUUAeVa//AMl3T/sWR/6Umt2pvFHw30/xRr8etSaxrWnXkdqLTdp1ysOYw7Pg/KT1b1xwOKyv+FP2v/Q5+Mv/AAaD/wCIrkrYd1JcyZxV8LKrPmTL9FUP+FP2v/Q5+Mv/AAaD/wCIo/4U/a/9Dn4y/wDBoP8A4is/qcu5j9Ql3L9FUP8AhT9r/wBDn4y/8Gg/+Io/4U/a/wDQ5+Mv/BoP/iKPqcu4fUJdy/RVD/hT9r/0OfjL/wAGg/8AiKP+FP2v/Q5+Mv8AwaD/AOIo+py7h9Ql3L9FUP8AhT9r/wBDn4y/8Gg/+Io/4U/a/wDQ5+Mv/BoP/iKPqcu4fUJdy/RXMeFvhvYa/wCHLTU4fiH4rv459+LmC7a3R9rsvEbqzLjGOSc4z0NbH/Cn7X/oc/GX/g0H/wARR9Tl3D6hLuX6Kof8Kftf+hz8Zf8Ag0H/AMRR/wAKftf+hz8Zf+DQf/EUfU5dw+oS7l+iqH/Cn7X/AKHPxl/4NB/8RR/wp+1/6HPxl/4NB/8AEUfU5dw+oS7l+iqH/Cn7X/oc/GX/AINB/wDEUf8ACn7X/oc/GX/g0H/xFH1OXcPqEu5frlPGn/H/AODf+xmsv5tW5/wp+1/6HPxl/wCDQf8AxFPt/g/psOpafez+JPE961jdR3cUV5fLJH5iHIJBT8OMHBPNVTwrjJSuXSwcoTUr7HolFFFdp6AUUUUAc/4V0/8As/8Atv8A4kf9lfaNVnn/AOPvz/te7b/pHX5N2Pudse9FHhXT/wCz/wC2/wDiR/2V9o1Wef8A4+/P+17tv+kdfk3Y+52x70UAeX/C3/knGk/9tv8A0c9bfieGS48J6zDDG8ksljOiIikszFCAAB1JrE+Fv/JONJ/7bf8Ao567CgDiNB8cNpfh7TNPn8JeKWmtbSKBymnZUsqBTjLDjIrQ/wCFjJ/0KPiz/wAFv/2VdPRWntJGLoQZzH/Cxk/6FHxZ/wCC3/7Kj/hYyf8AQo+LP/Bb/wDZV09FHtZB9Xgcx/wsZP8AoUfFn/gt/wDsqP8AhYyf9Cj4s/8ABb/9lXT0Ue1kH1eBzH/Cxk/6FHxZ/wCC3/7Kj/hYyf8AQo+LP/Bb/wDZV09FHtZB9Xgcx/wsZP8AoUfFn/gt/wDsqP8AhYyf9Cj4s/8ABb/9lXT0Ue1kH1eBzH/Cxk/6FHxZ/wCC3/7Kj/hYyf8AQo+LP/Bb/wDZV09FHtZB9Xgcx/wsZP8AoUfFn/gt/wDsqP8AhYyf9Cj4s/8ABb/9lXT0Ue1kH1eBzH/Cxk/6FHxZ/wCC3/7Kj/hYyf8AQo+LP/Bb/wDZV09FHtZB9XgcPpN/ca78TW1YaNq1haJoxtt1/amLLiYNgHJHQ+ueDXcUUVDd3c1ilFWRn/Db/ko/j7/uHf8Aol69Qry/4bf8lH8ff9w7/wBEvXqFIYUUUUAFFFFABRRRQAUUUUAFFFFABRRRQAUUUUAFFFFABRRRQAUUUUAFFFeP/FrX/FPw+1iy8TaJeebpl7i2u7G7zJCJlVijAFty7lzxHtGYgWzuoA9A8Eah/avhCxvf7c/tzzPM/wCJh9k+zediRh/q8DbjG3325710FfP/AMJPEnjb4heKN+sa7PJpGlbbiZIUSDzZSGEaMY9rFfvMQcqdmCORX0BQAUUUUAFFFFABRRRQAUUUUAFFFFABRRRQBz/hXT/7P/tv/iR/2V9o1Wef/j78/wC17tv+kdfk3Y+52x70UeFdP/s/+2/+JH/ZX2jVZ5/+Pvz/ALXu2/6R1+Tdj7nbHvRQB5f8Lf8AknGk/wDbb/0c9dVd3UNjZz3dy+yCCNpZHwTtVRknA5PArlfhb/yTjSf+23/o562PFn/Im65/2D7j/wBFtQBj/wDC0vBv/QZ/8lZv/iKP+FpeDf8AoM/+Ss3/AMRXSeEP+RJ0H/sHW/8A6LWtqtlS8zleJs7WOB/4Wl4N/wCgz/5Kzf8AxFH/AAtLwb/0Gf8AyVm/+IrvqKPY+YfWfI4H/haXg3/oM/8AkrN/8RR/wtLwb/0Gf/JWb/4iu+oo9j5h9Z8jgf8AhaXg3/oM/wDkrN/8RR/wtLwb/wBBn/yVm/8AiK76ij2PmH1nyOB/4Wl4N/6DP/krN/8AEUf8LS8G/wDQZ/8AJWb/AOIrvqKPY+YfWfI4H/haXg3/AKDP/krN/wDEUf8AC0vBv/QZ/wDJWb/4iu+oo9j5h9Z8jgf+FpeDf+gz/wCSs3/xFH/C0vBv/QZ/8lZv/iK76ij2PmH1nyOB/wCFpeDf+gz/AOSs3/xFH/C0vBv/AEGf/JWb/wCIrvqKPY+YfWfI5PRPGfh/xFePaaVf/aJ0jMrJ5MiYUEDOWUDqRW9XK3H/ACWcf9i9/wC3FdVWUlZ2OiMuaKZn/Db/AJKP4+/7h3/ol69Qry/4bf8AJR/H3/cO/wDRL16hSKCiiigAooooAKKKKACiiigAooooAKKKKAOE1r4qado3iO/0NdB8QahdWPl+e+n2ayou9A687wRwe4HQ1T/4XBa/9CZ4y/8ABWP/AIusq0/5K948/wC4f/6T10lcdXEuE3GxwVsXKnNxSKH/AAuC1/6Ezxl/4Kx/8XR/wuC1/wChM8Zf+Csf/F1foqPrkuxn9fl2KH/C4LX/AKEzxl/4Kx/8XR/wuC1/6Ezxl/4Kx/8AF1foo+uS7B9fl2KH/C4LX/oTPGX/AIKx/wDF0f8AC4LX/oTPGX/grH/xdX6KPrkuwfX5dih/wuC1/wChM8Zf+Csf/F1j+KviBpnivwvqOh3Xg7xkkd3EUD/2Vny3Byj4EgztYKcZ5xg8Gunoo+uS7B9fl2OE+HPi6y8C+DrfSG8IeL5btnae7lj0v5XlbGcZk6BQq9BnbnAJNdZ/wuC1/wChM8Zf+Csf/F1foo+uS7B9fl2KH/C4LX/oTPGX/grH/wAXR/wuC1/6Ezxl/wCCsf8AxdX6KPrkuwfX5dih/wALgtf+hM8Zf+Csf/F0f8Lgtf8AoTPGX/grH/xdX6KPrkuwfX5dih/wuC1/6Ezxl/4Kx/8AF0f8Lgtf+hM8Zf8AgrH/AMXV+ij65LsH1+XYof8AC4LX/oTPGX/grH/xdXNF+Kmnaz4jsNDbQfEGn3V95nkPqFmsSNsQu3O8k8DsD1FPrm7v/kr3gP8A7iH/AKT1dLEuc1Fo0o4uVSai0euUUUV2HeFFFFAHP+FdP/s/+2/+JH/ZX2jVZ5/+Pvz/ALXu2/6R1+Tdj7nbHvRR4V0/+z/7b/4kf9lfaNVnn/4+/P8Ate7b/pHX5N2Pudse9FAHl/wt/wCScaT/ANtv/Rz1seLP+RN1z/sH3H/otqx/hb/yTjSf+23/AKOetjxZ/wAibrn/AGD7j/0W1AFzwh/yJOg/9g63/wDRa1tVi+EP+RJ0H/sHW/8A6LWtquxbHmS3YUUUUCCiimTTRW8Ek88iRQxqXeR2CqqgZJJPQAUAPophmiWdIDIgmdWdYyw3MoIBIHcAsufqPWgzRLOkBkQTOrOsZYbmUEAkDuAWXP1HrQA+iqT6xpkdzcWz6jaLcW0ZlniM6hokABLMM5VcEHJ45FWpZooEDzSJGpZUBdgAWYhVHPckgD1JFAWH0UUx5ooniSSREaVtkYZgC7YLYHqcKT9AfSgB9FFFABRRRQBw9x/yWcf9i9/7cV1VcN4g1e30P4qy391HcPFF4cLEQQtI3E5PYcDg8tgDuRXA+Jvi/q2p+ZbaNH/Z1qcr5ud07jkdeiZBB45BHDVyz+JnoUvgR7P8Nv8Ako/j7/uHf+iXr1Cvmn4NeKZPDN34gebQ/EmsS3q2kzvZWJmdWKuxL5bo2/Kt/EBnjpXq3/C0/wDqQvHP/gn/APs6k0PQKK8//wCFp/8AUheOf/BP/wDZ0f8AC0/+pC8c/wDgn/8As6APQKK8/wD+Fp/9SF45/wDBP/8AZ0f8LT/6kLxz/wCCf/7OgD0CivP/APhaf/UheOf/AAT/AP2dH/C0/wDqQvHP/gn/APs6APQKK8//AOFp/wDUheOf/BP/APZ0f8LT/wCpC8c/+Cf/AOzoA9Aorz//AIWn/wBSF45/8E//ANnR/wALT/6kLxz/AOCf/wCzoA9Aorz/AP4Wn/1IXjn/AME//wBnR/wtP/qQvHP/AIJ//s6AMO0/5K948/7h/wD6T10lcX4Y1X+2/iP411D7BfWHnfYf9Gv4fKmTEJX5lycZxkexFdpXlYn+KzxcX/Gf9dAooorA5gooooAKK5fV9UvrDxVbiWexstO+wXLC4uLptgbdAFd4yFGQ7BQN/IZuQeDjeHfFl3JcvZDVNM1eeVdQlgghfy5Xkjn/AHabmkYBXVmKjHCqOSATWiptq5qqTcbnoNFeY6rr+rnw7ZT6fc3H7y6kjuAS7s/mMu0ExRyGNd0oKBZQxi27GZmBXo/Dv2trKC6vLua0WC8ePyp3nYSROAEjzcKjk7yhDEMcgqpAbYrdNpXG6TSuzq6K87g1zxK1lf619v075NCttR+zGzkKDcJ32j99wflwW7jbwMc2Yr69tbKa+1bxJqdvYxzXMf2pIrYqpimkQK6+QSCVRcHkM2V4JQMOk+4Oi+53dFcuZ7rw7oV1qN/qrtdTsHjg1W5hVdwHESsoRUZ0XBwSqtkjdyWpaT4l0iz1u9t7jxVY3FqlrD5DyXqbf9bcHbksdzKnlKWJ3HCk9aXI7XRPs202jtaKZDNFcQRzQyJLFIodHRgyspGQQR1BFPqDMKKKKQBXN3f/ACV7wH/3EP8A0nrpK5u7/wCSveA/+4h/6T1vhv4qOnCfxl/XQ9cooor1T2gooooA5/wrp/8AZ/8Abf8AxI/7K+0arPP/AMffn/a923/SOvybsfc7Y96KPCun/wBn/wBt/wDEj/sr7Rqs8/8Ax9+f9r3bf9I6/Jux9ztj3ooA8v8Ahb/yTjSf+23/AKOetjxZ/wAibrn/AGD7j/0W1Y/wt/5JxpP/AG2/9HPWx4s/5E3XP+wfcf8AotqALnhD/kSdB/7B1v8A+i1rarF8If8AIk6D/wBg63/9FrW1XYtjzJbsKKKKBBXP+OIJJ/BOs+XdTW+yyndvKCHzAI2yjblPynvjB9CK6Cqt9p9tqUCwXau8IbcYxIyq/BG1wCN6kE5Vsqe4ND2GnZ3PP/EVnqF3r0kVjYa/JqEWmXEaXCaikYMhMaxS4SZVRWMbErtXcQTsO07dS5TUtR8U3kBt7loZrBlCz2YVYN8YHkmZg8TqW+Z9iltxjH7xEYL0Fp4csbbT3tJA9x5iojSvtR9qf6sL5YUIE6rsC7T8w+YkmCXwlptxaCK5NzcziFYVurmYyyLhQpZd2VBYD5wF2vyGDAkVPKy+dHC/DuGWTVLe3junmtdPadkjWcvAqbmhV0/0VUYnYfmWQFv3jY+aRTPrT2LrbrHFrUekxLp0NgLc3JiKpeMjsDESrEosZRidxBQryRXbHw6gjlWHU9RgeeN0uZI5V3TsykCQkqdrrngptxhVxtVVF250u1ubCGyCeTbwSQyRpCAoXynV0UDGAuUAx6elJRdrDc1zXPPE0mw1DxHcSXUTrapDdSW1xrVu8pSONbI5YXPzGMO03cYDPtK5zW7oOlaTcaus03hvTtLmijWW1t/sUYaT7pM4cqGG1vlC4VlyC4BdQu7rPh611qezuJXeG6s2LQTpHG7JkgnAkRlByqncBuGOCMnMaaFc/abeefX9RuPIkEiJLDa4zgg8iEEZBYZBBwTzT5dROd1ubVFFFUZhRRRQBw9x/wAlnH/Yvf8AtxUPib4baD4j8yfyPsV82T9ptgBuY5OXXo3LZJ4Y4+9U1x/yWcf9i9/7cV1Vcs/iZ6FL4Ecv8DtJudC8R+M9Lurr7VJbfYUE2T8ybJNnXphdox0GMDIFe0V5f8Nv+Sj+Pv8AuHf+iXr1CpNAooooAKKKKACiiigAooooAKKKKACiiigDyO0/5K948/7h/wD6T10lc3af8le8ef8AcP8A/SeukrysT/FZ4uL/AIz/AK6BRRRWBzBRRRQBh6hpuqy6zDqVpc2+6FXhijdSipHIF3l/vGQhkRgq+V0ILUNo13bWtvYWNxby2JhaG6jv4fNMhKv+8O3buZnYFw3DAkgqc7tyiq5mXzs5C58IXE9nb6U1xbvpe7zJIVhWFIX3BvkiRdsi5B2rISFJLP53AF3TtCnt4NMsJLext9O09mdYrV2ImdQPLZlYcDJkcgliHWM72IJroqKfO7WG6kmrHNReCdDXWrq5fQ9JNpJbwxxxfZE+V1aQu2NuBkMgz1O3noKhttG1nTdRmlhhtNQhFxNPa/ab0wiAyuzttRYG5+cruLMcZxtDFa6uijnfUPaS66mBYW+uWVlJbw2enQKZB5CG9eVLdCDnaPKQkKQCEyBgkBkAUVN/ZFzB/p0F15mqnmV5CVinH/PIqM7EH8JGSpJPz7nD7NFLmYudjITK0EZmRElKguqMWVWxyASBkZ74H0FPoopEBRRRSAK5u7/5K94D/wC4h/6T10lc3d/8le8B/wDcQ/8ASet8N/FR04T+Mv66HrlFFFeqe0FFFFAHP+FdP/s/+2/+JH/ZX2jVZ5/+Pvz/ALXu2/6R1+Tdj7nbHvRR4V0/+z/7b/4kf9lfaNVnn/4+/P8Ate7b/pHX5N2Pudse9FAHl/wt/wCScaT/ANtv/Rz1seLP+RN1z/sH3H/otqx/hb/yTjSf+23/AKOetjxZ/wAibrn/AGD7j/0W1AFzwh/yJOg/9g63/wDRa1tVi+EP+RJ0H/sHW/8A6LWtquxbHmS3YUUUUCCiiigAooooAKKKKACiiigAooooAKKKKAOHuP8Aks4/7F7/ANuK6quVuP8Aks4/7F7/ANuK6quWfxM9Cl8CM/4bf8lH8ff9w7/0S9eoV5f8Nv8Ako/j7/uHf+iXr1CpNAooooAKKKKACiiigAooooAKKKKACiiigDwrU/Fei+GPi940/ti9+zfaPsPlfunfdttxn7oOPvDr61b/AOFq+Cv+g1/5Kzf/ABFe1UVzzw0Jy5mctTCQqScm2eK/8LV8Ff8AQa/8lZv/AIij/havgr/oNf8AkrN/8RXtVFT9Th3ZH1Cn3f8AXyPFf+Fq+Cv+g1/5Kzf/ABFH/C1fBX/Qa/8AJWb/AOIr2qij6nDuw+oU+7/r5Hiv/C1fBX/Qa/8AJWb/AOIo/wCFq+Cv+g1/5Kzf/EV7VRR9Th3YfUKfd/18jxX/AIWr4K/6DX/krN/8RR/wtXwV/wBBr/yVm/8AiK9qrP17/kXtT/48f+PSX/kIf8e33D/rf+mf972zR9Th3YfUKfd/18jyX/havgr/AKDX/krN/wDEUf8AC1fBX/Qa/wDJWb/4ivWtB/5F7TP+PH/j0i/5B/8Ax7fcH+q/6Z/3fbFaFH1OHdh9Qp93/XyPFf8Ahavgr/oNf+Ss3/xFH/C1fBX/AEGv/JWb/wCIr2qij6nDuw+oU+7/AK+R4r/wtXwV/wBBr/yVm/8AiKP+Fq+Cv+g1/wCSs3/xFe1UUfU4d2H1Cn3f9fI8V/4Wr4K/6DX/AJKzf/EUf8LV8Ff9Br/yVm/+Ir2qij6nDuw+oU+7/r5Hiv8AwtXwV/0Gv/JWb/4iqmmeK9F8T/F7wX/Y979p+z/bvN/dOm3dbnH3gM/dPT0r3WiqhhoQlzIunhIU5KSbCiiiug6gooooA5/wrp/9n/23/wASP+yvtGqzz/8AH35/2vdt/wBI6/Jux9ztj3oo8K6f/Z/9t/8AEj/sr7Rqs8//AB9+f9r3bf8ASOvybsfc7Y96KAPL/hb/AMk40n/tt/6Oeuqu7WG+s57S5TfBPG0UiZI3KwwRkcjg1yvwt/5JxpP/AG2/9HPXYUAcf/wq3wb/ANAb/wAmpv8A4uj/AIVb4N/6A3/k1N/8XXYUUAcf/wAKt8G/9Ab/AMmpv/i6P+FW+Df+gN/5NTf/ABddhRQBx/8Awq3wb/0Bv/Jqb/4uj/hVvg3/AKA3/k1N/wDF12FFAHH/APCrfBv/AEBv/Jqb/wCLo/4Vb4N/6A3/AJNTf/F12FFAHH/8Kt8G/wDQG/8AJqb/AOLo/wCFW+Df+gN/5NTf/F12FFAHH/8ACrfBv/QG/wDJqb/4uj/hVvg3/oDf+TU3/wAXXYUUAcf/AMKt8G/9Ab/yam/+Lo/4Vb4N/wCgN/5NTf8AxddhRQBx/wDwq3wb/wBAb/yam/8Ai6P+FW+Df+gN/wCTU3/xddhRQBg6J4M8P+Hbx7vSrD7PO8ZiZ/OkfKkg4wzEdQK3qKKAM/4bf8lH8ff9w7/0S9eoV5f8Nv8Ako/j7/uHf+iXr1CgAooooAKKKKACiiigAooooAKKKKACiiigAooooAKKKKACiiigAooooAK878dfEW08MX91oWtafHFBfWTmwvbiN57SVijBknRV3ABtoITflXBO3NeiV5/8YfBv/CX+Brj7ND5mp6fm6tNq5d8D54xhSx3L0UYyypnpQBn+FPivp2uanpPhfQdM+13SRRi6ntomt7GCNYwZGjBUuFDYRVZVBJA3Dgn1CvH/AIAeDf7F8LyeIbyHbfarjyd64aO3B+XGVBG85bgkMojNewUAFFFFABRRRQAUUUUAFFFFABRRRQAUUUUAc/4V0/8As/8Atv8A4kf9lfaNVnn/AOPvz/te7b/pHX5N2Pudse9FHhXT/wCz/wC2/wDiR/2V9o1Wef8A4+/P+17tv+kdfk3Y+52x70UAeX/C3/knGk/9tv8A0c9dDrl7JpmgalfwqjS21rLMgcEqWVCRnHbiue+Fv/JONJ/7bf8Ao562PFn/ACJuuf8AYPuP/RbUAYemz/EXVNLtNQgHhZYbqFJ0D/aAwVlDDOM84NWvs/xK9fCf/kzW94Q/5EnQf+wdb/8Aota2q6FTjY4nXmmcP9n+JXr4T/8AJmj7P8SvXwn/AOTNdxRT9lEX1iZw/wBn+JXr4T/8maPs/wASvXwn/wCTNdxRR7KIfWJnD/Z/iV6+E/8AyZo+z/Er18J/+TNdxRR7KIfWJnD/AGf4levhP/yZo+z/ABK9fCf/AJM13FFHsoh9YmcP9n+JXr4T/wDJmj7P8SvXwn/5M13FFHsoh9YmcP8AZ/iV6+E//Jmj7P8AEr18J/8AkzXcUUeyiH1iZw/2f4levhP/AMmaPs/xK9fCf/kzXcUUeyiH1iZwej6x4lTxm+ga+mk/8g83qPYCT/noEAJc/wC929Oa66uVuP8Aks4/7F7/ANuK6qsJKzsdcG3FNmf8Nv8Ako/j7/uHf+iXr1CvL/ht/wAlH8ff9w7/ANEvXqFSWFFFFABRRRQAUUUUAFFFFABRRRQAUUUUAeFan4U0XxP8XvGn9sWX2n7P9h8r966bd1uM/dIz90dfSrf/AAqrwV/0Bf8Ayam/+Lq9af8AJXvHn/cP/wDSeukrzcRUmqjSZ5GKqzjVaTf9I43/AIVV4K/6Av8A5NTf/F0f8Kq8Ff8AQF/8mpv/AIuuyorH2s/5mYe2qfzP7zjf+FVeCv8AoC/+TU3/AMXR/wAKq8Ff9AX/AMmpv/i67Kij2s/5mHtqn8z+843/AIVV4K/6Av8A5NTf/F0f8Kq8Ff8AQF/8mpv/AIuuyoo9rP8AmYe2qfzP7zjf+FVeCv8AoC/+TU3/AMXR/wAKq8Ff9AX/AMmpv/i67Kij2s/5mHtqn8z+843/AIVV4K/6Av8A5NTf/F0f8Kq8Ff8AQF/8mpv/AIuuyoo9rP8AmYe2qfzP7zjf+FVeCv8AoC/+TU3/AMXR/wAKq8Ff9AX/AMmpv/i67Kij2s/5mHtqn8z+843/AIVV4K/6Av8A5NTf/F0f8Kq8Ff8AQF/8mpv/AIuuyoo9rP8AmYe2qfzP7zjf+FVeCv8AoC/+TU3/AMXR/wAKq8Ff9AX/AMmpv/i67Kij2s/5mHtqn8z+843/AIVV4K/6Av8A5NTf/F1U0zwpovhj4veC/wCx7L7N9o+3eb+9d9223OPvE4+8enrXe1zd3/yV7wH/ANxD/wBJ62w9SbqJNm+FqzlVSbf9I9cooor0j1wooooA5/wrp/8AZ/8Abf8AxI/7K+0arPP/AMffn/a923/SOvybsfc7Y96KPCun/wBn/wBt/wDEj/sr7Rqs8/8Ax9+f9r3bf9I6/Jux9ztj3ooA8v8Ahb/yTjSf+23/AKOetjxZ/wAibrn/AGD7j/0W1Y/wt/5JxpP/AG2/9HPWx4s/5E3XP+wfcf8AotqALnhD/kSdB/7B1v8A+i1rarF8If8AIk6D/wBg63/9FrW1XYtjzJbsKKKKBBRRWZ4g1u18PaJdajcyQr5UbtFHLKI/OcKWEak/xHHGAT7UAlfQ06K5y/8AGumafqEUMouXtWtJLpruK1mkjCL5ZBVlQhlKyZLA4XAB6irt7r9vZXksJCNHBDI80hmVNsgUOsQ3kKWKB3PzDaqgtgMDRdD5Wa1FcZo/xBtdev47WwjtC9xG7W8Ml6BNuVA/7xQpVVOQPlZ2HPy/K4TQ1DxlZafb2zPa332mZbaRrY2kpeFJpAg3lVYKw+b5c5JXA5IpcyHySvax0dFczJ43s/tq2trp2o3LnIJMaW+1gYxsIneNt376LHHPmDGecWRr982oWlp/wjt9EZmJdpri2BSMcFwqyksAzIDgcBu5wCXQuVm7RRRTEFFFFAHA6ld21j8X2ubu4it4E8PDdLM4RVzc4GSeByQKx774qR6hqtvo/hOz+3XdxIsa3NwjLCucEttA3kAbsn5cYzyKg8b+EIfFnxPaxa7mtnOjLcLJzIAwm2Y2k8DaTwCOefXPCv4O1jwbr1pdasLuDTlkCyalpkxHlK2FLbgpK434wVG7BA9a5Z/Ez0KXwI95+G3/ACUfx9/3Dv8A0S9eoV4J4J8Df2l418X2f/CVeJ7X7H9j/f2uobJZ98bH94235tuML6Amu7/4VZ/1Pvjn/wAHH/2FSaHoFFef/wDCrP8AqffHP/g4/wDsKP8AhVn/AFPvjn/wcf8A2FAHoFFef/8ACrP+p98c/wDg4/8AsKP+FWf9T745/wDBx/8AYUAegUV5/wD8Ks/6n3xz/wCDj/7Cj/hVn/U++Of/AAcf/YUAegUV5/8A8Ks/6n3xz/4OP/sKP+FWf9T745/8HH/2FAHoFFef/wDCrP8AqffHP/g4/wDsKP8AhVn/AFPvjn/wcf8A2FAHoFFef/8ACrP+p98c/wDg4/8AsKP+FWf9T745/wDBx/8AYUAYdp/yV7x5/wBw/wD9J66SuL8MaV/YnxH8a6d9vvr/AMn7D/pN/N5sz5hLfM2BnGcD2ArtK8rE/wAVni4v+M/66BRRRWBzBRRRQBjXPiXT7bX49IM8L3Bt5Z3SOTfKhTYQnlrliWVmYAc4Q4B7Q6T4u07U1lEnnWjx/aHP2mCSJfKhk2M+91Vf7pIzld2D0NU9evEj8R2jme7s44rea2e6jiUFZJDFIixiRSJSwiddsaucnGAeRmWmlHTPsv8Aa17qLXlzb3ey3mtI7i3Zpt00sLCJNzkbASMrvx8nBKjZQjym6hFxu9/+HNPVPHdno9lDNeQeXLPJMiRvOi+XtG5TKCQ67oyj7QjMNwXaWKhrmjeJf7Yjgkht4ZonuJbWWazuPPjjdV3A52g7CARuIU7iuAysGrjbqwePw9YaHGt2l6LgXFsG3Wayr5qOTFBHICxJBbaxXyssxMK7BXRaLdyDT9M0601BJ9QnmMt7IkssogWPaZUxOzOp+aOMqSGBkLbRginKEeXQqUIKOi1J4/HukPPOxS+FlFax3QuhYXBUoxfJI8vhQEBDHg5OPumprTxVJfGRbbw/qcjRMyuoltQylXZDkGbON0bgHodpxmsC38N6v5+o+Hxq9iIholrZtKdPfcYs3CDA87hgNxJ5ByOBjliXtg7XOl3+pw6HNb3l6Wu3vIobgpLNIwWJS2QGDKxLrjhCoJ2ujcIdAcIfZ1/r5HV2Wvma2vLu+sJrC0t5NizSSxyhgDtYt5bNs2sGDZ4AGSR821+l6xLf31xZzWT20tvCkjhmJyzSSxnbkDK5h3K3G5WBwKxhquk6h4eeybWrG2jgYWzDTXgmSdShCokTCThgCBHjdlSo3AZastjqVvey61c61q0FjcRpC0zx2wlijQsVklQw4VCZH7bkGC/BYRTyLUnkWvT7zuKKhs3SSygeO5+1I0albjKnzRjhsqAvPXgAc8VNWRiFFFFIQVzd3/yV7wH/ANxD/wBJ66Subu/+SveA/wDuIf8ApPW+G/io6cJ/GX9dD1yiiivVPaCiiigDn/Cun/2f/bf/ABI/7K+0arPP/wAffn/a923/AEjr8m7H3O2Peijwrp/9n/23/wASP+yvtGqzz/8AH35/2vdt/wBI6/Jux9ztj3ooA8v+Fv8AyTjSf+23/o562PFn/Im65/2D7j/0W1Y/wt/5JxpP/bb/ANHPWx4s/wCRN1z/ALB9x/6LagC54Q/5EnQf+wdb/wDota2qxfCH/Ik6D/2Drf8A9FrW1XYtjzJbsKKKKBBWL4sDy+F9Rs4oppbi9tpbWBIomfMjowXcQMKuerNhR3IraooYJ2dzz+6sm8SyXWpLqmry6UbJ4CLZbaQkTsvmxRlUO5Y1RclS5JyqtuVgwxtV1iTxArXd1ZPpyrLdW9gLaR0eNSGkuCybt3ynKACIouTGofd6BRS5S+c818LNHot3c3eq6mkNmq3F3aoLu6kE6lpHdk3vtmVUyciPcSd+MFXku6xpmuCzh1Wa9tobm7m0+Oa2mtvMMLC93xqHR1BCecFJx8wTOQWyO9opculg59bnn+pRyeHtcW91drS+TUo7qOV3VLW1VnW1RUcyu3ylYWJA3MRuwpwau6Jquk6fqccKeJNO1V77ZG0pvYzNG6rhEUFizRHkBcs4ZiSX3sy9nRT5dRc91ZhRRRTJCiiigDh7j/ks4/7F7/24rqq5W4/5LOP+xe/9uK6quWfxM9Cl8CM/4bf8lH8ff9w7/wBEvXqFeX/Db/ko/j7/ALh3/ol69QqTQKKKKACiiigAooooAKKKKACiiigAooooA8jtP+SvePP+4f8A+k9dJXN2n/JXvHn/AHD/AP0nrpK8rE/xWeLi/wCM/wCugUUUVgcwUUUUAFFFFABRRRQAUUUUAFFFFABRRRQAUUUUAFc3d/8AJXvAf/cQ/wDSeukrm7v/AJK94D/7iH/pPW+G/io6cJ/GX9dD1yiiivVPaCiiigDn/Cun/wBn/wBt/wDEj/sr7Rqs8/8Ax9+f9r3bf9I6/Jux9ztj3oo8K6f/AGf/AG3/AMSP+yvtGqzz/wDH35/2vdt/0jr8m7H3O2PeigDy/wCFv/JONJ/7bf8Ao562PFn/ACJuuf8AYPuP/RbVj/C3/knGk/8Abb/0c9bfieGS48J6zDDG8ksljOiIikszFCAAB1JoAs+EP+RJ0H/sHW//AKLWtqvOtB8cNpfh7TNPn8JeKWmtbSKBymnZUsqBTjLDjIrQ/wCFjJ/0KPiz/wAFv/2VdKnG2557pTvsdrRXFf8ACxk/6FHxZ/4Lf/sqP+FjJ/0KPiz/AMFv/wBlT549xeyn2O1oriv+FjJ/0KPiz/wW/wD2VH/Cxk/6FHxZ/wCC3/7Kjnj3D2U+x2tFcV/wsZP+hR8Wf+C3/wCyo/4WMn/Qo+LP/Bb/APZUc8e4eyn2O1oriv8AhYyf9Cj4s/8ABb/9lR/wsZP+hR8Wf+C3/wCyo549w9lPsdrRXFf8LGT/AKFHxZ/4Lf8A7Kj/AIWMn/Qo+LP/AAW//ZUc8e4eyn2O1oriv+FjJ/0KPiz/AMFv/wBlR/wsZP8AoUfFn/gt/wDsqOePcPZT7Ha0VxX/AAsZP+hR8Wf+C3/7Kj/hYyf9Cj4s/wDBb/8AZUc8e4eyn2GXH/JZx/2L3/txXVVw+k39xrvxNbVho2rWFomjG23X9qYsuJg2AckdD654NdxXPN3kzuppqKTM/wCG3/JR/H3/AHDv/RL16hXl/wANv+Sj+Pv+4d/6JevUKksKKKKACiiigAooooAKKKKACiiigAooooA4TWvhXp2s+I7/AFxde8QafdX3l+emn3ixI2xAi8bCTwO5PU1T/wCFP2v/AEOfjL/waD/4ivR6KTin0JcYvdHnH/Cn7X/oc/GX/g0H/wARR/wp+1/6HPxl/wCDQf8AxFej0UuWPYOSPY84/wCFP2v/AEOfjL/waD/4ij/hT9r/ANDn4y/8Gg/+Ir0eijlj2Dkj2POP+FP2v/Q5+Mv/AAaD/wCIo/4U/a/9Dn4y/wDBoP8A4ivR6KOWPYOSPY84/wCFP2v/AEOfjL/waD/4iqerfCuy07Rr6+fx34vt0treSZppL/zFjCqTuKKoLAYzgEE9Aa9TrP164+yeHtTuft32DybSWT7Z5Pm/Z8IT5mz+Lb1298Yo5Y9g5I9jzzSfhXZajo1jfJ478X3CXNvHMs0d/wCWsgZQdwRlJUHOcEkjoTVz/hT9r/0OfjL/AMGg/wDiK7fQbj7X4e0y5+3fb/OtIpPtnk+V9oygPmbP4d3Xb2zitCjlj2Dkj2POP+FP2v8A0OfjL/waD/4ij/hT9r/0OfjL/wAGg/8AiK9Hoo5Y9g5I9jzj/hT9r/0OfjL/AMGg/wDiKP8AhT9r/wBDn4y/8Gg/+Ir0eijlj2Dkj2POP+FP2v8A0OfjL/waD/4ij/hT9r/0OfjL/wAGg/8AiK9Hoo5Y9g5I9jzj/hT9r/0OfjL/AMGg/wDiKuaL8K9O0bxHYa42veINQurHzPITULxZUXehRuNgI4PYjoK7uimopbIFGK2QUUUUygooooA5/wAK6f8A2f8A23/xI/7K+0arPP8A8ffn/a923/SOvybsfc7Y96KPCun/ANn/ANt/8SP+yvtGqzz/APH35/2vdt/0jr8m7H3O2PeigDy/4W/8k40n/tt/6Oeuwrj/AIW/8k40n/tt/wCjnrqru6hsbOe7uX2QQRtLI+CdqqMk4HJ4FAE1Fcf/AMLS8G/9Bn/yVm/+Io/4Wl4N/wCgz/5Kzf8AxFAHYUVx/wDwtLwb/wBBn/yVm/8AiKP+FpeDf+gz/wCSs3/xFAHYUVx//C0vBv8A0Gf/ACVm/wDiKP8AhaXg3/oM/wDkrN/8RQB2FFcf/wALS8G/9Bn/AMlZv/iKP+FpeDf+gz/5Kzf/ABFAHYUVx/8AwtLwb/0Gf/JWb/4ij/haXg3/AKDP/krN/wDEUAdhRXH/APC0vBv/AEGf/JWb/wCIo/4Wl4N/6DP/AJKzf/EUAdhRXH/8LS8G/wDQZ/8AJWb/AOIo/wCFpeDf+gz/AOSs3/xFAHYUVx//AAtLwb/0Gf8AyVm/+Io/4Wl4N/6DP/krN/8AEUAdhRWDonjPw/4ivHtNKv8A7ROkZlZPJkTCggZyygdSK3qAM/4bf8lH8ff9w7/0S9eoV5f8Nv8Ako/j7/uHf+iXr1CgAooooAKKKKACiiigAooooAKKKKACiiigAorzjWPiTrVp4v1bQdH8H/2r/Znk+bP/AGmkGfMjDj5WX6jgnp2zUH/CxfGv/RN//K5D/wDE1DqQTs2Q6sIuzaPTqK8x/wCFi+Nf+ib/APlch/8AiaP+Fi+Nf+ib/wDlch/+Jo9rD+ZC9tT/AJl956dRXmP/AAsXxr/0Tf8A8rkP/wATR/wsXxr/ANE3/wDK5D/8TR7WH8yD21P+ZfeenUV5j/wsXxr/ANE3/wDK5D/8TR/wsXxr/wBE3/8AK5D/APE0e1h/Mg9tT/mX3np1eL/Gi313wpeW3jnwtez2UjbbXUhCoKSYBEUkibSrY3Mm584zGBzW1/wsXxr/ANE3/wDK5D/8TWfrnizxT4h0O90i/wDhpvtbuJonxrcBK56MuUIDA4IOOCAe1HtYfzIPbU/5l95hfCq68R/EzxYPEXiW6kn0zRUjFvbhdsD3QUgPs27C6gs5Iwys6YwuAPe68R8F6z4p8FeF7XRbP4deb5WXmnOswI00jHLMQF+gGckKFGTjNdB/wsXxr/0Tf/yuQ/8AxNHtYfzIPbU/5l956dRXmP8AwsXxr/0Tf/yuQ/8AxNH/AAsXxr/0Tf8A8rkP/wATR7WH8yD21P8AmX3np1FeY/8ACxfGv/RN/wDyuQ//ABNH/CxfGv8A0Tf/AMrkP/xNHtYfzIPbU/5l956dRXmP/CxfGv8A0Tf/AMrkP/xNH/CxfGv/AETf/wArkP8A8TR7WH8yD21P+ZfeenUV5j/wsXxr/wBE3/8AK5D/APE1Po/xJ1q78X6ToOseD/7K/tPzvKn/ALTSfHlxlz8qr9ByR174oVSDdkxqrCTsmj0eiiirLCiiigDn/Cun/wBn/wBt/wDEj/sr7Rqs8/8Ax9+f9r3bf9I6/Jux9ztj3oo8K6f/AGf/AG3/AMSP+yvtGqzz/wDH35/2vdt/0jr8m7H3O2PeigDy/wCFv/JONJ/7bf8Ao562PFn/ACJuuf8AYPuP/RbVj/C3/knGk/8Abb/0c9bHiz/kTdc/7B9x/wCi2oAueEP+RJ0H/sHW/wD6LWtqsXwh/wAiToP/AGDrf/0WtbVdi2PMluwooooEFFFFABRRRQAUUUUAFFFFABRRRQAUUUUAcPcf8lnH/Yvf+3FdVXK3H/JZx/2L3/txXVVyz+JnoUvgRn/Db/ko/j7/ALh3/ol69Qry/wCG3/JR/H3/AHDv/RL16hUmgUUUUAFFFFABRRRQAUUUUAFFFFABRRRQB5Haf8le8ef9w/8A9J66SubtP+SvePP+4f8A+k9dJXlYn+KzxcX/ABn/AF0CiiisDmCiiigAooooAKKKKACiiigAooooAKKKKACiiigArm7v/kr3gP8A7iH/AKT10lc3d/8AJXvAf/cQ/wDSet8N/FR04T+Mv66HrlFFFeqe0FFFFAHP+FdP/s/+2/8AiR/2V9o1Wef/AI+/P+17tv8ApHX5N2Pudse9FHhXT/7P/tv/AIkf9lfaNVnn/wCPvz/te7b/AKR1+Tdj7nbHvRQB5f8AC3/knGk/9tv/AEc9bHiz/kTdc/7B9x/6Lasf4W/8k40n/tt/6OetjxZ/yJuuf9g+4/8ARbUAXPCH/Ik6D/2Drf8A9FrW1WL4Q/5EnQf+wdb/APota2q7FseZLdhRRRQIKZNNFbwSTzyJFDGpd5HYKqqBkkk9ABT65/xxBJP4J1ny7qa32WU7t5QQ+YBG2Ubcp+U98YPoRQ9gSu7G6ZolnSAyIJnVnWMsNzKCASB3ALLn6j1oM0SzpAZEEzqzrGWG5lBAJA7gFlz9R615x4is9Qu9ekisbDX5NQi0y4jS4TUUjBkJjWKXCTKqKxjYldq7iCdh2nbqXKalqPim8gNvctDNYMoWezCrBvjA8kzMHidS3zPsUtuMY/eIjBZ5i+TzOpfWNMjubi2fUbRbi2jMs8RnUNEgAJZhnKrgg5PHIq1LNFAgeaRI1LKgLsACzEKo57kkAepIryv4dwyyapb28d081rp7Tskazl4FTc0Kun+iqjE7D8yyAt+8bHzSKZ9aexdbdY4taj0mJdOhsBbm5MRVLxkdgYiVYlFjKMTuIKFeSKFLS43T1seoUx5ooniSSREaVtkYZgC7YLYHqcKT9AfSvMk0mw1DxHcSXUTrapDdSW1xrVu8pSONbI5YXPzGMO03cYDPtK5zW7oOlaTcaus03hvTtLmijWW1t/sUYaT7pM4cqGG1vlC4VlyC4BdQpzCcEkdnRRRVEBRRRQB5xr+tadoHxY+3apdJbW40AJuYEksbjgAAEk9TwOgJ6CuN8R/Ge9ud0Hh+2+xx/wDPzcKHlPQ8Lyq/xDndkHsa7vUrS2vvi+1td28VxA/h4bopkDq2LnIyDweQDXN+I/gxZXO6fw/c/Y5P+fa4YvEeg4bll/iPO7JPYVyz+JnoUvgRN8KfHfhrwpq/iKTW/EUs32yOy2XUsc0xmdI28znZuwGbA3AHGOtenf8AC7fh5/0MP/klcf8Axuud+C8mpy+KPGTazB5GoiPTluE3q2WETjdlePmxuwOmcdq9iqTQ8/8A+F2/Dz/oYf8AySuP/jdH/C7fh5/0MP8A5JXH/wAbr0CigDz/AP4Xb8PP+hh/8krj/wCN0f8AC7fh5/0MP/klcf8AxuvQKKAPP/8Ahdvw8/6GH/ySuP8A43R/wu34ef8AQw/+SVx/8br0CigDz/8A4Xb8PP8AoYf/ACSuP/jdH/C7fh5/0MP/AJJXH/xuvQKKAPP/APhdvw8/6GH/AMkrj/43R/wu34ef9DD/AOSVx/8AG69AooA8/wD+F2/Dz/oYf/JK4/8AjdH/AAu34ef9DD/5JXH/AMbr0CigDxPwxreneI/iP411bSbj7RYz/YfLl2Mm7bCVPDAEcqRyK7SubtP+SvePP+4f/wCk9dJXlYn+KzxcX/Gf9dAooorA5gooooA5C58YzjSfEV3Z6fcTNprERB7Zodq/Z1k3SCUoSA27IX5tpU45BNq98XRW+lXcjxf2deR3H2KNNReNUE5iEil2VyoTawY/NnAIALYBybzSbrWbjU7O4sr61/tKZJhi4kQRQmOOKXzTGfKZsRHYu6TlxuULuqa60VjBqWm2dhrMUs80TyzLfCWK5UhgpZ5y/wAuEUSKELY2jDrjO9oHTyw0/rsGs+MtQttVNhZ6dcKphE8Mw064uHlXZkr5WI9pBKKTvOC6AgZbZsvrd3Z2b3l5YO8DrbeQtvw5klYIYsSFTlWKncwTh8YBU55DV/D0mratHcSaV9mNlGIrplsku5JE/d5fzJkPnnahChQXC5LHcfJbpm03+3JGhjN3p2m2kcCWixR+SS4aOYPsdSuF2RKuVyD5qkdKGo2QSjBJfiZ8njm8tdGmvLjQbgSLNdpGXliSJvJMrFSVd2DbIW527Sw4IBBrQfXtYS2uLhtP0kJbyGKUf2jNuV8gBdv2fcScrtAGW3LtzuGcY+FL688Lagkl9qM9ykmpG2tZlhjV5HM8asSI1PzCQt94L82RgYFTNdw39yuqXkeo22qRY+zC30m7kjhwGHzZiUy5DuDkDaHITacuzcY9F+YOMHsvzNy41LVbLS7SO4trdtXnVgiQMWgllRS/lhm2lS6K+CQQuDknADXdHvpdQspJpVRWW6uYQEBA2xzPGvXvhRn3zWNdyR6ulrKtjrL30sI/dQ3N1Zwx8kEux8sYDf7JkK4IQjFQafoEeg3UEdzJqdxHJN5kU8F1dMglZtzLJEHYBSxJDNkYyHORukiyt5kOMeXzOvooorIxCiiigArm7v8A5K94D/7iH/pPXSVzd3/yV7wH/wBxD/0nrfDfxUdOE/jL+uh65RRRXqntBRRRQBz/AIV0/wDs/wDtv/iR/wBlfaNVnn/4+/P+17tv+kdfk3Y+52x70UeFdP8A7P8A7b/4kf8AZX2jVZ5/+Pvz/te7b/pHX5N2Pudse9FAHl/wt/5JxpP/AG2/9HPWx4s/5E3XP+wfcf8Aotqx/hb/AMk40n/tt/6OetjxZ/yJuuf9g+4/9FtQBc8If8iToP8A2Drf/wBFrW1WL4Q/5EnQf+wdb/8Aota2q7FseZLdhRRRQIKq32n22pQLBdq7whtxjEjKr8EbXAI3qQTlWyp7g1aooAybTw5Y22nvaSB7jzFRGlfaj7U/1YXywoQJ1XYF2n5h8xJMEvhLTbi0EVybm5nEKwrdXMxlkXChSy7sqCwHzgLtfkMGBIrdoosh8zMU+HUEcqw6nqMDzxulzJHKu6dmUgSElTtdc8FNuMKuNqqou3Ol2tzYQ2QTybeCSGSNIQFC+U6uigYwFygGPT0q7RRYLsydZ8PWutT2dxK7w3VmxaCdI43ZMkE4EiMoOVU7gNwxwRk5jTQrn7Tbzz6/qNx5EgkRJYbXGcEHkQgjILDIIOCea2qKLBzMKKKKBBRRRQBw9x/yWcf9i9/7cV1Vcrcf8lnH/Yvf+3FdVXLP4mehS+BGf8Nv+Sj+Pv8AuHf+iXr1CvL/AIbf8lH8ff8AcO/9EvXqFSaBRRRQAUUUUAFFFFABRRRQAUUUUAFFFFAHkdp/yV7x5/3D/wD0nrpK47VLvUdA+KXi28bwx4g1C1v/ALH5E2n2DSodkADfNwOpxxnoam/4TS6/6Ebxl/4KT/8AFV51elOVRtI8rE0akqrcVodXRXKf8Jpdf9CN4y/8FJ/+Ko/4TS6/6Ebxl/4KT/8AFVl7Cp2MPq1X+U6uiuU/4TS6/wChG8Zf+Ck//FUf8Jpdf9CN4y/8FJ/+Ko9hU7B9Wq/ynV0Vyn/CaXX/AEI3jL/wUn/4qj/hNLr/AKEbxl/4KT/8VR7Cp2D6tV/lOrorlP8AhNLr/oRvGX/gpP8A8VUc/jyW1t5bi48GeL4YIkLySSaWVVFAySSWwABzmj2FTsH1ar/KdfRXIQePJbq3iuLfwZ4vmglQPHJHpZZXUjIIIbBBHOak/wCE0uv+hG8Zf+Ck/wDxVHsKnYPq1X+U6uiuU/4TS6/6Ebxl/wCCk/8AxVH/AAml1/0I3jL/AMFJ/wDiqPYVOwfVqv8AKdXRXKf8Jpdf9CN4y/8ABSf/AIqj/hNLr/oRvGX/AIKT/wDFUewqdg+rVf5Tq6K5T/hNLr/oRvGX/gpP/wAVR/wml1/0I3jL/wAFJ/8AiqPYVOwfVqv8p1dc3d/8le8B/wDcQ/8ASeoP+E0uv+hG8Zf+Ck//ABVQ6Xd6jr/xS8JXi+GPEGn2th9s8+bULBokG+Ahfm5HUY5x1Fa0KU41E2jfDUakaqcloe00UUV6J6oUUUUAc/4V0/8As/8Atv8A4kf9lfaNVnn/AOPvz/te7b/pHX5N2Pudse9FHhXT/wCz/wC2/wDiR/2V9o1Wef8A4+/P+17tv+kdfk3Y+52x70UAeX/C3/knGk/9tv8A0c9bHiz/AJE3XP8AsH3H/otqx/hb/wAk40n/ALbf+jnrqru1hvrOe0uU3wTxtFImSNysMEZHI4NAEPhD/kSdB/7B1v8A+i1rargf+FW+Df8AoDf+TU3/AMXR/wAKt8G/9Ab/AMmpv/i62VXyOV4a7vc76iuB/wCFW+Df+gN/5NTf/F0f8Kt8G/8AQG/8mpv/AIuj23kH1bzO+orgf+FW+Df+gN/5NTf/ABdH/CrfBv8A0Bv/ACam/wDi6PbeQfVvM76iuB/4Vb4N/wCgN/5NTf8AxdH/AAq3wb/0Bv8Ayam/+Lo9t5B9W8zvqK4H/hVvg3/oDf8Ak1N/8XR/wq3wb/0Bv/Jqb/4uj23kH1bzO+orgf8AhVvg3/oDf+TU3/xdH/CrfBv/AEBv/Jqb/wCLo9t5B9W8zvqK4H/hVvg3/oDf+TU3/wAXR/wq3wb/ANAb/wAmpv8A4uj23kH1bzO+orgf+FW+Df8AoDf+TU3/AMXR/wAKt8G/9Ab/AMmpv/i6PbeQfVvMmuP+Szj/ALF7/wBuK6qsHRPBnh/w7ePd6VYfZ53jMTP50j5UkHGGYjqBW9WUnd3OiMeWKRn/AA2/5KP4+/7h3/ol69Qry/4bf8lH8ff9w7/0S9eoUigooooAKKKKACiiigAooooAKKKKACiiigAooooAKKKKACiiigAooooAKz9euPsnh7U7n7d9g8m0lk+2eT5v2fCE+Zs/i29dvfGK0Kz9euPsnh7U7n7d9g8m0lk+2eT5v2fCE+Zs/i29dvfGKADQbj7X4e0y5+3fb/OtIpPtnk+V9oygPmbP4d3Xb2zitCs/Qbj7X4e0y5+3fb/OtIpPtnk+V9oygPmbP4d3Xb2zitCgAooooAKKKKACiiigAooooAKKKKACiiigDn/Cun/2f/bf/Ej/ALK+0arPP/x9+f8Aa923/SOvybsfc7Y96KPCun/2f/bf/Ej/ALK+0arPP/x9+f8Aa923/SOvybsfc7Y96KAPHfhx4h0Sx8A6ZbXesafbzp5u6Ka5RGXMrkZBORwQa6r/AISzw3/0MGlf+Bsf+Ndx/wAIJ4P/AOhU0P8A8F0P/wATR/wgng//AKFTQ/8AwXQ//E0AcP8A8JZ4b/6GDSv/AANj/wAaP+Es8N/9DBpX/gbH/jXcf8IJ4P8A+hU0P/wXQ/8AxNH/AAgng/8A6FTQ/wDwXQ//ABNAHD/8JZ4b/wChg0r/AMDY/wDGj/hLPDf/AEMGlf8AgbH/AI13H/CCeD/+hU0P/wAF0P8A8TR/wgng/wD6FTQ//BdD/wDE0AcP/wAJZ4b/AOhg0r/wNj/xo/4Szw3/ANDBpX/gbH/jXcf8IJ4P/wChU0P/AMF0P/xNH/CCeD/+hU0P/wAF0P8A8TQBw/8Awlnhv/oYNK/8DY/8aP8AhLPDf/QwaV/4Gx/413H/AAgng/8A6FTQ/wDwXQ//ABNH/CCeD/8AoVND/wDBdD/8TQBw/wDwlnhv/oYNK/8AA2P/ABo/4Szw3/0MGlf+Bsf+Ndx/wgng/wD6FTQ//BdD/wDE0f8ACCeD/wDoVND/APBdD/8AE0AcP/wlnhv/AKGDSv8AwNj/AMaP+Es8N/8AQwaV/wCBsf8AjXcf8IJ4P/6FTQ//AAXQ/wDxNH/CCeD/APoVND/8F0P/AMTQBw//AAlnhv8A6GDSv/A2P/Gj/hLPDf8A0MGlf+Bsf+Ndx/wgng//AKFTQ/8AwXQ//E0f8IJ4P/6FTQ//AAXQ/wDxNAHD/wDCWeG/+hg0r/wNj/xo/wCEs8N/9DBpX/gbH/jXcf8ACCeD/wDoVND/APBdD/8AE0f8IJ4P/wChU0P/AMF0P/xNAHD/APCWeG/+hg0r/wADY/8AGj/hLPDf/QwaV/4Gx/413H/CCeD/APoVND/8F0P/AMTR/wAIJ4P/AOhU0P8A8F0P/wATQBxPwsu7a+8feO7m0uIriB/7P2ywuHVsRODgjg8givVqz9M0HR9E83+ydKsbDzseZ9kt0i34zjO0DOMnr6mtCgAooooAKKKKACiiigAooooAKKKKACiiigAooooAKKKKACiiigAooooAKr38Nxcadcw2d19kupInSG48sSeU5BCvtPDYODg9cVYooA5/+yPEX/Q0f8wr7L/x4R/8fn/P31/8hfdo/sjxF/0NH/MK+y/8eEf/AB+f8/fX/wAhfdroKKAOf/sjxF/0NH/MK+y/8eEf/H5/z99f/IX3aP7I8Rf9DR/zCvsv/HhH/wAfn/P31/8AIX3a6CigDn/7I8Rf9DR/zCvsv/HhH/x+f8/fX/yF92j+yPEX/Q0f8wr7L/x4R/8AH5/z99f/ACF92ugooA5/+yPEX/Q0f8wr7L/x4R/8fn/P31/8hfdo/sjxF/0NH/MK+y/8eEf/AB+f8/fX/wAhfdroKKAOf/sjxF/0NH/MK+y/8eEf/H5/z99f/IX3aP7I8Rf9DR/zCvsv/HhH/wAfn/P31/8AIX3a6CigDn/7I8Rf9DR/zCvsv/HhH/x+f8/fX/yF92j+yPEX/Q0f8wr7L/x4R/8AH5/z99f/ACF92ugooA5/+yPEX/Q0f8wr7L/x4R/8fn/P31/8hfdo/sjxF/0NH/MK+y/8eEf/AB+f8/fX/wAhfdroKKAMfw34et/DmnSQxN5l1dSm6vrjBH2m5YASS7ckJuIztXgdqK2KKAP/2Q==;fillColor=#F2CC8F;strokeColor=#E07A5F;fontColor=#393C56;" parent="1" vertex="1">
          <mxGeometry x="340" y="787.25" width="158.71" height="144.5" as="geometry" />
        </mxCell>
        <mxCell id="p264wFBTw7rObvd8C1Ne-1" value="主从复制" style="text;html=1;align=center;verticalAlign=middle;resizable=0;points=[];autosize=1;fontColor=#393C56;" vertex="1" parent="1">
          <mxGeometry x="210" y="970" width="60" height="20" as="geometry" />
        </mxCell>
        <mxCell id="p264wFBTw7rObvd8C1Ne-2" value="" style="shape=image;verticalLabelPosition=bottom;verticalAlign=top;aspect=fixed;imageAspect=0;image=data:image/png,iVBORw0KGgoAAAANSUhEUgAAAt0AAAGQCAYAAAByGdzdAAAABGdBTUEAALGPC/xhBQAAACBjSFJNAAB6JgAAgIQAAPoAAACA6AAAdTAAAOpgAAA6mAAAF3CculE8AAAABmJLR0QA/wD/AP+gvaeTAABHCklEQVR42u3dfVxUZf7/8fegpiijZjerdLPebWiYJpNRpHmTa1mxWoaWotummVHeZaalq9Kqlaa23aC5av1Krc3txsibypvU0qhGzSSlRe1rLpoVqcMqm8L8/phhmIHhbuAwZ+D1fDx8PGDmfM65zpnD8c3Fda5jcTqdTtUgDodDVqs1pGqzsrIUGRkZUm1mf9lf9pf9DZU2s7/sL/tbO/fXbMKC3QAAAACgpiN0AwAAAAYjdAMAAAAGI3QDAAAABqsb7AYguLp3766cnJxgNwNuERER2rJlS7CbAQAAqpjFzLOXOByOYDeh2vYzWHfm9ujRQ/aFi4J9COBme3CUPvnkk2A3o1Jq0p3m7C/7y/7WbOxvzREK+2Xqnu5ADmAoTmkTzFqYj/fnGarnFbXUUksttdQGu9ZsGNMNAAAAGIzQDQAAABiM0A0AAAAYjNANAAAAGIzQDQAAABiM0A0AAAAYjNANAAAAGIzQDQAAABiM0A0AAAAYjNANAAAAGIzQDQAAABiM0A0AAAAYjNANAAAAGKxusBtQGofDUa11tbEW5lP08wzF84paaqmlllpqq7PWarUGvP7qYurQHcgBdDgcAR/42lgL8/H+PEP1vKKWWmqppZbaYNeaDcNLAAAAAIMRugEAAACDEboBAAAAgxG6AQAAAIMRugEAAACDEboBAAAAgxG6AQAAAIMRugEAAACDEboBAAAAgxG6AQAAAIMRugEAAACDEbpRrQ69ea2e+v481zcHl+jyf/6nzOXv33GmajZ+cIlsD47y3ablV21acEdhm4zYLgAAqPXqBrsBQElytyfrri0xksbL9lrx9+uevllLlw9Qh7x8V3ief58mfve7Etf3U4+/6vDCEb4vntqlVOcTmtHqrOQsfLnVbU+ryUNLtbrDOPWzngv2oSiRw+HQli1bdPvttwe7KQAAoBQWp9PprIL1GCIrK6vCNVarVQ6HI6DtBau2Mirb5h49esi+cFG1tffQm9fqzet26/GWv7l6ur/sq8ODLim2XO72ZHVbdpGui/lCkbeudC1fICxDKYlPadeDC/WP68P9bid3e7JueP2o7pq0zLe2pPa0/kYpiU9paaMGJS4bM2xBidurKrYHRyk1NdXzvb/PNzs7W7t27dL27dv1xRdfSJJPTWm15RWq5zP7y/6yv+wv+1s79zcyMrLaj0lFmbqnO5AD6HA4Aj7wwarNysoKWpsN59ikifef0J9X3eXqkS6Ju6c67Y41Gp81RVf8MEKHl1wiKUmH3rxal6e9q8ODLtGhN6/V3ese19IVrynJ3/oOLpFt7leKGbZA9oXhkn7zWf8Yy1R9Nv4aNXE6JccmPZ/1kma0Pq5N8ybr5JNrZG/5m3K3J+uaL24vXK6aeX+eBZ/vjz/+qK1bt2rt2rXas2dPqTVFawP62EL0fGZ/2V/2l/1lf9lfszJ16EYN0Liz+sbep9QDd6tDKT3OOrVL69KG6s+PnlODltN1uOB1y686dPQSXfTd32T7RJJiSjxpC3q3JWnna8WHpNw1aY32tvxNcgfpQ2sm6+I7d6vJyfXaFevuTXds0l+fv0pvruqiJnn5yt2erNGWxwzv4fbn8OHD2rFjhz7++GPt2rXL87r3H6csFku1twsAAFQcoRvGcp6vXv1u071ph/R4y0tKXCz3m206MfYxdcj/RZsWFI7NDjvbUVMXpMruPa46LEMpQ4bpz+6hID/1+KsOD7pEDeKmyx7ntVJ3r/ddk5bp8abHdfJ8r3HbYRlat/ZK/WvLfVoRdb8+G99QsuzXwvv3qus/HlGHPNf2GtwwRvc8m6LVHSZVy9hup9Opf/7zn3rvvff03Xff+bzurWjYttlsldruBRdcoGXLlunSSy81fB8BAKiNCN0wXttuevyRHdo7eKAa+Xvf8qu274jQ7SOtkjNcvca/K7v3+2HpWvinb9QtdaBriEp+lJJee1VJJayr4IbKwhsnf5PCftSKxHE6+aS7R7tgHSdO6OT556uJ06lDbwzVkvNjpMdG6Mkiq/3f0jT1qKbhJnv37tXJkyer9SP65ZdfdOjQIUI3AAAGIXTDePlRuuXuoXrzwGDd7e/9A29rTJ0e+qxxnqsn2t9MJC2kJSM3+JT9L+p+n3HXhcNLXHUXfVIwJMWtUQPpmft0sOCGSHdPeIG7Ju2W/Z4ftenZZXKMnKR+Py3y3OiZuz1Zo7dfafgwE4vFor/97W+SJLvdrjVr1shut+vIkSOeZZxOp6fnu6DH2263F1uXw+GQ1Wotc5sjR470Ww8AAKoOoRvVotW1I7Uw7ZDf0H3oi8Ua0n+3mjjdY76d5/v0dvsdVx2WoRef8e0NLja8pOhsKSoI9IP1VIs1uvuLxfpf1EKv4O5axpJ/qdo0zZd+8l33P6r5mNlsNl1xxRWyWq06ePCgVq1apc8//1yHDx+ugrUDAIDqxMNxUD1aj/A7NaAktbr7i5Kn9XPf2Di2a5GBKSf/owN1LH6Xf3TYi1rtKPL75MEl6vCcXSfVTL3Gv6vHW/6mVnd/ob3jbGpi2a+UYfe6HpBzapfer9Nal+U7i6139BtHFCytW7fWpEmT9O6772r9+vW699571b59+6C1BwAAVAyhG6Z16M1rFfvwSf/TDf50UG9fEukzxjp3e7K6jN+vbi/5eaBN6xHa+6dd6jXqgcInTYZlKGXYvYod+q1uXPGaHr9gvR596Fv1uP/64mO3fzqo1WHmmCnkoosu0ujRo7V8+XJ99NFHuu+++4LdJAAAUAaGl8A4fp8SGSNtuU//cn93kb7yGXf9v6j7ldZ/j258Jk13TdqttLt/k9yB+9Cb17qfUOma1eSFBb+XdM7zXnfLu665vcPSPQ+6qXv6cS0dck7KcwVv+6IB2jR/sGZd8pyajflGN6a65vs+tOIaxa57XEtXjPHMXKK23TR5xhTZPnHNkvLgpKTCeb9N4oILLtBDDz0U7GYAAIAyELphnCJjs8vPJvvCvxQLuK3u/kJ2n0Hh53ze84x0Ljq7iXcvubtNvSTpvd973mt19xdKu7vIssVmSTFX4AYAAKGD4SUAAACAwQjdAAAAgMEI3QAAAIDBCN0AAACAwUx9I6XD4ajWutpYC/Mp+nkafW7k5eVJks6cOeOzfCiez9RSSy211NbO2vI8gTnYTB26AzmA5X30NbWEdbPy/jyr49yoU6eOJCk8PNyzfKiez9RSSy211FJrVgwvAQAAAAxG6AYAAAAMRugGAAAADEboBgAAAAxG6AYAAAAMRugGAAAADEboBgAAAAxG6AYAAAAMRugGAAAADEboBgAAAAxG6AYAAAAMRugGAAAADEboBgAAAAxWN9gNKI3D4ajWutpYC/Mp+nkafW7k5eVJks6cOeOzfCiez9RSSy211NbOWqvVGvD6q4upQ3cgB9DhcAR84GtjLczH+/OsjnOjTp06kqTw8HDP8qF6PlNLLbXUUkutWTG8BAAAADAYoRsAAAAwGKEbAAAAMJipx3QDIeHaLlW2Krvd7vN9Zcaxlbd28eLFAdf6ExkZaXibq7oWAACj0dMNAAAAGIzQDQAAABiM0A2EiHzt1KLGC5RWjmUz51qUuPpU+VacvUrjRqzXMUlOHdeGpBay2WzF/pW2vpzURLUf+aGOBbBfmXMtmrqn/Otw6rg2PjBKK38x9ngDAFCVGNNdy0VERMj24KhgNyOkFYzDzklNVPcZ+yRJ9X8dpgUHxyo2wHVmzrVo0Jsxxd/4gyTb8mIvn7bN1ubFN6u5ux2u2p6yPVl8FWW1zZLXTxM+WqTBF3i9mD5diZklt7dR/Hy9sK6TXtxzVDM7BrbPudc/p32tX1DE0y2VMznK7zFoP22zXu8X4EEFACCICN213JYtWwKqq8xk9VlZWQHfbOdvuzabTfJzE2JVtrnM2uxVeiHvJdntTSR3aL766VuUMzkqoO21neiUfaLva/naqcWNt6jzqfElBuac1ETdNPlCxfY+rWbD9/kE4Hzt1KJ2Q7V9wV889d7Bdpttiq6YsVzD66zWvD5fal6RdbefNsGzjYJfLnxFSmk2rStWt1nL+zUupS5GerOwLkofKEIrlTPZqa8mHtemB6bpx9mFvwQ4lRvQMQUAIJgI3UBVaJagx/sXftu83RBdlvq9jilKzQNcZUFIXtqoQeGLRXq66+Z209itz2nwBa4w3Dz9r8pJdwX9zLkWRazd7+k1HrbwOS04mK4kr220neiUffgqjXvMqslLbtHvdFybPii9pzsifrns8YWvR6QO9vxy4VTxkOytIIB7y0lN1NO/X15mD3mx49HH5vnFwPs4AABgRoRuoIo5dVyfr9uoAQ8vDzhwF8iPe1ZrlvVVcz893Z6A6142In65cuIL2/D9oeaKShss2ypJilH9Mra1e36EtvY5ol5l9HR7pE9XXHwzbTxY2Jtv0cXq+fJIvXz5aK3c9UK5Q/D3h05JHRtL2av0WIf/aEDWuGK9+WGKUdL+dI0qchzytVMvX/6KQZ8mAABVg9ANVJGC4ROuXtejmlmJXlenjmtT0m165etIvWKbWviGnzHd7T89pXv65WpjUidNSnMN2ylog92rDa6e4mgluXuKMxJWunrBlw7Utl0xihiTo9kdJKUclb2sBroD96SXvtYLq08p1qv3+uBcmzYv+kA9bojW1LfSfXqw9z3pO8687yt2TfY+hp+tVtbClAqPhbecaK029HIDAEyM0A1UkYJhF04d18akFoq4/JOAx3RbdLF6Fwm//sZ056QmalR+ycsv8lq+oKe4YHhJwUwlO25LVbfOdfVQx5+0IamjJ7j7c9o2W1uecejZP56vBVlj1UU7dbTxUqUVtCl7lRYvWKAJWbcp9rrTeqzDc0rz6rUuGF7iOkad9ImkiNZt9F7qUanbh3rygWs0OquxShOWfUD7B7ZXfwEAEDpMHbodDke11lEb2rXlWacR2y16g6VFF6v3zOf1YOxLWnn/8wGNM67Y7CU91X7NbG1aHKP0oqHZz/KFM524gnrv7FUa965VFl3kE9xLu3FzTlbBVzEatWO1Ip7O8PSaZy086Vq+WYLXci4tW/kJ1C06aETmIa1/9S/KWphVdi/30b1a0nawnqvg51QWs53P1FJLLbXUlr82FJ5KbOrQHcgBNHSGCmpNXVvWOqu7zZb/Bj7kobyzl7h6ulM8Nye28ArNRd8rWEfKfT+WuF2njmvziNfUaMmj6iIpP3KJkrxCe99X7MVveIxO1u61FtlsMTptW6/NE/33VP/4bX1dGed1fPL66cpLJGez7rr9vE4avf9tbX6ksc9+XivJ6TXG/Ob/t1G9UhZr3KjkEveB6wa11FJLLbVmZOrQDYSKnPdn6v0bpmrwBe7hJVPHKGXMJ5oT4PoKhl8UG+rhb0z3ND8ryF7ld6hGWPYBZYaVfPGyZG/Rui2H1fkXqcsFUljWCKWUMkVhwbYWvt5RqlfyIvnaqY9ndVDnSQX7d0TfraunJrMlS/pLmpQWqR8SWrpuPHUPH4mZZ9E1K2N02vaqNttdc5BnzrUo/tx6bfYK/mHZB3QwwqLOVfyZAgBQlQjdQBVo9KeRujiphWzukJyRUDieuzzzaxdV0THd3jzTA/qZAaSsoRmZSweqzuq9OnFDtO6eP0e9Smtk+nTZhn3gftjO167ZTrJXaULHTlp73RzPw3okKSx9tR59YrBysldpQo+Z+qReXWUkrVTOsemKHXhS4z97Vaeuu1NTb03XzDruNk5wyu41YUpOaqKGLXxOrx682XdWmKN7lXp7nB4JyicPAED5ELqBKuAvJBcIc497jo0eF9hc0u5wK0mn756tzV5vRcQv1/Iiy/V9xantXkNTvMeH183tpsVbo4q9137aZuXMtWjGFSe1/MrG0v509Zlr0aA/xPj0rGckrNSx6L+p+4x9rtlP7EWGeTRL0Lw9CZrnDt+f1Kur9tM2K3n/ES2+P0pqFqV5exI87Y0deNJ1TJpK+ftf16J20bI1aqBxr/iuN3OuRfH/Xq/NBwufuun9oJ0BryRXenpGAACMZHE6nc5gN6IqheKYo6p+QqPZa2vkEynLI3262v89zqcHGOZgpvPZ7LXsr/nbzP6yv+yvOdHTDVSX6GTtWxzsRgAAgGAIC3YDAAAAgJqO0A0YLCsrK+Da6pgTdeTIkbLZbNq2bVuVbNfs+wsAQDAQugEAAACDEboBAAAAgxG6AQAAAIMRugEAAACDEboBAAAAgxG6AQAAAIOZ+omUgUw9ZrVaA546LFi1lcH+SvHx8ZKk1NTUWrG/VV37xBNP6JtvvtG0adPUpUuXGr+/VV3L/pq/zewv+8v+1vz9DfRJm9XJ1KE7EKH4mNLa9ljW2vYYeLN/viNHjpTdbtdzzz2nbt261fj9repa9tf8bWZ/2V/2t3bur9kwvAQAAAAwGKEbAAAAMBihGwAAADAYoRsAAAAwGKEbAAAAMBihGwAAADBY3WA3AKGpMtP3VGYuTX/bLWuqwKpoc02ZrggAAAQHPd0AAACAwQjdAAAAgMEI3TCX7FUaN2K9jkly6rg2JLWQzWYr9i9x9akSV5GTmqj2Iz/UsQpsNl87tajxAqWVY9nMuZZStw8AAFAUY7pRaTmpibpp8oUau/U5Db6gatdtyeunCR8t8l1v+nQlZpZc0yh+vl5Y10kv7jmqmR2Lv58516JBb8YUf+MPkmzLi7182jZbmxffrObufXXV9pTtyeKrqP/rMC04OFaxxh5yAAAQYgjdCFz6dNmGfSBJqqtulV6ddxjeZpuiK2Ys1/A6qzWvz5eaV2TZ9tMmSO4Q3H3GPj9ri5TSbFpXrG6zlk90yj7R9/V87dTixlvU+dT4EgNzwS8Xsb1Pq9nwfT6BPl87tajdUG1f8BcCNwAAKIbQjcBFJ8tuT1a+durly1+p9OraTnTKPnyVxj1m1eQlt+h3Oq5NH5Te0x0Rv1z2+MLXI1IHK2dylOQenrLpgWn6cfaiYj3wBSF5aaMGhS8W6emum9vN03ufk5qo5ul/VU66a92Zcy2KWLtfOZOjlDnXomELn9OCg+lKCvZnAgAATMnUodvhcFRrHbXlZ/QUervnR2hrnyPqVUZPt0f6dMXFN9PGg1Gelyy6WD1fHqmXLx+tlbteKB68457VmmV91dxPT7cnsLuXjYhfrhx3uHfquL4/1FxRaYNlWyVJMapfxvE18+ebl5cnSTpz5ozP8mZuM7XUUksttdR6C4WpfU0dugM5gA6HI+ADT23wZS4dqG27YhQxJkezO0hKOaoyZ+F2B+5JL32tF1afUmy/xp63Ds61afOiD9TjhmhNfStdMzu6A3XSbXrl60i9YptauB4/Y7rbf3pK9/TL1cakTpqU5ppf3NUDflR2rxDv6jmPVpK75zwjYaVyJkfJarWa/vOtU6eOJCk8PNyzvNnbTC211FJLLbWhxtShG7WHU8e1MamTdtyWqm6d6+qhjj9pQ1JHT9D157RttrY849CzfzxfC7LGqot26mjjpUorGJedvUqLFyzQhKzbFHvdaT3W4TmlZY1TrC5W7yJh3t+Y7pzURI3Kd/WY+1t+kdfyYYpR0n6GlwAAAP8I3TCFgmDbO3uVxr1rlUUX+QTd0m50nJNV8FWMRu1YrYinM1xjrZcOVNbCk67lmyV4lqvY7CU91X7NbG1aHKP0or8E+Fnee6YTAACAAoRumJZTx7V5xGtqtORRdZGUH7lESV4ht+8r9uJTAkYna/dai2y2GJ22rdfmiY2LrbdtOWcvcfV0p2i5e7hKC69fAoq+V7COlPt+FAAAQFGEbpiWJXuL1m05rM6/SF0ukMKyRiillCn9JNeQkoWvd5TqlbxIwVCWYkNX/I3pnuZ/G08+cI1GZ/kG+rDsA8oMqxnjzgAAQNUidCNwXvN06yJJfWya5+6BfrJj2fNelyVz6UDVWb1XJ26I1t3z56hXOdriejjN167ZTrJXaULHTlp73RyfIR+WCo7p9mlTwfSAWeOK79fRvVrSdrCeC/bnAgAATIfQjcC55+n2zzW+OjZ6XLmfVFkw1rr9tM3KmWvRjCtOavmVjaX96eoz16JBf4jx6YnOSFipY9F/U/cZ+1yzhRRtS7MEzduToHnu8P1Jvbquh+N4DQnx/sXh9N2ztdmrPCJ+uZYXWa7vK05tn1i8zXLParJ4a5QAAACKInTDONHJSntruto//qF6lePmQt+x1k4tL/E9b14PxymJO3yX1MaSf3Eoe7mS2wUAAFCI0A1jRSdr3+JgNwIAACC4woLdAAAAAKCmI3QjIJV5nGtWVlbAtf62a7PZZLPZDG1zZWoBAAAI3QAAAIDBCN0AAACAwQjdAAAAgMFMPXtJoONogzV2l9rg1pZnnWZrsxlq8/LyJElnzpzxWd7MbaaWWmqppZZab1ar+Z8IberQHcgBdDgcAR94akO7tqx1mrHNZqitU6eOJCk8PNyzvNnbTC211FJLLbWhhuElAAAAgMEI3QAAAIDBCN0AAACAwQjdAAAAgMEI3QAAAIDBCN0AAACAwUw9ZSDgz0cffaTt27d7vnc6nZKkGTNmeF6Li4tTnz59gt1UAAAAidCNUNSkSROlpqZ6vrdYLJLk81rfvn2D3UwAAAAPhpcg5NhsNjVt2lRy93J7/5Okpk2bymazBbuZAAAAHoRuhJy6deuqR48enu8tFount1uSevToobp1+SMOAAAwD0I3QlL37t1LfO+mm24KdvMAAAB8ELoRkmJjYxUeHi6LxeIZWmKxWBQeHs7QEgAAYDqEboSk+vXrq2fPnsVe79mzp+rXrx/s5gEAAPgw9cBXh8NRrXXUhlbt9ddfr7Vr1/q8d/3115e67mC32Yy1eXl5kqQzZ874LG/mNlNLLbXUUkutN6vVGvD6q4upQ3cgB9DhcAR84KkNrdqbbrpJs2fP1pkzZyRJ4eHhuummm0rs6TZDm81YW6dOHc/xK1je7G2mllpqqaWW2lDD8BKErPr16ysuLs7zfVxcHENLAACAKRG6EdK8ZzEpbUYTAACAYDL18BKgLD179tR5553n+RoAAMCMCN0IaQ0bNvQMMWnYsGGwmwMAAOAXoRshr1evXsFuAgAAQKksTqfTGexGBKJ79+7KyckJdjNgAgWnsPej4FG7RUREaMuWLeVevjJ3x2dlZSkyMjKg2lCcDcDo/eXaDqAkFb22m03I9nTn5OToS/uLwW4GABPqYns42E1AgHJycvS2PSXYzQBgQgNsScFuQqUwewkAAABgMEI3AAAAYDBCNwAAAGAwQjcAAABgMEI3AAAAYDBCNwAAAGAwU08ZmJWVFewmAAhRFbl+WK3WSl1vAq2tzHaDVRus/QUAlXL9CfT5AdXJ1KE7FA4gAHOqyPXD4XAEfL2p7MNiQq02WPsLAArxbMjwEgAAAMBghG4AAADAYIRuAAAAwGCEbgAAAMBghG4AAADAYIRuAAAAwGCEbgAAAMBghG4AAADAYIRuAAAAwGCEbgAAAMBghG4AAADAYIRuAAAAwGCEbgAAAMBgdYPdgNI4HI5gNwFAiKro9aMy1xtqq6cWAEq6hlit1mA3rUymDt2hcAABmFNFrh8OhyPg6w211VMLAArxbMjwEgAAAMBghG4AAADAYIRuAAAAwGCEbgAAAMBghG4AAADAYIRuAAAAwGCEbgAAAMBghG4AAADAYIRuAAAAwGCEbgAAAMBghG4AAADAYIRuAAAAwGCEbgAAAMBgdYPdgNI4HI5gNwFAiKro9aMy1xtqq6cWAEq6hlit1mA3rUymDt2hcAABmFNFrh8OhyPg6w211VMLAArxbMjwEgAAAMBghG4AAADAYIRuAAAAwGCEbgAAAMBghG4AAADAYIRuAAAAwGCEbgAAAMBghG4AAADAYIRuAAAAwGCEbgAAAMBghG4AAADAYIRuAAAAwGCEbgAAUO0a7FuiXkk7dTzYDQGqSd1gN6A0Docj2E1ACPvvB8nqtLafPk3prOZyBrs5qGYVvX5U5npDbfXUAkBJ1xCr1RrsppXJ1KE7FA4gAHOqyPXD4XAEfL2htnpqAUAhng0ZXoJq51SGXm6dolX7t2tix1HqYntYbZN265hOaFPSnepie1hdbA/riW8b+NQsajfC8949a37zvBeW/g/P63WePSZJOjg3Tj2m/6Tz05Yo3vaQ1/K/+myjYHm5e8brPHtMB+fGFds+ACAwTv2qLx5K0ABbkhI6LtLbJ+uWsFyG3ooergG2JA2wJemhNbmSexjKoPar9ZUsnmW9X/Ne/wBbklo9mxXsXQb8MnVPN2ou53k79fjzcfp0z8uao/16ud1c9et4rcZsTdWXTc/qvx8kq/eAVfp8X39dpzx9/8wuXb3/FX2pPFfIvudVrbjhIQ3Vh3p0QJ7Gff6yhjQ9q7C9n+j1E5dpyMTt+qR90eElv2pT0nD9sXWK8lKae76/Z82beuO28yRJMW/M1JLXd+rLibmScoN9mAC/UlNTNXPmTJ07dy7YTalSU6ZMCXYTYICj827ToFb/0qGXIuXUr/rkg4PS7ZcXX27OTrVOX6a35VSDfUsUP+hVvd31Yd3ZvpsGhM3Rx98m6Jorf5NTv2rrix/qwmdfl03Z+vKhkRrU6u+e9X/50Eg9tOZ1vXQbHScwF3q6ETQDH75OzeWURVHqM/xbfTXsTxrS9Kwkydq1m278X+E47FaT7tZ1ypMk5UXfqPtyCsOG87zdSs+qI0nK79DDs46iwtL/pSmb/6LPHr3E/cr5ir21k97al+1Z5tfYERpz5f+CfWiAUu3Zs6fGBW7UbK0OHtNxSRadr55+ArckRT52j65x339zpn03DTztuuZbFKWu9+3T4rXfS5LqntylbZt6qlfXCIXve1vzNiVqlfu6btH5uvrWq7TW67oOmAU93QgKy28xio7MK3UZ53lZOnAiTNc1zdPBuXEa9GZM4ZvnS3/MqqP8K3tp3hsHZBs6Qh9LavvkfE+vtT/nGn6o0bYPfV5rFXtMx9RCVkmHWjfnpkuEjClTpujOO++scF1lxlZnZWUpMjIyoNrybHfWrFkGHS0ES4sJa/T0QyP1oO0i1T19sybu6+8J196y5sVp9MqrC19oIl3znzCpiXTZiJl62PaFvnr0DnX89FO9OHyEDjU5J2W5rutP+bmuH1ekLg72zgNeCN0wvbD0f2jIssf1gnuoiVMZerndXB12v58ffb++tEthJzZpwo1j9ESrVzX7Sv9DQ+qevlkL3Ovx5dR/g72jAFADWXS+rn1pld52B+vEpMv0ZkqMvPu7G+xbovFLJulxdyB3KkOroufogPv9c006q9vNI/XRvj7KX/uNRj7UUpLrXp3SgjxgJgwvQcg5/cGbWtrINVYvLP0fnhse85t2Vt+uJc/4mhd9o/7sXK2/rznjee2/HyRzwyQAGMSpX7Vjzheeubhb33pfuerOrvmn/tmgvuf7gmEj7y96Rds+HKI/XukaRnimfTcNCHtfr3hd139b86Se+va8cm0HqE70dMP08qPv14r74jTI/efDlrP+rOH/fVmHJeVH36XeSbeqS5rrz90770lRnruXu+Htd+vRR+cq3tbAPewkSg/snyi1S1KXaa6g3fbJ+XrjSm6YBAAjWHS+esbv0W22VyVJYWc76qFt1+pi+d6TkNt+hBaMiPMM/7tw1r0alPuyp6dbksK7dtVdT/xTB/8+XBPcvdoWRSkh/TEp+iENmOYK6c2fnK+Xrvyt3G0EqovF6XSG5N9jbDabvrS/GOxmADChLraHZbfby728mcc4+zNr1iy98847NXJMt81m09v2lIDWD6BmG2BLqtC13WwYXgIAAAAYjNANAAAAGIzQDQAAABiM0A0AAAAYjNANAAAAGMzUUwZmZWUFuwkAQlRFrh9Wq7VS15tAawPd7unTpyVJJ06cCKg+1PYXAAqUdA0JdFal6mTq0B0KBxCAOVXk+uFwOAK+3lR2Cr1Aahs2bChJatq0aUD1oba/AFAglK8hDC8BAAAADEboBgAAAAxG6AYAAAAMRugGAAAADEboBgAAAAxG6AYAAAAMRugGAAAADEboBgAAAAxG6AYAAAAMRugGAAAADEboBgAAAAxG6AYAAAAMRugGAAAADFY32A0ojcPhCHYTAISoil4/KnO9qe7as2fPSpJyc3MD3nYo7S8AFCjpGmK1WoPdtDKZOnSHwgEEYE4VuX44HI6ArzfBqK1Xr54kqUGDBgHVh9r+AkCBUL6GMLwEAAAAMBihGwAAADAYoRsAAAAwGKEbAAAAMBihGwAAADAYoRsAAAAwGKEbAAAAMBihGwAAADAYoRsAAAAwGKEbAAAAMBihGwAAADAYoRsAAAAwGKEbAAAAMFjdYDegNA6HI9hNABCiKnr9qMz1prprz549K0nKzc0NeNuhtL8AUKCka4jVag1208pk6tAdCgcQgDlV5PrhcDgCvt4Eo7ZevXqSpAYNGgRUH2r7CwAFQvkawvASAAAAwGCEbgAAAMBghG4AAADAYIRuAAAAwGCEbgAAAMBghG4AAADAYIRuAAAAwGCEbgAAAMBghG4AAADAYIRuAAAAwGCEbgAAAMBghG4AAADAYIRuAAAAwGB1g92A0jgcjmA3AUCIquj1ozLXm+quPXv2rCQpNzc34G2H0v4CQIGSriFWqzXYTSuTqUN3aQcwIiJCXWwPB7uJAEzIarVW6ALscDgCvmAHo7ZevXqSpAYNGgRUb+b9jYiI0ABbUkDrB1CzVfTabjamDt2l2bJli9/XzfyfSUmysrIUGRkZUm1mf2vH/tpsNkmS3W6v0fsL8wjmtd3f+R6K53NtvV5V1Pjx47V161bNmjVLt9xyS0i0ubK1tenzNSPGdAMAAAAGI3QDAAAABiN0AwAAAAYjdAMAAAAGC9kbKQHADAK9KUmVmOJqypQpmjJlSrVvt7L7CwC1GT3dAAAAgMEI3QAAAIDBCN0AYLCc1ERN3VP8daeOa+MDo7TylyJvZK/ShI6dZLPZfP7FRo8rviwAICQQugHAj3ztVEq7aEU8nVHpdTWMf0SX3D5aK39xBfCCEH2Nra8e++pLzetTGKzbj/xQx5olaN4nU9Wt8yytsdv1lX2d5lzTRaM/G64TN0QXC+OeNqZPd9WXsU/+fgHwq4z1AQDKjxspAcCLU8e1MamTJqVFSo0aVMk6wxSjB3cfUNKiDA1+Yrns8YXb2vTANP04e5EGX1CO9eRdpWFzO2t7foqW92vsejF9uhIzWwT7sAEAykDoBgAvFl2s3ilHZXcPC2meXkUrbpagl544rg1JLVyB3lsfm+a5v6z/6zAtODhWsZLqfDFJt9lcs5TUze2msZIiWreRMgtLM9c+qZY3J5erCWGKUdL+qtohAEBFMLwEAIyUPt0zHvuNX9yB/rXbVf/XYUqx22X3+vel/R8a9nO+pzTv2mc8w0tmd811vdiigxqnH5XcPeX/l/mArrzEd5P1v032DD2Ja/13pblfLza8xD185Fev5UsbTlNQ72/d/t6f/G26Fl4+mnHoAGD2nu6srKwK11it1oDqglkb6L6yv6FRWxP2t6LrMUObA6k1ZA7q6GR9ZX/INYzE67VPD+7UonbRevedt9Tyuo/U+dR4dZF07q52+r17MX893fnN2qjj02uV9kSUYrO3KDWvvyZ7DU1paH9Cl72/Ujn26ZKkzLkWxY9sp82Lb9bFfprns3z2Kk3oMVBTb/1aMzv6LpevnVrUbqi2P7NDdvfQlpzURPVp/XctODhW1+q4NiXdpsfu/UQ5k6M82x5iHauxXusJhXOj6LKh0Oaqqq1N+5ub6/pF9tdffyVvmLjN5a0NhWcImDp0B3IAHQ5HwAc+WLWV+c+e/TV/bU3Y34qspybsr6GyV2li7DZ1/vx5Je1PV752arH7rTDF6OFlhYvmXfuM1iy5Rb8rGPvtXqb3X216dc94Rf/fav0cn6LmXquv/+swbXSHXklqO/wt3R67Rpt+uVl3+xk37rN8swQ9OHSgZhw6JXVs7LPc6dT5euHG+drcr/D1RvHz9eS6TkrdM1axl27RR+9N0sYs323fuHibz3pC4fP1Xra2nc+1aX8bNHDds3H++eeTN0zc5mq9PhuM4SUAUJ2aJWjOv6fq4r+20NQ9Ulj2Ae0f2N7Tu10ebW+dplkfrlfaBxG6tatvOP61dzufdeU3a6PW/3OWuK6iy5fmh9YtfQJ+ge8PnZKO7lXq7e0rtG0AqE1M3dMNIHCVedR3Qa3dbq9wbU3pkTCC05KtDUnR7hspI6U0m9a539vmPYxk63MabHG9Xv/bZF0z9H3XN31sGpmwUjmTk/XvtRbNuPWklpcx60lY9gEdOtdGA8oxO0pZLjv4vY4pqljwbtnKFfzP37Bf/6ebPe+HZR/QwfoWdQ7ycS/vz4K/870y53NlfgYB1Dz0dANANbE4m7lupHTfOPmVfZ2eic1SRsJKz2tp6c9psGWVJvSYqW27puiy9+/2zNM94SO7ciZHKSc1UTf+MFotHp1a7CbFhvYn9OjqU5L7RssNU8coZUxfxVay7Q3jH9HorY941i1J/019RKPPvaqHO0r50f2UeN5ivVBk21vP478ZABA93QDgy2eebklRGizbKum0bbY2L75ZEamJGuU9T3YFRHz+tCK+ucMTnLvP2Kf20zKU03aebLYPlJGw0nUTYrMEzduT4NMmefWUjz73qnYuvlnNs1dpYuwY6fPnPfN8n7bN1pS6o2Wz7XV//6oyvcZ4BypMMRq1/3Wp3fWyPdnAs63Niwt6tmOUtH2GDvToJtuTdVU3t5tGf/aR7u24uJJbBoCagdANwL/06bIN+6Bci3qGRHgPYchepcc6/EcDssZVupe1OnnP0+2PM36+7k2KUsS+wlk6ylxn9hat3bFD89v218eHe8hmi1T7aZtltxcE92TZ7clS+nTFtW7mmafbZ7t1Vmv+H79URoLXdpslaG6aCoN3dLL2LZakm2W/rXg7is3T7Vm+UNuJTi0v4f2C+qSSdrTILwvKXqXHqmhoi+Fq6fkOoPoQuoGaxCs4+A0GFeTpeS2F02tmDR/NEjTnY9c80IW9oaHPoot1U8rXei+pk6buOVpsaj2/3GHU9QCckgO9opO1/aD/bZb4i0CzBM39d4KCzanj2jziNTVa8qhiC/5iMHWMUsZ8ojlGbZTzHUAIYbAdUFOkT1dE6mDP2OCNT/+sF7v4PrwkINmrNG7Eeh0LpDY6WV/Gv+4zDrgmKAjB5QrctYRFF6vXnN/rrY6dZLPZdI2tr/pfXv6/BlQY5zuAEENPN1BTRCcrJ7rw24bxj2joQ6/owC9SbCC9fwXrS1+pbbs+8Myu4U/7aZtLnUXj4PhXlNZvLH92r+mKDi8xEuc7gBBD6AZqqKqari3n4IFy/dndH6eO6/N1GxVza1O9sPqUYgO4+dDsKvuwiUCmlZs1a5beeecdTZkyRXfeeWe1bbey+2skzncAZsfwEqCGyvlstT7oeZt6VfImtmP7V6h/+xYB1VqyXU8pHPLiCHUdurTyf/oHSsD5DsDs6OkGaqL06eoztotePVg1N3Tte7KnbE+W/H5JPYOZSwcqa+FJXa/GumrFsxpF7x+MwPkOIAQQuoGaJn26Ygee1Ngvk6tkTGnbiU7ZJ5a+vYhUP69nr9LiBQs0OssVOhrGP6KujZcq7dR4xrqi6nC+AwgRhG6gJikIIJWcOq3oA2JKkpGwUseiD/ivnzpG560/6gkcYYpR4or5av50hnEzWqB24XwHEEJMHbodDke11lFLbajWWq3WKgsgKscDYrzlpKrYGNgDc3+n/pfvV06RKfUaxc/Xe+s6KXF1hs8THb330czH2Sy1Z8+elSTl5ubWyutkTTrfjT5W1Jbs3LlzkqQzZ87Uyp+jmlYb6M3h1cnUoTuQA1iZu/KppTaUaze8tFjnGkRqXh+b+yEshQ8MufuCnVrceIs6V/Gfugtma9DNhd9vTOqk0efWK3Nx8d49iy5Wr5Q1+q7d9UrUDk8QKdjHUDjOZqitV6+eJKlBgwa19jpZE873UDjONbm2bl1XBAoPD6+1P0c1vdZsTB26AZRf6T11MRq1Y7Vio8dVumcwJzVR3Wfs83xf/9fJWpDiChOeHr9S/pwephg9uH+zrkiKUqJ8ewCB8uJ8BxBqCN1AbRGdrLS3pqv94x+qVyUeUx0Rv1z2eP/vtZ3oVE451lHw5/zewT4mqLk43wGYDKEbqE2ik7VvcbAbAVQTzncAJsLDcQAAAACDEbqBGqqyd4rbbDbZbLYK12ZlZQV71wEf5f1Z8HfOV+Z8rszPIICah+ElACRJH330kbZv3y65p6RzOp2SpBkzZniWiYuLU58+fYLdVKBKeJ/zkvye8+3bt9egQYOC3VQANQChG4AkqUmTJkpNLXzUnsVikSSf1/r27RvsZgJVpjzn/LXXXhvsZgKoIRheAkBy/2m9adOmkrvHz/ufJDVt2jSg4SaAWZXnnO/QoUOwmwmghiB0A5DcD4ro0aOH53uLxeLp+ZOkHj16eB4mAdQEnPMAqhOhG4BH9+7dS3zvpptuCnbzgCrHOQ+guhC6AXjExsYqPDxcFovF82d2i8Wi8PBwhpagRuKcB1BdCN0APOrXr6+ePXsWe71nz56qX79+sJsHVDnOeQDVhdANwEevXr3K9RpQU3DOA6gOpr5DJNAHC1T2oSDUUluba6+66iqFh4frzJkzkqTw8HBdddVVFVpXKO1vKNaePXtWkpSbm8t1sgpqyzrnzdhmaitfe+7cOUnSmTNn+DmqAbVWqzXg9VcXU4fuQA6gw+EI+MBTSy21rp+7a6+9Vlu2bJHcD8S58MILTd3m2lZbr149SVKDBg24TlZBrdVqVVxcnDZu3CgVOefN2mZqK19bMDNNeHg4P0c1tNZsGF4CoJgbbrjB83VpszsANYX3ec45D8AIpu7pBhAcXbt21XnnnSe5bygDarqePXtyzgMwFKEbQDENGzZUXFyc52ugpuOcB2A0QjcAv5i9AbUN5zwAIxG6AQN0795dOTk5wW5GpTidTknStGnTgt2USouIiPDcGApzC+bPTk0656sKPztA1SF0AwbIycmRffHQYDcDbraRrwe7CSinnJwczbEnBrsZcHvMtjzYTQBqDGYvAQAAAAxG6AYAAAAMRugGAAAADEboBgAAAAxG6AYAAAAMRugGAAAADEboBgAAAAxm6nm6HQ5HtdZRS61RtQi+sj6/UDqvzp49K0nKzc2tVddJBEdFPrNQOq/OnTsnSTpz5kyt+jmqqbVWqzXg9VcXU4fuQA6gw+EI+MBTS60RtTCH0j6/UDuv6tWrJ0lq0KBBrblOInjK+5mF2nlVt64rAoWHh9ean6PaVms2DC8BAAAADEboBgAAAAxm6uElAACg5qvM8IFAaxcsWBBybUZoo6cbAAAAMBihGwAAADAYoRsAAJheTmqipu4p/rpTx7XxgVFa+UuRN7JXaULHTrLZbD7/YqPHFV+2hO1FPJ1RodcTV5/yfJ+vnVrUeIHSytpQ9iolzc5QvnYqpV10sfbabDaf9SJ0MaYbAABUuXzt1KJ2Q7W0UQNJUvtpm7W8X+OA19cw/hFdcvlordz1gv60PVHdZ+zzXaCPTfPcX562zdbmxQma94k07jGrJi+5Rb/TcW16YJqOPjNcJ66Lls3drgIZCSuVMznK831E/HIdU6LiWnfRgoNjFesO1l1ShypzcVR5mlyuY7S45RH9+VSCwiQl7U9XUvV9RKhmhG4AAFDlDj31kWwFITJ7lSbGTtXKrs9r8AWBrS9MMXpw9wElLcrQ4CeWyx7vet3pDtM/zl5UrnWH5V2lYXM7a3t+SuEvAenTlZjZwtVrntRJk9IiCwvO36ck22uebxvqCd1me0Jyh/stzzj0TPe/6ZN6dSX1VNz4YZr00td6curX0h8k2ZZ7avu+YtfMju5vsldpUuw2dT70vGKD/WGhWhC6AQBAlWvz+GS1cX+d36yNWtWZoW//IynA0C1Japagl544rg1JLXyDsXx7uuv/OszTO13ni0m6zTZFklQ3t5vGSopo3UbKLCzNXPukWt6cLIsaq3fKUdndYX7ziNfUaMmjnlCcr51a3HiLOp8a7xOU5+25SzmpiRrlFeT7xa7y9LI3l5Q516JXvdfT8ojuOvW8uminFvlZJ2oeQjcAADBUWPpqvXDjfG3uGOAK0qfLNuwDV2je+pwGpxyVPX264uKbecJ1gYJgXCDv2me0xmt4yY+S1KKDGq8+KvVrLKeO6/8yH9CV91V+P/PC/qOPZ2/TVU/cpualHQ/FaNSpGElS5lybDm//VW2TWshW9BcJN89+V+YXFgQdoRsAAFQ57zHdGQkrlVOZcdDRyfrK/lBhaHa/9unBnVrULlrvvvOWWl73kTqfGq8uks7d1U6/dy/mr6c7v1kbdXx6rdKeiFJs9hal5vXX5MoE2uxVmj7lGx3Me1k/bX1O/31muFbF/6nMspzURF2dt185HZpK7h5273V695Qj9BG6AQBAlQtTTOGNgenTFRt9sup6a7NXaWLsNnX+/Hkl7U939W57bffhZYWL+uvpDlOMev/Vplf3jFf0/63Wz/EprmDr7lH3YXvD9/si47T7JQ/SG+930jtPXa0fzz2pey44rp/vH62f4oZoyb3v6LkSdiFzrkWD3oyREoL9SaG6ELoBAICxopO14l6Lrv7Hgxo8uQpm/miWoDn/7q6NSS00ddRRzbz0gPYPbK/+FVhF21unadba9eqZGaFbZzf2tNNuT5ZKGL9d0pjuabdLOamvS5IsulgXNbtYw+Z21tIZgxUh31lRJNcvDS9mrNOG19N02fvB/WhQfUwdurOysipcY7VaA6oLZm2g+8r+hkYtzKG0zy/UzufTp09Lkk6cOFHt18lg7C+Cq7yfWcHnGxkZWeIy/du3qHR7nJZsbUiKdt9IGSml2bTO/d4272EkW5/TYIvr9frfJuuaoe5028emkQkrlTM5Wf9ea9GMW09quZ/e97Dsigf5AvnaqdcfOl8Tdtn1p+2JSlydohnu9zw3XC5pLKXvMPQzqcpas///W9p5ZxamDt2BHECHwxHwgQ9WbVkXKTO2mf1FqCnt8wu187lhw4aSpKZNm1b7dTJYP78InvJ+Zt6fb7526vlZDTVuSjvXm+nTNeTVsRq7NfB5ugtYnM08M4yo4OE4SZ3U//JPfHuUs1dpQo+Z2lavri57f6Uc9gd9phbMSU3UjT+M1pDFxacydOq4Nk4do4gxRwMaT306db6ev2WoNl/gmu97uaSc1CH6/tApHftuhVrevDyAtVb8MymK/3+DiydSAgCAKhWmGI3r/0bhUyAH+o7nLvr0xoqI+PxpzxMhc1ITdY2tr169OUM58Stls9kKnxbZLEHz9nwtu93uE8ZdPeUt1CV1qHY+/7zmpnXTruvG+Dyl8sDc32n0uVf1cCCzrWSvUvIjzfTXp272CewRrdtoxXfbXTOlXFKO9RzdqyVtW3ETZQ1i6p5uAAAQorzGRxfVKH6+7k2KUsS+T4qPdy6BJXuL1u7Yoflt++vjwz1ks0Wq/bTNstsLes/d20ufrrjWxacSlCRnndWa/8cvlZHgtd1mCZqbJk2MHSN9/rz+tN09o0h5Z1tx96h/mtdTY7ad04apY1T/7aPFbhjNj+6nlwYMVb9731FOCTeTFn2KZ/9pE4L28aHqEboBAEC1suhi3ZTytd5L6qSpe44WPqWxNM0SNG9PgvsBOEWm1/MWnaztB/1vs3dKCXXNEjT33+5pROKXKyfe/6q959cu2i6PlKPqXUJtsce8RycrJ7qMZVBjMLwEQNXJXK9r//KNvqlTxu/zJ7/W2PlHdMLiewk6tGK8Zn7fMNh7ARgqIuNjPd5xr3aX8V9wPcfXWvbwf/SzLD6vn5qfrOe/axDs3ai0ghBcrsAN1ACEbsCsLDna9OyzpYbQ3G0rFPX3rGLh1f/6jmjh3Rv1bk5949rc9hZtvW+Pur9R+ljN3D175Yi7TE2d+VLmejV767Shh7KifvjhBy1dujTYzUCQRWR8rD+PzioWeisrJ+qPevqZb/XogpxSlzv3aYYO3H6JLpRTERkfq/cCc/2c+N23nJwqWAtQMzG8BEDFWXK0ae4iTfzud37fbqW3Zdvg+1pO9E1KG3epmuqUtn9+vuIfPE/S/3Qo7UM9csOdkoIbKL7//ntt3LhRGzZs0HfffSdJGj58eFDbhFCXo38//Ir+seN8v+/G6B09VmQSix/jemneC5foQjn03QdNFfdMPUlnlbVmu/50e7yk3GDvVDEnTpxQenq63n33XW3evFmSZLfbK7QOh8Mhq9Ua0PYDrR0/fry2bt2qWbNm6ZZbbqm27Va2FqGL0A2EsAbdhiijmyRnfvVu2BmhXo8+6hobmblezXbeqOyBxXvkc7et0LOX3a+pLd2B2pkvZX6qyd9epqVN8qT8I1q39kq9u+VlvStJipE8X0ud7humZdc5DduN7777Ths2bNC6deuYPxoGiNAfXhytOe5e8+vW3qAN44v/nFjWvaW/txmmMVcUBGqnIjJ2aNm2SA2KyJNTP2jXsst1ZMUSPSZJaiN5vpbqzUrUrIpnxko5duyYvvrqK7399tvas2dPsA80EBII3YDZWf6rTc/O8/QqewfR3G0r1GlnT3cP8mEtHJSh5ks76ejId7W0UQPVOXu1lr7WWVflnfO76txtK3TD64WBvWjI9X4/J/omrbnmM137n9t8A/YfOij5vV90whLhGi7iaXeOtu+4Qv16/CblFb626b29klzzZeVu3aKp/YZ41ndoxXituOHlwpCuqg/cu3fv1rZt27RhwwYdOXLE87rTWbgti6VqhxPADFy9zmvGDlHnO1ZrfVgXDdrTUVfrlE9v9M7EO/0GY7nHWL/Wbbd21akjSbr0jREac8XP+vfDr+jBNsN96k7NT9adlome1xxR7TTp+Wz9rEa60Oe8ztG/U9vqxpTffF7b9cJ+Sa4HyYSt26G/DR/kWdep+cl69fanvEJ69fj++++1a9cuvffee9q7d6/ndX52gPIhdAMm996TWxX99ymyR/xPOvm1JoxbppnNH/IKpoWcdQ7qqYcv1tI3H1RS/gltmrtI3d9oU2Iv9I3LOurVglBuOaKUwYt1n0a6gnfmenV99VJN/Xsf3eHZdo7Ut+hGL9XtLcbrxUMv+7bp35/qrpY3Ktsr8OduXa1bWvXW3z/Pk1OuUL7l8cZSCb8UVBWn06lnn31WGzdu1PHjx31e91Y0MNhsNkPbher344AsNdk7XE8pX3IH7gfbDNeGFxu6g/lSTVk/2k/PcY72LG6qP+6+V/fIKcu6tzT5rq+0e09HdR3dTl0SDmr3+I66Wvly6gft/seNGv9lE0lnJUkWXabYNsl69TvfsByRsUOj/nCDNqjwF1bLurV68A9dNe2jfDndofzZlAhJ1fwXLUn5+fl644039N577ykzM9PzOj87QMVxIyVgch3v7+EKvZLUpJMe7r1H87/4ucTl/zQ91hWinRHq1b+DLjp6oviNlpYjWrbodOGycoXnpOTL9Fnaf3TCEqZDaR/63bY/rW6/Vyem7CictcRyRAun1tPSW33Hsh79vpW+GuR61INFEer1WJcSe+GrWk3rgYuIiFBUVDnnEYZH2JwOutodXiMydmjZ1p56dnyE+90IXXHb75S2z9/9BRFqP+H3nl7qul2j1Omc62tHVDvdkv+ltn53niTJmrFfS3tHKTbC99y+4P7+urj/l55ZS5z6QWv719X4+5v4LHfy299r7ljXX7YsilDblBhPm6ubxWJRenq6Tp48GZTtG61hw4a6/PLLg90M1BL0dAMm17p5uM9Nhi0uv0Y66n9ZS15rRV+YV671lrRsk92/6HBYM/189BK1vqGc227SSTNHrVDkG39Q9qB8bZr7pn55epoejPANL62Gxkl5R/SZJKfliFKGpHoeAuHiO6bbc/NlJcesWywWTZgwQRMmTNCuXbu0Y8cOffjhh8WGlxT03hUE9PLcDFbZxypzI1b1+l3rBj43I+bV262Vtt1a6bXMJXEn9LMaKcKnsvhNkZbzLpc1p46ujrhMPeY20t/WZGvMFfna9cJ+2cbE68IiNz2etXbSPfPe0k0L2mjD+HxlPvyedq+eqDERvss1nhCrq/WDtkly6oi2dPhQa+rX81rCd0x34c2XVT8cy2KxaObMmZKkL7/8Uh9//LF27Njhcw9EoD873oL1s1CZn1+gogjdQIg5evgr9W+TWOnxzs46B5X+cx3d4ZssdPLqC3S5M18/Szp47IzU0nfbqneH3/U16DZEWdtWyHZ/vjrdN1HLWpY+G4nFeamSVtzv8xCI4mO6q/4m0c6dO6tz585KSkpSRkaGNm7cyI2UtVids1e7x3YXPc+KDJ9Yt1YzLQM0z+4Kt/UcX+u1uBOe9+t2jdKICQe0/36Ldm/qoRtf/M3v9px9B2qj3tJE22+qN2u0ZpUxLtuiS9V971/U3es1/2O6jbvhuECXLl3UpUsXSVJGRobeeecdff755z6/vAIoGcNLAJN7PzmtcNhG5nolbOqv+A7nVW6lzkt136iGvuu2HFHK9B80tF9bNc1vqLjYFtr78h6fbd+1JabkdWau1w2v5yvxpvb6etlruu9z8w/niIqKUlJSklauXKn33ntPSUlJuuKKK4LdLFSTgmEhq9Z7j6d+q1wPnvnlH+9pd53Cc/ystZNuHfGOPnviR30z/6oSh4NEZHysiVN/U9eh7XV2ynJNWR/soxCYqKgoPf7441q9erXWrFmjkSNHqn379sFuFmBqpu7pdjgc1VpHLbVG1VZGfPJl2nb3Qt3rHoZxx18f0B0RlZ/TukG3IdqqFbph+G7Pa3fMGuvpZW7QbYj+eXi87hruCtqHeg9Q1tB3FVlkeMmhFeN115YYHeo9QNmLXTdsjh90jQ6tGCfbMvfrA4P/lMmyPr+mTZtq4MCBGjhwoI4cOaLNmzeX+zMPxXMyFGurmkWX6ca9vaUOr+ixKa7hG/VmJfrtfXb2vVVT17yiOTbX8JKOs4fp6rzDPstE3han7wbV042z63luoCxwan6yZq5o45odxe76efjTOJtOzU/WY1PalDprSrCV9Zk1atRIgwcP1uDBg/Xzzz9r7dq1AX3OoXhOUmue2lAYbmdxFr0FOcQFa1xYsMaUsb/mrLXZbLIvHhrQtszs0Irx+lub57Tseofn4Th3PPGA35lUPDLXyzbnJ6+H4xzWwgE/q+u71xS7idLv8JIqYBv5eqljTDmfzbO/NptNc+yJAa0/2Czr3tKwtV29xlcXjgN3TS9Y8lCSiIyPlTT4R8/47At0WNuu+FWNv7u6WK95dU4Z+JhtebnHZ3M+m7+2tu2v2Zi6pxtAEGWu130/9y2ct9s9tGVKv/N8H45T1pMk294i+2L31858SZfqwX9d6neawFZDFmhqkJ9MCQTCqR+0ZeJ/ZXuntdcNlIUPxynrSZI5UX/UHHvh2qTLdON3l/mdJrDxI9M1xoRPpgRQOkI3AP/a3qK/prmGiEiSJe9yTSmYsxuAR8HQkXrP/qXMGyMB1F6EbgAlajVkgexDvF8hcANFNX5kuuY8EuxWADA7Zi8BAAAADEboBgAAAAxG6AYAAAAMRugGAAAADEboBgAAAAxG6AYAAAAMRugGAAAADEboBgAAAAxG6AYAAAAMRugGAAAADGbqx8A7HI5qraOWWqNqEXxlfX6heF7VtloER0U+s1A8r6itGbVWqzXg9VcXU4fuQA6gw+EI+MBTS60RtTCH0j6/UDyvalstgqe8n1konlfU1uxas2F4CQAAAGAwQjcAAABgMEI3AAAAYDBCNwAAAGAwQjcAAABgMEI3AAAAYDBCNwAAAGAwQjcAAABgMEI3AAAAYDBCNwAAAGAwQjcAAABgMEI3AAAAYDBCNwAAAGCwusFuQGkcDke11lFLrVG1CL6yPr9QPK9qWy2CoyKfWSieV9TWjFqr1Rrw+quLqUN3IAfQ4XAEfOCppbaqaiMiImQb+XpA20LVs1qtpX5+oXJe1YbaiIgIPWZbHtD6UfXK+tnxZubzitraWWs2pg7dQKjasmWL5+usrCxFRkYGtJ5QvMiF4v7CPLx/drxxPpt/fwGUjjHdAAAAgMEI3QAAAIDBCN0AAACAwQjdAAAAgMEsTqfTGexGAAAAADUZPd0AAACAwQjdAAAAgMEI3QAAAIDBCN0AAACAwQjdAAAAgMEI3QAAAIDBCN0AAACAwQjdAAAAgMEI3QAAAIDBCN0AAACAwQjdAAAAgMH+PwhywicIk6MMAAAAAElFTkSuQmCC;labelBackgroundColor=#F4F1DE;fillColor=#F2CC8F;strokeColor=#E07A5F;fontColor=#393C56;" vertex="1" parent="1">
          <mxGeometry x="200" y="1140" width="329.85" height="180" as="geometry" />
        </mxCell>
        <mxCell id="p264wFBTw7rObvd8C1Ne-3" value="1. 异步复制" style="text;html=1;align=center;verticalAlign=middle;resizable=0;points=[];autosize=1;fontColor=#393C56;" vertex="1" parent="1">
          <mxGeometry x="190" y="1020" width="80" height="20" as="geometry" />
        </mxCell>
        <mxCell id="p264wFBTw7rObvd8C1Ne-4" value="slave中会有一个线程，他会从master中读取binlog信息，然后写入relay文件。&lt;br&gt;然后他还会有其他线程，读取relay文件的信息，把这个信息重新在slave库执行一遍。&lt;br&gt;如果在master中执行了一个update的语句，那在slave中同样也执行一模一样的update语句。&lt;br&gt;这样两边的数据就会保持一致，由于master先执行，然后slave再执行，所以会有稍微的延迟。&lt;br&gt;如果执行的语句比较久，那这个延时也会比较长，当然系统的压力也会影响延迟的时间。" style="text;html=1;align=left;verticalAlign=middle;resizable=0;points=[];autosize=1;fontColor=#393C56;" vertex="1" parent="1">
          <mxGeometry x="200" y="1060" width="510" height="80" as="geometry" />
        </mxCell>
        <mxCell id="p264wFBTw7rObvd8C1Ne-5" value="2. 半同步复制-&lt;span style=&quot;color: rgb(34 , 34 , 34) ; font-family: &amp;#34;pingfang sc&amp;#34; , &amp;#34;hiragino sans gb&amp;#34; , &amp;#34;microsoft yahei&amp;#34; , &amp;#34;wenquanyi micro hei&amp;#34; , &amp;#34;helvetica neue&amp;#34; , &amp;#34;arial&amp;#34; , sans-serif ; letter-spacing: 0.544px ; text-indent: 32px&quot;&gt;semi-sync&lt;/span&gt;" style="text;html=1;align=left;verticalAlign=middle;resizable=0;points=[];autosize=1;fontColor=#393C56;" vertex="1" parent="1">
          <mxGeometry x="195" y="1430" width="160" height="20" as="geometry" />
        </mxCell>
        <mxCell id="p264wFBTw7rObvd8C1Ne-6" value="&lt;span style=&quot;color: rgb(34 , 34 , 34) ; font-family: &amp;#34;pingfang sc&amp;#34; , &amp;#34;hiragino sans gb&amp;#34; , &amp;#34;microsoft yahei&amp;#34; , &amp;#34;wenquanyi micro hei&amp;#34; , &amp;#34;helvetica neue&amp;#34; , &amp;#34;arial&amp;#34; , sans-serif ; letter-spacing: 0.544px ; text-indent: 32px&quot;&gt;除了延时以外，他还有一个比较大的问题，当写入binlog后，代表事务提交成功&lt;br&gt;此时master挂了，导致slave没办法读取这部分的binlog，所以就会出现数据的丢失&lt;br&gt;两边的数据就没办法保持一致性&lt;br&gt;所以我们通常会把上面的异步复制形式设置半同步复制也就是semi-sync。&lt;/span&gt;" style="text;html=1;align=left;verticalAlign=middle;resizable=0;points=[];autosize=1;fontColor=#393C56;" vertex="1" parent="1">
          <mxGeometry x="195" y="1345" width="480" height="60" as="geometry" />
        </mxCell>
        <mxCell id="p264wFBTw7rObvd8C1Ne-7" value="半同步复制与异步复制不同的是，&lt;span style=&quot;background-color: rgb(213 , 232 , 212)&quot;&gt;当master写入到binlog后，他会主动的把数据同步到从库&lt;/span&gt;&lt;br&gt;&lt;span style=&quot;background-color: rgb(213 , 232 , 212)&quot;&gt;从库把信息写入到relay文件，会返回ACK给master&lt;/span&gt;，&lt;span style=&quot;background-color: rgb(204 , 255 , 255)&quot;&gt;此时master才会认为他的事务是提交的。&lt;/span&gt;" style="text;html=1;align=left;verticalAlign=middle;resizable=0;points=[];autosize=1;fontColor=#393C56;" vertex="1" parent="1">
          <mxGeometry x="195" y="1470" width="510" height="30" as="geometry" />
        </mxCell>
        <mxCell id="p264wFBTw7rObvd8C1Ne-8" value="如果有多个slave的情况，则至少返回1个ACK才认为事务的提交的。半同步复制虽然解决了数据安全的问题&lt;br&gt;但是他需要从库写入relay文件并返回ACK才算提交事务，与异步复制对比，他的性能是下降的。" style="text;html=1;align=left;verticalAlign=middle;resizable=0;points=[];autosize=1;fontColor=#393C56;" vertex="1" parent="1">
          <mxGeometry x="195" y="1730" width="580" height="30" as="geometry" />
        </mxCell>
        <mxCell id="p264wFBTw7rObvd8C1Ne-9" value="" style="shape=image;verticalLabelPosition=bottom;labelBackgroundColor=#ffffff;verticalAlign=top;aspect=fixed;imageAspect=0;image=data:image/png,iVBORw0KGgoAAAANSUhEUgAAAswAAAGzCAYAAAA7TUGTAAAABGdBTUEAALGPC/xhBQAAACBjSFJNAAB6JgAAgIQAAPoAAACA6AAAdTAAAOpgAAA6mAAAF3CculE8AAAABmJLR0QA/wD/AP+gvaeTAABOT0lEQVR42u3deXgUVd728btDkC0NiHtcRhGNGAYkJaJRZBEX1AzOaFwQeBQQNcomIigIRBGXyOIWEVl8FdAxjwsTWUTZRyBqAyIZQAP4KBMQNQKdAUZI+v2jl3Qn3UUnnd7C93NdXhfprl/VOd2V8uZw6pTF4XA4FCOKi4uVnJxco1q73S6r1RpXtfQ39ttMf+kv/aW/8dJm+kt/6W/o/Q0koVb3BgAAANQxBGYAAADAhCUSUzLsdnvQ29V0+D0e0d+6jf7WbfS3bqO/dRv9rdsq97c2+p4YiYYH29B4nCdDLbXUUksttdRSS23dqA0kIoEZsatz584qLS2NdjPgkpSUpJUrV0a7GQAAwAuB+ThXWloq2+vTot0MuBgPPhDtJgAAgEq46Q8AAAAwQWAGAAAATBCYAQAAABMEZgAAAMAEgRkAAAAwQWAGAAAATBCYAQAAABMEZgAAAMAEgRkAAAAwQWAGAAAATBCYAQAAABMWh8PhCPdBiouLw94Rq9Uqu90eV7Wx0N+MjAzZXp8W8fbDP+PBB5Sfn8/5HAe19Df220x/6S/9pb+SlJycHPI+IhKYg1VcXFzjTtntdlmt1riqjYX+GoZBYI4hxoMPyGazcT7HQS39jf0201/6S3/pb21hSgYAAABggsAMAAAAmCAwAwAAACYIzAAAAIAJAjMAAABggsAMAAAAmCAwAwAAACYIzAAAAIAJAjMAAABggsAMAAAAmCAwAwAAACYIzAAAAIAJAjMAAABgIjESB7Hb7WHZltro1CK83N9NPJ4b1FJLLbXUUhtrtVartcb7cYtIYA62oXa7vcadojYytaHa+d5leu/yjXr83D+kHTN0zlc99OMdZ5puP/FPK/XmFY1CP/iOGTJyvtYvXZ6sOKbldy2b3E8Ff13gbFM4jltNVqs1Ls8NaqmlllpqqY332kAiEpiBmji8Jlu3rUyTNEzG21XfTzx4vWbOuVVtyso9wXfEd6cF3N8vXZ7Uj68P8H3xwAblO57Q+POOSI6Kl8+76Tk1e2im5rcZqp7Wo9H+KAKy2+1auXKlbr755mg3BQCAOovAjJh0eE22Os06RelpO5V84zyf0V8lbFNu72e14cEbnGFZkhwnqtuwj2Tzqr/ynd26beQs39pKdi4YpVP/tlHNLN8qt8+zmtmkYcWbTaTljw3QU64f0/pOicqIc2W//vqr1q5dq2XLlmnVqlWSRGAGACCMCMwIL/syjbhvn/4n77aKcOuP19SIYcWjdeFPA/TjjDMlZWnne5fonIKP9OMdZ2rne5fpzkWPa+bct5Xlb3+uaRdpfafI9nojSX/47H+wZYy+GHapmjkckn2ZXi5+TeNb7tWySaO0/6kFsp37hw6vydalX95csV0M+Pnnn7Vq1SotXLhQmzZtinZzAAA4rhCYEV5N26tHx37K336n2piM9OrABi0q6KP/efSoGp47Tj+6X7f8rp27z9Qp3z0tY4UkpQU8ad2jypK0/u2q0zhuG7lAm8/9Q3KFYM/o8v7F2tDRNYptX6YnX/6z3svroGZl5Tq8JluDLI9FZWT5xx9/1IYNG5Sfn68NGzZ4Xnd4hXiLxRLxdgEAcLwhMCO8HCeqW8+bdE/BTj1+buCb+w5/u1r7hjymNuW/admUirnICUfaasyUfNm85xEnbFPu3X31P67pE+6b+Bqmj5Mt3WunrtHm20bO0uPN92r/iV7zlBO2adHCi/W/K/tpbsp9+mJYY8myVa/ft1lXvfmI2pQ5j9fwysG668VczW8zMiJzmR0Oh/7+97/rww8/VFFRkc/r3ioHZcMwQjruSSedpFmzZqlZs2Zh7yMAAPGGwIzwa9VJjz+yVpt73a4m/t63/K41a5N080Cr5GjkMxdZkpRQqNf/8q065d/unNZRnqKst99SVoB9uW/+q7jJ7w8p4WfN7T1U+59yjSS797Fvn/afeKKaORza+W4fzTgxTfKat+z235kF6hKhKRqbN2/WgQMHIvoV/fbbb9q5c6cuueSSiB4XAIB4QGBG+JWn6IY7++i97b10p7/3t3+gwfW66IumZc4RYH8rXpwhzRj4uU/Zf1Pu85lnXDElw1l3ygr3NA6XJg2l5/tph/vmPdcItNttIzfKdtfPWvbiLNkHjlTPX6Z5lr07vCZbg9ZcHPapGRaLRU8//bTsdru+++47LVmyROvWrdOuXbs82zgcDs+Is3uk2War+CtGdZfTGThwoE89AADwRWBGRJx32UC9XrDTb2De+eV03X3LRjVzuOY4+1nxoso84oRtevX5/T77qTIlo/K6z3KH8V569owFuvPL6fpvyuteodu5jaX8LJ3fvFz6xXffb0b4MzMMwzPVYseOHcrLy9O6dev0448/hrxvAAAQPB6NjchoOSDgA0rOu/PLwEu/uW7CG3JVpckc+/+t7fUsfrd/tO+rmm+v9HfBHTPUZqpN+9VC3YZ9pMfP/UPn3fmlNg811MyyVbl979GzP5wgHdigf9RrqbPLHVX2O+jdXYqWli1bauTIkfroo4+0ePFi3XPPPWrdunXU2gMAwPGEwIyYtfO9y9Tx4f3+l6T7ZYc+ODPZZ07x4TXZ6jBsqzq95udhIy0HaPNfNqjbA/frvrWHnK8lbFNu33vUsc+/dPXct/X4SYv16EP/Upf7rqg6V/mXHZqfEBsrUpxyyikaNGiQ5syZoyVLlqhfv37RbhIAAHUaUzIQPn6fvpcmreyn/3X9dIq+9pln/N+U+1RwyyZd/XyBbhu5UQV3/iG5wvLO9y5zPfnPuXrGK1P+JOmo573Olo+cazcnFCq3t/MhJIkHH9fMu49KZc7QbJt2q5ZN7qVnzpyqFoO/1dX5zvWcd869VB0XPa6Zcwd7VshQq04aNX60jBXO1TgeHJlVsa5zjDjppJP00EMPRbsZAADUaQRmhE+lucjBM2R7/d4q4fS8O7+UzWcS9FGf9zwzeyuvouE9Ou1qUzdJ+vhPnvfOu/NLFdxZadsqq3HEVlgGAACRwZQMAAAAwERERpjtdntYtqU2OrUIL/d3E6nvt6ysTJJ06NChiB6XWmqppZZaaiNRW52lVgOJSGAOtqHVXT+W2sjXIvysVmtEv9969epJkho1auQ5fiSOSy211FJLLbWxVhsIUzIAAAAAEwRmAAAAwASBGQAAADBBYAYAAABMEJgBAAAAEwRmAAAAwASBGQAAADBBYAYAAABMEJgBAAAAEwRmAAAAwASBGQAAADBBYAYAAABMEJgBAAAAE4mROIjdbg/LttRGpxbh5f5uIvX9lpWVSZIOHToU0eNSSy211FJLbSRqrVZrjffjFpHAHGxD7XZ7jTtFbWRqEX5WqzWi32+9evUkSY0aNfIcPxLHpZZaaqmlltpYqw2EKRkAAACACQIzAAAAYILADAAAAJggMAMAAAAmCMwAAACACQIzAAAAYCIiy8oBddplHWptVzabTQpxzcjq1k6fPr1W2p6cnByxNtdWLQAAwWCEGQAAADBBYAYAAABMEJiBOFGu9ZrWdIoKgti2KMei3vMPBLfjkjwNHbBYeyQ5tFefZ50hwzCq/Ge2v9L83mo98FPtqUG/inIsGrMp+H04tFdL739A834L7+cNAIAbc5iPc0lJSTIefCDazYhr7nnHcgXHzuO3SJIa/N5XU3YMUcca7LMox6I73kur+sYFkow5VV4+aEzU8unX63RXG5y1XWU8VXUXx2qXpaynhi+Zpl4neb1YOE69iwK3t0nGZL2yqJ1e3bRbE9rW7HM8fMVUbWn5ipKeO1elo1L8fgatxy7XOz1rtn8AAGqKwHycW7lyZbW2D+X57MXFxTW+MczsuIZhSJWCa221uTq1RTkWZXy/WMttzuAailYjHLKN8H2tXOs1velKtT8wLGDYLc3vrWtGnayO3Q+qRf8tPuG1XOs17aI+WjPlXk+9dyhdbYzWhePnqH+9+Zp03VeaVGnfrccO9xzD/ZcCX8lSgaFFVeqWa07PpiZ1adJ7FXUp+kRJmqfSUQ59PWKvlt0/Vj9PrAjwDh0O8dMFAKB6CMxAbSjJ0/QpU/RWcehh2c0dcGc2aVjxYqUR5sTDnTRk1VT1OskZZE8vfFKlhSmSKwwnLdzqGa3t+/pUTdlRqCyvY7Qa4ZCtf56GPmbVqBk36DTt1bJPzEeYkzLmyJZR8XpSfi+VjnIe06GqAdebOzx7K83vref+NOeYI9NVPo/rDE+o9/4cAACobREJzMXFxWHZ1pvVao27Wvpbu8cN9H64+5ucnKzSL+Yrd/CTeqHGn4x/5ekvasGsHjrdzwizJ5y6tk3KmKNSV5B1aK9+2Hm6Ugp6yciTpDQ1OMaxNk5O0qrrdqnbMUaYPQrHKT2jhZbuSPG8ZNGp6vrGQL1xziDN2/BK0AH2h50HpLZNpZI8Pdbm37q1eGiVUfQEpSlra6EeqPQ5lGu93jhntme76nzXsXw+x1ot/Y39NtNf+kt//fc3lGVP3SISmINtaKj/ZB9vtfS3do8b6P1I9HfP1rnKSB2tz7PO0MgC5/b+RlOD5dBeLcu6SbO/SdZsY0zFG37mMLf+5wHd1fOwlma18xzbOeK6WzavwOocoU1VlmuEdlvmPOfo88zbtXpDmpIGl2piG0m5u2U7VgNdYXnka9/olfkH1NGrnztyDC2f9om6XJmqMe8X+owcb3nKd151j9k2jfLabekX81X8em61531b9rXU+a6+Vue7juXzOdZq6W/st5n+0l/6G3p/A2FKBlBLdox6Q3vdIbUkT8O7dNKY876p0U1wFp2q7pWCq785zKX5vfVAeeDtp3lt7x6hdU/JcK+IsfamfHVqn6iH2v6iz7PaekK3PweNiVr5vF0vXnuiphQPUQet1+6mM1XgbpNrasrw4pvU8fKDeqzNVBV4jRa7/xLh0F4tzWqnFZKSWp6vj/N3S50+1VP3X6pBxeZ/yUgo2a6tt7fWLdH+wgEAxw0CM1BLLpj4VMUUhBaZerDP7RrvnmpQTdVbJaOrWi+YqGXT01RYOfD62b5iRQ1nyO5ekqehH1ll0Sk+odvsJsMXPP/SlaYH1s5X0nPbPKPVxa/vd27fItNrO6dzz/PzWZzRRgOKdmrxW/eq+PXiY48u796sGa16aWq4vkgAACohMAO14PSL7tbHhbulGk7BqCzYVTKcI8y5nqkfZ3gF3srvufeR2+/ngMd1aK+WD3hbTWY8qg6SypNnKMsrcPeYbas6Yp6arY0LLTKMNB00Fmv5CP+fwc//aqCL0yt+tpT11MVnSo4WnXXzCe00aOsHWv5IU59+XibJ4TWn+vr/t1Tdcqdr6APZEfleAQAQgRmoHUlX9tSDj7ymefe97BxlLhynu98aoiGraj6H2XtOsoe/Ocxj/eygJM/v9IaEku0qSgi8TJ6lZKUWrfxR7X+TOpwkJRQPUK7JMnbuY73+TlupfuBNyrVenz3TRu1Huvu3S98tqq9mEyVL4WsaWZCsnzLPda4w4ppykTbJokvnpemg8ZZnqb6iHIsyji7Wcq/QnlCyXTuSLGpf698qAABOBGagNrTIVE6BNLxLO02qn+izzFkw6ydXVt05zN48S8j5WWniWNMZimbernrzN2vflam6c/IL6mbWyMJxMvp+4noQyjfOVTVK8jS8bTstvPwFz4NUJCmhcL4efaKXSkvyNLzLBK2on6htWfNUumecOt6+X8O+eEsHLv+bxtxYqAn1XG0c7pDNa2GO0vze6vv6VL21o9LSfbs3K//mdD0StS8fAFDXEZiB2tIiU5M2ZVZ5OcE1z7dj6tCarRXsCqaSdPDOiVru9VZSxhzNqbRdj9kOrfGazuE9HzrxcCdNX5VS5b3WY5erNMei8Rfu15yLm0pbC3VdjkV3XJDmM6K9LXOe9qQ+rc7jtzhX2bBVmhrh+gwmuYLzivqJaj12ubK37tL0+1KkFikVn1GhMywPWTVVvZpL5Vvf0bSLUmU0aaihs33363kozI6Kpxl6PwTl1tnZtbb+NQAAlRGYgUhIzVbB++PU+vFP1W16NR9ukpotmy2IObsBtvM3H9r/ew7NCarO68ElgVT+y0PPmTrf32dSWPFj5VU8KrfT+xmBPg9PAQAgzAjMQKSkZmvL9Gg3AgAAVFdCtBsAAAAAxDICMxAmoTzS0263R6x24MCBMgxDq1evDum48dJfAACqi8AMAAAAmCAwAwAAACYIzAAAAICJiKySUZ05htGay0ht/NeavR+rbY6F2rKyMknSoUOH4qbN1FJLLbXUUhtsrdVqrfF+3CISmINtqN1ur3GnqKU20Pux3OZYqK1Xr54kqVGjRlIIF5Z46S+11FJLLbXUVhdTMgAAAAATBGYAAADABIEZAAAAMEFgBgAAAEwQmAEAAAATBGYAAADABIEZAAAAMEFgBgAAAEwQmAEAAAATEXnSHyBJycnJNa41e2KPzWarcW0oxw1nfwEAQOxghBkAAAAwQWAGAAAATBCYEVtK8jR0wGLtkeTQXn2edYYMw6jyX+/5BwLuojS/t1oP/FR7qnHYcq3XtKZTVBDEtkU5FtPjAwCAuiUic5jtdntYtqU2erXec3tL83vrmlEna8iqqep1Uo1365elrKeGL5nmu9/CcepdFLimScZkvbKonV7dtFsT2lZ9vyjHojveS6v6xgWSjDlVXj5oTNTy6dfrdFdfnbVdZTxVdRcNfu+rKTuGqGMtfc6RqC0rK5MkHTp0KG7aTC211FJLLbXB1oZyP5JbRAJzsA2tHMSq+8FQG+HawnEy+n4iSUpUpxrtz5t3kF1tjNaF4+eof735mnTdV5pUadvWY4dLrgDbefwWP3tLlgoMLapSt1xzRjhkG+H7ernWa3rTlWp/YJgn7Fbm/otBx+4H1aL/Fp8wXq71mnZRH62Zcq9PfdS/oyDUq1dPktSoUaO4aTO11FJLLbXUhqM2EFbJQM2lZstmy1a51uuNc2aHvLtWIxyy9c/T0MesGjXjBp2mvVr2ifkIc1LGHNkyKl5Pyu+l0lEpkmtKx7L7x+rnidOqjHy7A+7MJg0rXqw0wpx4uJNn1Lw0v7dOL3xSpYXOfRflWJS0cKtKR6WoKMeivq9P1ZQdhcqK9ncCAABqHYEZMWnj5CStum6Xuh1jhNmjcJzSM1po6Y4Uz0sWnaqubwzUG+cM0rwNr1QNzekvasGsHjrdzwizJ2y7tk3KmKNSVzB3aK9+2Hm6Ugp6yciTpDQ1iPYHBgAAwobAjJhSNPN2rd6QpqTBpZrYRlLubtmOVeQKyyNf+0avzD+gjj2bet7akWNo+bRP1OXKVI15v1AT2rrCcNZNmv1NsmYbYyr242cOc+t/HtBdPQ9raVY7jSxwrqvsHHneLZtXAHeOWKcqyzVivS1znmekGwAAxDcCM2KCQ3u1NKud1t6Ur07tE/VQ21/0eVZbT0j156AxUSuft+vFa0/UlOIh6qD12t10pgrc85BL8jR9yhQNL75JHS8/qMfaTFVB8VB11KnqXimI+5vDXJrfWw+UO0eq/W0/zWv7BKUpaytTMgAAqIsIzIgJ7lDavSRPQz+yyqJTfEKq2U15LxS7/5SmB9bOV9Jz25xzi2feruLX9zu3b5Hp2a56q2R0VesFE7VsepoKKwd4P9t7r6gBAADqBgIzYpZDe7V8wNtqMuNRdZBUnjxDWV4BtcdsW9Vl41KztXGhRYaRpoPGYi0f0bTKflsFuUqGc4Q5V3NcUzzO8Arwld9z7yO3388CAAB1C4EZMctSslKLVv6o9r9JHU6SEooHKNdk2TfJOQ3j9XfaSvUDb+Ke/lFluoe/Ocxj/R/jqfsv1aBi3zCeULJdRQm1u4wNAACIPgIzas5rHWadIuk6Q5NcI79PtT32usbHUjTzdtWbv1n7rkzVnZNfULcg2uJ8cMg3zlU1SvI0vG07Lbz8BZ9pEpZqzmH2aZN7CbnioVX7tXuzZrTqpanR/l4AAECtIjCj5lzrMPvnnE/cMXVo0E8AdM8tbj12uUpzLBp/4X7NubiptLVQ1+VYdMcFaT4jwNsy52lP6tPqPH6Lc1WKym1pkalJmzI1yRWcV9RPdD64xGsahXfoP3jnRC33Kk/KmKM5lbbrMduhNSOqtlmu1TOmr2JlDAAA6hoCM8InNVsF749T68c/VbcgboTznVvs0JyA73nzenBJIK7gHKiNgUP/sbcL3C4AAFBXEJgRXqnZ2jI92o0AAACouYRoNwAAAACIZQRmRExxcXGNa+12e8D3DMOQYRg1qg3luOHsLwAAiB0RmZJRndARrXBDbfzXmr0fq22OhdqysjJJ0qFDh+KmzdRSSy211FIbbK3VGvqSrxEJzME21G6317hT1FIb6P1YbnMs1NarV0+S1KhRIymEC0u89Jdaaqmlllpqq4spGQAAAIAJAjMAAABggsAMAAAAmCAwAwAAACYIzAAAAIAJAjMAAABggsAMAAAAmCAwAwAAACYIzAAAAICJiDzpD6hNS5Ys0Zo1azw/OxwOSdL48eM9r6Wnp+u6666LdlMBAEAdQGBG3GnWrJny8/M9P1ssFknyea1Hjx7RbiYAAKgjmJKBuGMYhpo3by65Rpe9/5Ok5s2byzCMaDcTAADUEQRmxJ3ExER16dLF87PFYvGMMktSly5dlJjIP54AAIDaYXG4h+XCqLi4OOwdsVqtstvtcVVLf2t+3C+//FJPP/20HA6HJyy7/zx+/HifEea60N9w1j7xxBP69ttvNXbsWHXr1q3O97e2aulv7LeZ/tJf+kt/JSk5OTnkfUQkMAeruLi4xp2y2+2yWq1xVUt/a37c//73v7rmmmt06NAhz1QMi8WiRo0aaenSpWrQoEGd6m84awcOHCibzaapU6fqkksuqfP9ra1a+hv7baa/9Jf+0t/awpQMxKUGDRqoa9euVV7v2rWrT1gGAAAIFYEZcatbt25BvQYAABAKAjPiVnp6uho1auS56a9Ro0ZKT0+PdrMAAEAdQ2BG3GrQoIFPQE5PT2c6BgAAqHUEZsS1zp07+/0zAABAbWGxWsS1rl276oQTTvD8GQAAoLYRmBHXGjdu7JmW0bhx42g3BwAA1EEEZsQ9VsYAAADhFLeBuXPnziotLY12MxAD3A8uGTt2bLSbEteGDh0a7SbUmqSkJK1cuTLazUANcG0HEEg0r+1xG5hLS0v1le3VaDcDQAzqYDwc7SaghkpLS/WBLTfazQAQg241sqJ2bFbJAAAAAEwQmAEAAAATBGYAAADARETmMNvt9rBsCwCBBHstCeWaQ21kagHArSbXdqvVGvJxIxKYg22o3W6vlU4BQDDXklCuOdRGphYAvIX72h4IUzIAAAAAEwRmAAAAwASBGQAAADBBYAYAAABMEJgBAAAAEwRmAAAAwASBGQAAADBBYAYAAABMEJgBAAAAEwRmAAAAwASBGQAAADBBYAYAAABMEJgBAAAAE4mROIjdbg/LtgAQSLDXklCuOdRGphYA3GpybbdarSEfNyKBOdiG2u32WukUAARzLQnlmkNtZGoBwFu4r+2BMCUDAAAAMEFgBgAAAEwQmAEAAAATBGYAAADABIEZAAAAMEFgBgAAAEwQmAEAAAATBGYAAADABIEZAAAAMEFgBgAAAEwQmAEAAAATBGYAAADABIEZAAAAMJEYiYPY7fawbAsAgQR7LQnlmkNtZGoBwK0m13ar1RrycSMSmINtqN1ur5VOAUAw15JQrjnURqYWALyF+9oeCFMyAAAAABMEZgAAAMAEgRkAAAAwQWAGAAAATBCYAQAAABMEZgAAAMAEgRkAAAAwQWAGAAAATBCYAQAAABMEZgAAAMAEgRkAAAAwQWAGAAAATBCYAQAAABOJkThIcXFxWLYFgECCuZZYrdaQrjk1rQ3luNGqjVZ/AcBbsNcS7+2Sk5NDPm5EAnOwDS0uLq6VTgFAMNcSu91e42tOKNerUI4brdpo9RcAvAVzLQlHnmRKBgAAiLiGW2aoW9Z67Y12Q4AgEJhRZ/3nk2y1ytqoPbJEuykAACCOEZgBAAAAEwRmRJxD2/RGy1zlbV2jEW0fUAfjYddI8D4ty/qbOhgPq4PxsJ74V0OfmmkXDfC8d9eCPzzvJRS+6Xm93ot7JEk7ctLVZdwvOrFghjKMh7y2/93nGO7t5RqRrvfiHu3ISa9yfABAzTj0u758KFO3GlnKbDtNH+xPDLDdNr2f2l+3Glm61cjSQwsOS66pG3e0nq+vvf610Ps17/3famTpvBe5wRS1LyI3/QGVOU5Yr8dfTtc/N72hF7RVb1yUo55tL9PgVfn6qvkR/eeTbHW/NU/rttyiy1WmH57foEu2ztZXKnMG5Lve0twrH1IffapHby3T0HVv6O7mR5SweYXe2Xe27h6xRitaZ6vdwp76Z257nS6HKyz317Utc1WWe7rn57sWvKd3bzpBkpT27gTNeGe9vhpxWNLhaH9MABD3dk+6SXec97/a+VqyHPpdKz7ZId18TtXtXlivloWz9IEcarhlhjLueEsfXPWw/ta6k25NeEGf/StTl178hxz6Xate/VQnv/iODJXoq4cG6o7zXvLs/6uHBuqhBe/otZsY9EDtYYQZUXP7w5frdDlkUYqu6/8vfd33L7q7+RFJkvWqTrr6vw7PtueNvFOXq0ySVJZ6tfqVHvW85zhhowqL60mSytt08eyjsoTC/9Xo5ffqi0fPdL1yojre2E7vbynxbPN7xwEafPF/o/3RAECdct6OPdoryaIT1dVPWJak5Mfu0qVyXvcPte6k2w86r/kWpeiqfls0feEPkqTE/Ru0ellXdbsqSY22fKBJy3orz3Vdt+hEXXLjn7XQ67oO1AZGmBEVlj/SlJpcZrqN44Ribd+XoMubl2lHTrrueC+t4s0TpWuL66n84m6a9O52GX0G6DNJrZ6a7Bkt9udo4081yPjU57XzOu7RHp0hq6SdLU93jUYDAGrDGcMX6LmHBupB4xQlHrxeI7bc4gnG3oonpWvQvEsqXmgmXfrvBKmZdPaACXrY+FJfP/pXtf3nP/Vq/wHa2eyoVOy8rj/r57q+V8k6NdqdR51BYEbMSyh8U3fPelyvuKZnOLRNb1yUox9d75en3qevbFLCvmUafvVgPXHeW5p4sf/pFIkHr9cU1358OfSfaHcUAOogi07UZa/l6QNXKO6ddbbey02T9zhzwy0zNGzGSD3uCtMObVNe6gva7nr/aLP26nT9QC3Zcp3KF36rgQ+dK8l5b4pZCAdqC1MyEHcOfvKeZjZxzk1LKHzTc3NeefP26nFV4BU9y1Kv1v845uulBYc8r/3nk2xu7gOAMHHod6194UvPWsstb+wXVN2RBX/X3xs28Pzsnmrxj2mztfrTu3Xtxc6pd4dad9KtCf/QbK/r+h8LntKz/zohqOMAwWKEGTGvPPU+ze2Xrjtc/+R27jP/o/7/eUM/SipPvU3ds25UhwLnE33W35WrMtfocuOb79Sjj+Yow2jomqqRovu3jpAuylKHsc6Q3OqpyXr3Ym7uA4BwsOhEdc3YpJuMtyRJCUfa6qHVl+lUHfXZ7nDrAZoyIN0zZe7kZ+7RHYff8IwwS1Kjq67SbU/8XTte6q/hrtFki1KUWfiYlPqQbh3rDNinPzVZr138R9BtBIJhcTgcMfNvGNV5lKFhGPrK9mq0mwwgBnUwHpbNZjvmdna7XVartUbHCPVR0TU9brRqI9VfwzD0gS23RscBULfdamQFdW3n0dgAAABAhBGYAQAAABMRmcNst9vDsi0ABBLstSSUaw61kakFALeaXNtrOhXNW0QCc7ANDWV+HQB4C+ZaEo9ziY+3WgDwFu5reyBMyQAAAABMsKwcAMSZ/Px8TZgwQUePHq2FvcWO0aNHR7sJAOAXI8wAEGc2bdpU58IyAMQyRpgBIE6NHj1af/vb34LePh7WYX7mmWfC9GkBQM0xwgwAAACYIDADAAAAJgjMAAAAgAkCMwAAAGCCwAwAAACYIDADAAAAJgjMAAAAgAkCMwAAAGCCwAwAAACYiMiT/ux2e1i2BYBAgr2WhHLNiVbtkSNHJEmHDx+u9n7isb8A4FaTa3tNn3DqLSKBOdiGhvLYVgDwFsy1JJRrTjRr69evL0lq2LBhtfYTj/0FAG/hvrYHwpQMAAAAwASBGQAAADBBYAYAAABMEJgBAAAAEwRmAAAAwASBGQAAADBBYAYAAABMEJgBAAAAEwRmAAAAwASBGQAAADBBYAYAAABMEJgBAAAAEwRmAEBYvfPOO/rpp5+i3QwAqLHESBzEbreHZVsACCTYa0ko15xo1R45ckSSdPjw4WrvJxptnjlzpmbOnKlWrVqpc+fO6tq1q84666watwPA8asm13ar1RrycSMSmINtqN1ur5VOAUAw15JQrjnRrK1fv74kqWHDhtXaT7Ta7FZUVKSioiLNnDlTZ511lq6//np1795dF154YUj7BXD8CPe1PZCIBGYAABwOh+fPu3bt8ow8u8Nzenp6tJsIAH4RmAEAPu677z6tX7++1vdrsVgkV3AOFJ4dDodmTc7T5de218V/bhXtjwIAJG76AwBUFo6wXB0Wi0UWRy3sCABqCSPMAAC/bDab58/FxcVKTk6u0X4Mw5AqTclwjzZL8kzJuOKKKzRgwADdO+y2aHcdAHwQmAEAEeEvJF9zzTVKSUmJdtMAwBSBGQAQERdeeKG6d++u6667TmeffXa0mwMAQSMwAwDCqn///srIyCAkA4hbBGYAQFj16dOHNfYBxDVWyQAAAABMEJgBAAAAEwRmAAAAwASBGQAAADBBYAYAAABMRGSVjOLi4rBsCwCBBHMtsVqtIV1zalobynGtVqsOHjwoSdq3b1+19lPd41beNhr9BQBvwV5LvLer6VNKvUUkMAfb0FAevQoA3oK5ltjt9hpfc0K5XoVyXLvdrsaNG0uSmjdvXq39VPe43ttGq78A4C2Ya0k48iTrMANADYRyMQ5lTWKr1arRo0dr9OjRYTuuzWar1f4CQLxjDjMAAABgIm5HmJOSktTBeDjazQAQg3iqXPxKSkrSrUZWtJsBIAZF89oet4F55cqVPj/b7fYaf5DRqg11TiD9je3autBfwzCkAP9EXxf6GwtK83urQ34fLZ9+vU4PsE1RjkV3vJemg8ZELZ9+vZLye6vz+C1B7b/12OWa07NptLsZtGhe273P93g8n4/361V1+5uTk6NVq1bpmWee0Q033BDzbeb7ja64DcwAEA2lfsJqj9k2TWhbs/0lZczRlpbj1HqgtHz69Sp1hWNvrcful81WEXpLgwzCpfm99UC572sO7dXSrHYadPStgCHdvc3IAuf/YBMPd9KQVVPV6yRJheOUntFCU3YMUcdKn0konwMAxDICMwBU07bMeSodlVJ7O0zN1pbpzj8WhRjAj8VSslIfJ9yqm5cv0LLfrneGYG8leXq0ywT9/PQ22XKdgbxc65Xbb5H2zOpRNWAXjtM1o07W8FW2qvsCgDqCwAwAcazIz4i0WaAv/WK+9l2bq6F/aqZL3nxIvby2K9d6TUsfr5+fX+szep2gND08y8/OSvI0/K6Pde273xCWAdRpBGYAiDGL7jW0yM/rgUaefV4vHKekfP/7Ldd6vfPQibpxQ1O1ajVWbTMWq2BUimdqRULhfM35Y6CmBDHnuVwblesO10zDAFDHEZgBoJpS8nrJyHP+OaSb6kryNLzLBK2on+gJvZbyfhq+ZKbPiK1De7Xs/rH6+czQ2p1QOF8v33Czlp8kOU56SE/d0E75m4aooyvwlu7Yrk0De3kCdCBljXbqnSHTdOD5gri6oRAAaop1mAGgGpIy5shmszn/+2yUTnuyk8ZsquHOWmRq0qZv9Pc710uuYPzDjvpKWvecOqYO1bzfnJv9J/8Rzb7xhZCnPRQtfErGTVfodEkWnarLe1yjD179VHtquL8dw2arIIyfNQDECkaYAaCmWmTqwT6365KF2zShbeg3AVpKVurT/It06xtDtfam9Zp2UaqMJg1dc5IDj+RWmcKR2avKNuVaryUzL9aWJl1lPFXxetPDizw3/yW1PF9n5/+gPUoJuMSdJNU7dJ76vrRafzvyZ90z8CLTJfEAoC5ghBkAYkTRzNtV/Ho/dZSUULJd209wjmmk5PVS64GBR4J7zLZVjHq/fbPfbQ7mT9YrV0/WAlvFtl/bFumZzn/Xwn8ekCSVp/bUoFWP6NUgRswtOlndchdo0KpH1Oq5bdH+6AAgrAjMABAkh/bqs4kLKoJr4Tjd8V6aht4YeHS5KMeipCAC5dHEQn3+9GRlnjBUhmGo9aimGrHpG0+4zb/gBnX1E5pbjXD43giYml1lhQyH9mrdoqWe6Rhu7mkZ7qkVCUpT35z2WnSv4TPNpFzr9Wq/RVWOnaA0Za0Zr/vn3a7e8w9E++sBgLCJyJQMu90elm2ppZbayNQGu79YanNt11qtVll0qq7t+aUMY6zndbM1kx3aq/8rul/TJ6YEfH9pVju9d/6LatH9M7U/MEwdJfXsUXXbViMccj8upVTSlqd8p1YE0nqsa6rHZ5m68emq0zqSruypK5ImeG7+S8qYI9uVeRrepZ2M+s7/RTT4va+m7Bjif9pFi0xNenezjL5dlbTFuZxdKOdQKN9RbdW6a+KpzdRW39GjRyVJhw4dqvZ+4rG/x3NtbTwxMCKBOdiGxuPjF6ml9nioDWZ/sdbmsNWmZstmyw5qU0vJSuWX3aJRJwV+/8OzVmjG8BTp3jwNb9tOWfUDX5bdT9z7S3Wf9NciUznfZ/rfqEWmJm3KPPZrXv1fs8P8M6n8mcbV9+tqf7y1mdrq1yYmOn/XGjVqVK39xGt/qQ0NN/0BQLi0yNTUGebv5z5R8eeAIbWyjDmaE8RmSUFuBwAwxxxmAAAAwASBGQAAADBBYAaAGiguLq5xbag3sjzzzDMyDEMffvhhWI5rGIYMw6i1/gJAvGMOM1DHhHKjQ+Vam80WdG1ycnK0uw74qO7vgvf5Hsr5XNs3GwGIPkaYAQAAABMEZgAAAMAEUzIAVOF+oMbIguD+WXpb5rwqT5cryrFo/IX7j7lWMBALOOcBmCEwA3VE5f/h+/sfenVYynpq+JJp6nXSMTYsHKek/Kovnz/iZ92TlaIx5+0O+CQ8oDa4z/2xi0dpyo4h6ljD/XDOAwiEKRlAHeDQXi27f6z2Pr1bNptNX9ne1Atv/U295x8Ied9FORaN2VT9OotOVbfcBTrrqikqiPYHhDpte85p+jjh1lrbH+c8gMoYYQbqAItO1TVvTPP8nKA09c1pr8cKd0s1+Odh9/4c2qulO0/XonsNLQqwbYPf+2rpjsAj2eXJM/TK/P7qyD9TIxwKxynj+8VaM3SdblpY891wzgMwQ2AG6qg9W+dKejKkfTi0S99/cpuGb3jl2P9M7UdC4XxNuO4a9X5wlgp6Dq3xP5UD/pRrvd7oUaInN1yvE/esqZV9cs4D8IcpGUAdVK71WjLzYg29seZzmCUpoWS7dh49X+fXIDhIUtHCp9Ttmgka+8bXeqUWpocA3nbkGPrilWdqFGwD4ZwH4E9ERpir81SrUJ+ARS21x1tt5YckOLRXy7Ju0prnt2lOLdx4VHbybGUZ7wR8P/FwJw1ZNbVqaCnJ0/QpUzSouKka6xFd1XSmCg4MCzjiFuufcyzVHjlyRJJ0+PDhau8nlOtxrHxWVqtVKhynS8q2qjQM0x4icc6bfR6x8jnX9dqjR49Kkg4dOhTW3yNqo19bGw8TikhgDrahdru9xp2illpqK1YLuOWcFbUTJFpkatKmTNPjLbt/rH72817RzNtV/Pp+V1hIU++5k/XA/AMB53XG0+cc7dr69etLkho2bFit/VT3uN7bxtpn9flr05VS8ImMPK8XT5QGp+70H2aDFaFzPtDnEWufc12uTUx0RqBGjRqF9feI2viqDYQ5zEAd4ROWQ1hOTnLeSGX0/cR0k8TDnTToi/6yL6qvZhOr1md8v1jLR1QEhcYZj+jKc0Zr3lU1mxsKeOueu1s+D24vHKf0jBY1X1aOcx6ACQIzUAfUaliWpNRs2WzZx9ysXOs1fV9L3/meJXkaccvvenLd9Trd6+UEpenBRfOV3uElnR/CWrlAWHDOAzDBTX9AHWApfE0jC5KVktdLhmF4/kt6bpskqTS/d62syVxZQuF8vX2y12WkcJyMa59Tgw9e9j+ilpqtJS99pWEtX2KdWoQV5zyA2sQIM1AXHGN0rEnGZN2TlaKkLaGNQJdrvaZd1EczmzT0vNZ6ynLnyJlrlG34OpvpPz8nZczRmpbjlN7ypZCeygb4SM3Wmh0VP3LOA6hNBGbgOGDRqbom9xt9nNVOYzbV/LG9CUpT1tZCZfl7s0Wmcr7PDG5HlcINUNs45wHUJgIzcJyw6FR1z92t7tFuCBAhnPMAagtzmAEAAAATBGagjqmthd7dNw4Gq7i4ONpdB3xU93fB+5wP5XwO5XcQQGxiSgYASdKSJUu0cuVKz0MxHA6HJGn8+PGebdLT03XddddFu6lArViyZInWrFnj+dn7nD948KAaN27MOQ9AIjADcGvWrJkWL17s+dlisUiS8vPzPa/16NEj2s0Eak2zZs18zm/OeQCBMCUDgOT65+hmzZpJrpE27/8kqXnz5tWaogHEOsMw1Lx5c4lzHsAxEJgBSJISExN11VVXeX62WCyeETdJ6tKlixIT+Ucp1B2JiYnq0qWL52fOeQCBEJgBeFx55ZUB37vmmmui3Tyg1nXu3Dnge5zzANwi8lfn6twxXFt3+FNLLbXVZxiGGjVqpEOHDnn+WdpisahRo0a68MILj7nfeOtvvNYeOXJEknT48OFq7yeU63E8flbHqr344ov9nvMNGzYM6pyPt/5SW+Ho0aOSpEOHDoX194ja6NdardYa78ctIoE52Iba7fYad4paaqkNvVaSunbtqoULF1Z57eSTT47JNh+Pte6VTBo2bFit/VT3uN7bxutndaxaq9Xq95y/4oorjnnOx2N/qa2odU+3adSoUVh/j6iNr9pAmJIBwEe3bt2Ceg2oK/yd31dccUW0mwUghhCYAfhIT09Xo0aNPDdANWrUSOnp6dFuFhA2/s75tLS0aDcLQAwhMAPw0aBBA5+AnJ6ergYNGkS7WUDYcM4DOBYCM4AqvFcOMFtFAKgrOOcBmCEwA6iia9euOuGEE3TCCSeoa9eu0W4OEHac8wDMsCI7gCoaN27s+Sfqxo0bR7s5QNhVPuf37dsX7SYBiCEEZgB+sTIGjjec8wACITADYdC5c2eVlpZGuxkhcT/EYezYsdFuSsiSkpK0cuXKaDcDQYjm705dOudrC787gBOBGQiD0tJS2ab3iXYz4GIMfCfaTUCQSktL9YKtd7SbAZfHjDnRbgIQE7jpDwAq+emnnzRz5sxoNwMAECMYYQYAST/88IOWLl2qzz//XN99950kqX///tFuFgAgBhCYARy3ioqKtHbtWn366afatWtXtJsDAIhRBGYAx5WNGzdq9erV+vzzz31CsvuGL0myWCzRbiYAIIZEJDAXFxeHZVtvVqs17mrpb+y3OdT+IjY4HA5lZ2friy++0G+//ebzurfKQdkwjGg33dS+ffuqdX5W93yuvC2/R8enY3138Xp9Pnz4sCTp999/D+vvUSzU6jj8/693bXJyco334xaRwBxsQ4uLi2vcKbvdHne19Df22xxKLWJLUlKS6tWrF+1m1Gp/OnbsWK3zs7rns/e20fr9RfQd67uLx+tzcXGxGjZsKEk68cQTw/p7FAu1x9v/f0PpbyBMyQBQ51ksFg0fPlzDhw/Xhg0b/M5bdjgcnhFn90izzWYLuM9Q/wdktVojXgsAqBkCM4DjSvv27dW+fXtlZWVp/fr1WrduHTf9AQBMEZgBHLcuuOACpaWlKSsrSz/99JOWLFnis6wcAAAiMAOA09lnn63+/furf//+nvAMAIB40h8AVOUOzwAAiBFmAAAQLaHcwBpKbXJysqZMmRJXbUZ0McIMAAAAmCAwAwAAACYIzAAAIGpK83trzKaqrzu0V0vvf0Dzfqv0RkmehrdtJ8MwfP7rmDq06rYBjpf03LZqvd57/gHPz+Var2lNp6jgWAcqyVPWxG0q13rlXpRapb2GYfjsF7GNOcwAACBqGmc8ojPPGaR5G17RX9b0VufxW3w3uM7QJNcfDxoTtXx6piatkIY+ZtWoGTfoNO3VsvvHavfz/bXv8lQZTRr6lG/LnKfSUSmen5My5miPeiu9ZQdN2TFEHV2huEN+HxVNTwmmycdUrvWafu4u/c+BTCVIytpaqKxof9AICYEZAABETYLS9ODG7cqatk29npgjW4bzdYcrCP88cZp6nRTEfsr+rL457bWmPFdzejZ1vlg4Tr2LznCOVme108gCr6dznrhFWcbbnh8b6wndZDwhuYL5yufter7z01pRP1FSV6UP66uRr32jp8Z8I10gyZjjqe0x26YJbV0/lORpZMfVar/zZXWM9oeLWkNgBgAA0dUiU689sVefZ53hG2rlO8Lc4Pe+nlHhel+O1E3GaElS4uFOGiIpqeX5UlFFadHCp3Tu9dmyqKm65+6WzRXElw94W01mPOoJtOVar+lNV6r9gWE+IXfSpttUmt9bD3iF8J4d8zyj26dLKsqx6C3v/Zy7S7cdeFkdtF7T/OwT8YnADAAAosYwDGfgXTVVvXJ3y1Y4TukZLTzB2M0dat3KLnteC7ymZPwsSWe0UdP5u6WeTeXQXv1f0f26uF/obSxL+Lc+m7haf37iJp1usl2C0vTAgTRJUlGOoR/X/K5WWWfIqPyXABdPv4MYQUd0RSQw2+32sGxLLbWxXovYEeh7jMfzKlK1lbfl9+j4FMx3V9Pv12q16mvboorAK0mp2frnjvWadlGqPvrwfZ17+RK1PzBMHSQdve0i/cm1mb8R5vIW56vtcwtV8ESKOpasVH7ZLRoVShgtydO40d9qR9kb+mXVVP3n+f7Ky/jLMctK83vrkrKtKm3TXHKNbHvv03uEOhKf8/FeWxvrX0ckMAfbULvdXuNOUUttrNUitvj7HuPxvIpkrfe2/B4dv4713dXq91uSpxEdV6v9upeVtbXQOarseitBaXp4VsWm/kaYE5Sm7k8aemvTMKX+33z9mpHrDKWF42T0/cT3WMa7vj9XmpfcM/sOvfuPdvrw2Uv089GndNdJe/XrfYP0S/rdmnHPh5oaoAtFORbd8V6alBk7nzO1oWNKBgAAiA0tMvXC9521NOsMjXlgtyactV1bb2+tW6qxi1Y3jtUzCxera1GSbpzouvkvNVs2W7YUYL5yoDnMY2+WSvPfkSRZdKpOaXGq+ua018zxvZQk39U3JGfgf3XbIn3+ToHO/ke0P0zUJgIzAACIOoelRJ9npbpu+kuWCgwtcr232nvqxaqp6mVxvt7gX9m6tI8rmV5naGDmPJWOytb3Cy0af+N+zfEzHSOhpPoh3K1c6/XOQydq+Aab/rKmt3rPz9V413uemwNnNJUK10b740QtIzADAICoszhaeFaykPvBJVntdMs5K3xHckvyNLzLBK2un6iz/zFPdtuDPsvPleb31tU/DdLd08do3lUv+9xQ59BeLR0zWEmDd5vevBfIwfzJevmGPlp+knM95zmSSvPv1g87D2jPd3N17vVzarBXxAOe9AcAAKIuad1zniftleb31qVGD711/TaVZsyTYRgVT+FrkalJm76RzWbzCdLOEeoz1CG/j9a//LJyCjppw+WDfZ7+tz3nNA06+pYeblvt5kklecp+pIWefPZ6n7Cd1PJ8zf1ujXNFjjOD2M/uzZrR6rwaBXZEDyPMAAAgaiwlK7Vw7VpNbnWLPvuxiwwjWa3HLpfN5pp/LNf848JxSm9Zdbk5SXLUm6/J136lbZleo9EtMpVTII3oOFha97L+ssa1ckWwT/NzjWT/s6yrBq8+qs/HDFaDD3ZXWQKuPLWnXru1j3re86FKA6zIUa71mnZRH810PYXwlrHDo/2xo5oIzAAAIHpaZGrSpkzXw0kqLcHmLTVba3ZUfdmiU32mclTed873ruUqMuaoNMP/rr3XT67cLo/c3eoeoLbKo69Ts1WaeoxtEFeYkgGg9hQt1mX3fqtv6x3j7+L7v9GQybu0z+J7Cdo5d5gm/NA42r0Awipp22d6vO1mbTzG/4Lr27/RrIf/rV9l8Xn9wORsvfxdw2h3AziuEJiBWGUp1bIXXzQNkIdXz1XKS8VVgqf//e3S63cu1UelDcLX5lY3aFW/Ter87gHTzQ5v2ix7+tlq7iiXiharxfsHw/pRAjWRtO0z/c+g4iqBNVSlKdfquef/pUenlJpud/Sf27T95jN1shxK2vaZuk+J/d+T0tJSrVmzJtrNAGodUzIAVJ+lVMtypmnEd6f5ffs8fSDjc9/XSlOvUcHQs9RcB7Rm3YnKePAESf/VzoJP9ciVf5MU+2EAqJ5Sff/wbL259kS/76bpQz1WaVGFn9O7adIrZ+pk2fXdJ82V/nx9SUdUvGCN/nJzhqTD0e5UFfv379emTZuUn5+vzz77TJJks9mCqo3WwymKi4uVk5OjVatW6ZlnntENN9wQkePyEJ/4RWAG4ljDTndrWydJjvLIHtiRpG6PPuqcM1i0WC3WX62S26uOhB9ePVcvnn2fxpzrCsOOcqnonxr1r7M1s1mZVL5LixZerI9WvqGPJElpkufPUrt+fTXrcke0P2aghpJ0wauD9IJrtPryhVfq82FVf08si97XS+f31eAL3WHYoaRtazVrdbLuSCqTQz9pw6xztGvuDD0mSTpf8vxZqv9Mbz0TfN6rFXv27NHXX3+tDz74QJs2bYr2Bw2EHYEZiHWW/2jZi5M8o7neIfLw6rlqt76ra+T2R71+xzadPrOddg/8SDObNFS9I5do5tvt9eeyo353fXj1XF35TkXYrhxQvd8vTb1GCy79Qpf9+ybfcHxBG2V//Jv2WZKcUyw87S7VmrUXqmeXP6SyiteWfbxZknPtpcOrVmpMz7s9+9s5d5jmXvlGRcAWYRm1xTnau2DI3Wr/1/lanNBBd2xqq0t0wGcUeH3vv/kNtXLNKX6700ZtqFdPknTWuwM0+MJf9f3Ds/Xg+f196g5MztbfLCM8r9lTLtLIl0v0q5roZJ/zulTf57fS1bl/+Ly24ZWtks6QJCUsWqun+9/h2deBydl66+ZnvQJ2ZPzwww/asGGDPv74Y23evNnzusNR0R+LpXanrwCxgsAMxLiPn1ql1JdGy5b0X2n/Nxo+dJYmnP6QV6is4Ki3Q88+fKpmvvegssr3aVnONHV+9/yAo79Xz2qrt9yB2rJLub2mq58GOkNz0WJd9dZZGvPSdfqr59ilUo/KBz1LN58xTK/ufMO3Td//U7ede7VKvML64VXzdcN53fXSujI55AzUKx9vKgUI9EBt+/nWYjXb3F/PqlxyheUHz++vz19t7ArVMzV68SA/I7al2jS9ua7deI/ukkOWRe9r1G1fa+Omtrpq0EXqkLlDG4e11SUql0M/aeObV2vYV80kHZEkWXS2Op6frbe+8w26SdvW6oELrtTnqvjLpmXRQj14wVUau6RcDlegfjE3SVKE/yVJUnl5ud599119/PHHKioq8rzuHZLlJygbhhHxtgLhxE1/QIxre18XZ2CVpGbt9HD3TZr85a8Bt//LuI7OAOxIUrdb2uiU3fuq3hRo2aVZ0w5WbCtn8M3KPltfFPxb+ywJ2lnwqd9j+3Pezfdo3+i1FatjWHbp9TH1NfNG37mbu384T1/f4Vyu36IkdXusQ8DRbyAcEl5oo0tcwTNp21rNWtVVLw5Lcr2bpAtvOk0FW/zNp09S6+F/8owOJ16VonZHnX+2p1ykG8q/0qrvTpAkWbdt1czuKeqY5Htun3TfLTr1lq88q2M49JMW3pKoYfc189lu/7/+pJwhzn9RsihJrXLTPG2ONIvFosLCQu3fvz8qxw+3Jk2a6Jxzzol2MxAHIjLCbLfbw7IttdTGem1taHl6I58b4s4451Jpt/9tLWUtlXpyWVD7DbRts42/6ceEFvp195lqeWWQx27WThMemKvkdy9QyR3lWpbznn57bqweTPINHuf1SZfKdukLSQ7LLuXene9ZyN/Jdw6z50bBWpijHeh7jMfzKlK1lbeN598jt9NaNvS5ca6s/kbNMzZqntc2Z6bv069qoiSfyqo38FlOOEfW0nq6JOlsdclpoqcXlGjwheXa8MpWGYMzdHKlG/SOWNvprknv65op5+vzYeUqevhjbZw/QoOTfLdrOryjLtFPWi3JoV1a2eZTLWhQ32sL3znMFTcK1v4UJovFopEjR0qS1q9frxUrVuirr77S7t0VFwKHw+EZcXaPNK9YsSKC32r1Vb75rrrnZzz8/lJbUVsbN1pGJDAH29Bo3XlKLbXhqA2X3T9+rVvO7x3y/F5HvR0q/LWe/uqbCrT/kpN0jqNcv0raseeQdK7vsVX/r37317DT3SpePVfGfeVq12+EZp1rvuqFxXGWsube57OQf9U5zLV3Q6O/7zEez6tI1lYOFHXp98it3pFLXHOZK59nlaYcLFqoCZZbNcnmDKb17d/o7fR9nvcTr0rRgOHbtfU+izYu66KrX/3D7/EcPW7XUr2vEcYfqv/MID1zjHnIFp2lzpvvVWev1/zPYQ7ffH/3d9e5c2d17uxsybZt2/Thhx9q3bp12rVrV8CaY4mX3wVqj5/aQJiSAcS4f2QXVEx1KFqszGW3KKPNCaHt1HGW+j3Q2Hffll3KHfeT+vRspebljZXe8QxtfmOTz7FvW5kWeJ9Fi3XlO+XqfU1rfTPrbfVbx80/iG3uqRR5i73nD78f1ENBfnvzY22sV3GOH7G2040DPtQXT/ysbyf/OeAUiqRtn2nEmD90VZ/WOjJ6jkYvjvanUDMpKSl6/PHHNX/+fP3973/XwIED1aZNm2g3CwgbbvoDYlxG9tlafefrusc1deGvT96vvyaFvmZxw053a5Xm6sr+Gz2v/fWZIZ7R3Yad7tbffxym2/o7Q/LO7requM9HSq40JWPn3GG6bWWadna/VSXTnTcXDrvjUu2cO1TGLNfrt/P0PsQei87W1Zu7S21m67HRzikP9Z/p7XfU19HjRo1ZMFsvGM4pGW0n9tUlZT/6bJN8U7q+u6O+rp5Y33Ozn9uBydmaMPd85yocNufvw1+GGjowOVuPjT7fdHWOWHfaaafp/vvv1/33369ffvlF8+fPj3aTgFpHYAZilWut426S5DN1oSIs+67DfJYefO8sSf+t2EerG7RtSOD3G3a6W7ZO3getNOf47imy3V3x8865rukgFrvnwSV/feIN2e6uGuA9tUWLZQz8xevBJUA0ONdEvqDSvGKLzq4y5cGtNOVa/b9X5JruULGmssf15/kE4//s+F17Ol3ldbNfxbzns959Vi88UjWIN31knF54xDnynGX87JmPfFK0P64aOuWUUzRgwIBoNwOodQRmAP4VLVa/X3tUrMvsmg4yuucJvg8uOdYT+lrdINt015/dwf1/z/K7lNx5d0/RGJ74hzjk0E9aOeI/Mj5s6XWzn3fINp+rXJpyrV6wVexNOltXf3e236Xkmj4yToNj8Il/QF1GYAbgX6sb9GSBc1qFJFnKztFo95rMADzc0y3qv3jvMW/iAxCfCMwAAqo8JcNnugcAyWtaBYC6i1UyAAAAABMEZgAAAMAEgRkAAAAwQWAGAAAATBCYAQAAABMEZgAAAMAEgRkAAAAwEZF1mO12e1i2pZbaWK9F7Aj0PcbjeRWp2srb8nt0fArmu4uH85na47fWarXWeD9uEQnMwTbUbrfXuFPUUhtrtYgt/r7HeDyvIlnrvS2/R8evY3138XI+U0ttKJiSAQAAAJggMAMAAAAmCMwAAACACQIzAAAAYILADAAAAJggMAMAAAAmCMwAAACACQIzAAAAYILADAAAAJggMAMAAAAmCMwAAACACQIzAAAAYILADAAAAJhIjMRBiouLw7KtN6vVGne19Df22xxqfxE7/H2PnM/V6x+/R8enY3138XI+V7dfsdZm+lvz/iYnJ9d4P24RCczBNrS4uLjGnbLb7XFXS39jv82h1CK2+PseOZ+D/8yi1V9E37G+u3g5n70dD7+/9Ld2rzkRCcwAgApWqzWma202W5XXQvmfT3Xa7O/YwVqqKTWuBQAzzGEGUGOz8r/VrPxvo90MAADCihFmIAySkpJkDHwn2s2ImNfyN0a7CaZCGZVF/HjMmBPtJtQ5/O4ATgRmIAxWrlwZ8pyxmv6PKpK1hmFIrn9Gj8f+1hXlWq9pF/XRzCYNj7ntQWOilk+/XqcHeL8ox6K3rndoQls/b5bkaXiXCVpRP9F0vw7t1bL7x+rnidPU6yTXBoXjlJTfS6WjUnz2lzWtrXKfSNGxOLRXS7Pa6a3rt2lOz6Z+t6k8nSOUcyMez+do9Rc4HhCYASAKSvN7q/P4LZKkBr/31ZQdQ9QxhP0lFA9Q7oFhpvso13rl9vu5SjseKM8NGEJ9tMjUpE2ZUkmeHmvzb91aPNTneKX5vdW7PFfv9Kzdz6dCslTQVcZTvq9uy5znG8QBoJYRmAEg0kry9ErZa7LZmkmuUd1LnrshZkLfonsNLfL6uXIgLZp5u05Y7NBl2qullUeSa1GP2baKke7CcWr9Urrp6DgAhAuBGQAirUWmHr+l4sfTL7pbZ+f/oD1KCSkMNtzytIzeHwd8/9p33tZZQezHJ6hWUprfW5eUbVVpW0k6Vdc8e42GPrZY3WbcoKTqNnj3Zr2d0Fa5Ad4+mlio3Itu90w1aaxPdJPxhM82tTE6DwDHQmAGgChyaK/WLVqqWx+eE/LI6eHWT8pmezLg++VaHzCcVqetKQVbZOT5vvfr/HRNO8a6S2fvqPqXgrbTF6tgVIrfwJt4NFVZWwuV5W/+MwBEEIEZAKLAPUc38XAnDVm1WxNqa0qDnxvznMeYqju9jlGUY9Ed76W5fvKeF5wmvec7JUNe0zK65+6Wv5WSf/31V2mtSX93bFdj2yfqOlCeaRWlO7arrNF+bf9N6hig/+Varzd6lGj6hhTP5xb0nGsAqCUEZgCIgqSMObJluFd/OENJ56yotRHUssue14IZN/iuWFFpm1YjHLKNqFprukqGt5I8DX3MqlGu45x88skqNdl8z9a56jHboVH/11sdBkrLpqfpX58kafQLp+v9fx5QrwABOKFwvmacska6ztAkz6sVAZ8pGQAigcAMAFFk0anqPuFlPdjxNc277+Ww3Dxnxu8ScN4Kx6l30XDniK6f0evVxmjJNQK9JzXwMf6v6H5d3E9KajtH+VstmrEgX7+V3aLHbjpNP/b7Qnt69vCZqrFn61zpT3Ok1GzZbNme1xlhBhANBGYAiAGW/7TU+bUUlut9OVI3uYKs3FMy/G1YkqdHu0xQ8TPv6dUy37fc6x4POvqW5j57xPmie1k5VR1hlqTS/AB9K1mp/LJbNMrVv1YjHLorx6K3BjuULOmG1ha9uqliVNs7YANALCAwA0CElf5jgv5x5Rj1OskVTMcMVu7gFXqhlvbvPSXDW7n3DyV5GtFxtYx132iSV1A/f8TP6pJ1hi4tSFaP2bu15VhTM7wkZczRHEkOHfZ5vWjm7Uoa7KhoT+E4ZXy/WMtdU0Ja9X9ff7SZqgLXus4O7dL376boiqFPy7jO36ofvmsxsw4zgHCLSGC22+1h2ZZaaqmNjVp3TTy1OVq1VqtVTf4yUKdmnSGjwPlktW2ZFfOXy7Ve05uuVPtjPIQkoBaZmjrD/1sJJdtVlGD1bJfzvWu0uHCcjL6feLbrMXu3bEEsp+E9kh3wCYKVwrEKxyk9o4Xe2uG1bYtMjX2jtzoM/FTLp1+vpPzJevSJJ1XaOqXKqh9mUzL8fR/xdG5QSy214amtjafBRiQwB9vQeHycKLXUUuv8HY+3Nkez1qJTA642kaA0PbB2vjqmDtWQVVNDntPsnlox0hPO52lqpSfpHTQmarkt+9jL2nkFa+fKG76j095znA8aE7X8JGn7jF168llXOC7J02PXnqgpxVVv0kvKcM5tPuOFAn2+PUnTJ1Z/xLjy9xGP5wa11FIb3dpAmJIBALEmNVsF749T68c/VbcgnmyXoDQ9cCDN73uBwrl7lY7qtsv7BrwqvOc4u42cqfO93n+hOHB5qxEOOSRJlwXcxj3tAwAiicAMALEoNVtbpke7EQAASUqohX0AAAAAdRaBGQAiLBZugjFjGIYMw/B5rbi4OKjaWOovANQWAjMAAABggsAMAAAAmCAwAwAAACYIzAAAAIAJAjMAAABggsAMAAAAmCAwAwAAACYIzAAAAIAJAjMAAABgwuJwOBzhPkiwT2qy2+2yWq3R/kwihv7WbcdDf7t06SJJWrFixXHRX291ub/e3+vx0F9/6G/dRn/rtsr9rY2+J0ai4cE2NJQvlFpqqY1erdVqjbs2U3ts3tvGS5uppZZaasPxF4SIBGYAdZthGNFuAgAAYcMcZgA1lpaWFu0mIEz4bgGgAiPMAGrszTff9Py5uLhYycnJNdpPPP6z3fHWXwA4njHCDAAAAJggMAMAAAAmIrKsHAAAABCvGGEGAAAATBCYAQAAABMEZgAAAMAEgRkAAAAwQWAGAAAATBCYAQAAABMEZgAAAMAEgRkAAAAwQWAGAAAATBCYAQAAABMEZgAAAMAEgRkAAAAwQWAGAAAATBCYAQAAABMEZgAAAMAEgRkAAAAwQWAGAAAATBCYAQAAABMEZgAAAMDE/wf6LwrARAfNrwAAAABJRU5ErkJggg==;" vertex="1" parent="1">
          <mxGeometry x="200" y="1520" width="329.2" height="200" as="geometry" />
        </mxCell>
        <mxCell id="p264wFBTw7rObvd8C1Ne-10" value="3. 执行流程" style="text;html=1;align=left;verticalAlign=middle;resizable=0;points=[];autosize=1;fontColor=#393C56;" vertex="1" parent="1">
          <mxGeometry x="195" y="1780" width="80" height="20" as="geometry" />
        </mxCell>
        <mxCell id="p264wFBTw7rObvd8C1Ne-11" value="-&amp;gt;&amp;nbsp;mysql对update语句的一个流程" style="text;html=1;align=left;verticalAlign=middle;resizable=0;points=[];autosize=1;fontColor=#393C56;fontSize=12;" vertex="1" parent="1">
          <mxGeometry x="224" y="1810" width="190" height="20" as="geometry" />
        </mxCell>
        <mxCell id="p264wFBTw7rObvd8C1Ne-12" value="&lt;div&gt;&lt;span style=&quot;font-size: 10px&quot;&gt;当执行update的时候，会先从磁盘里把数据读取到缓存。&lt;/span&gt;&lt;/div&gt;&lt;span&gt;写入undo文件，这里是在我们事务回滚的时候用的。&lt;/span&gt;&lt;br&gt;&lt;span&gt;修改缓存数据，比如把id为1的name由张三改为李四。&lt;/span&gt;&lt;br&gt;&lt;div&gt;&lt;span style=&quot;font-size: 10px&quot;&gt;写入redo缓存，redo主要是为了宕机重启时，恢复数据用的。&lt;/span&gt;&lt;/div&gt;&lt;div&gt;&lt;span style=&quot;font-size: 10px&quot;&gt;写入redo缓存后，写入到磁盘。&lt;/span&gt;&lt;/div&gt;&lt;div&gt;&lt;span style=&quot;font-size: 10px&quot;&gt;写入binlog文件。&lt;/span&gt;&lt;/div&gt;&lt;div&gt;&lt;span style=&quot;font-size: 10px&quot;&gt;写入binlog后，提交commit给redo，跟redo说已经写入到binlog了。&lt;/span&gt;&lt;/div&gt;&lt;div&gt;&lt;span style=&quot;font-size: 10px&quot;&gt;定期把缓存的数据写入到磁盘。&lt;/span&gt;&lt;/div&gt;" style="text;html=1;align=left;verticalAlign=middle;resizable=1;points=[];autosize=1;fontSize=10;fillColor=#d5e8d4;strokeColor=#82b366;strokeWidth=1;perimeterSpacing=0;resizeWidth=0;" vertex="1" parent="1">
          <mxGeometry x="224" y="1850" width="366" height="130" as="geometry" />
        </mxCell>
      </root>
    </mxGraphModel>
  </diagram>
</mxfile>
